<?xml version="1.0" encoding="UTF-8" standalone="no"?>
<!DOCTYPE svg PUBLIC "-//W3C//DTD SVG 1.1//EN"
 "http://www.w3.org/Graphics/SVG/1.1/DTD/svg11.dtd">
<!-- Generated by graphviz version 3.0.0 (20220226.1711)
 -->
<!-- Pages: 1 -->
<svg width="389pt" height="70pt"
 viewBox="14.40 14.40 374.40 55.33" xmlns="http://www.w3.org/2000/svg" xmlns:xlink="http://www.w3.org/1999/xlink">
<g id="graph0" class="graph" transform="scale(0.156227 0.156227) rotate(0) translate(96.17 350.19)">
<polygon fill="white" stroke="transparent" points="-4,4 -4,-258.01 2300.34,-258.01 2300.34,4 -4,4"/>
<!-- e4 -->
<g id="node1" class="node">
<title>e4</title>
<ellipse fill="none" stroke="black" cx="2274.34" cy="-130.51" rx="18" ry="18"/>
<ellipse fill="none" stroke="black" cx="2274.34" cy="-130.51" rx="22" ry="22"/>
<text text-anchor="middle" x="2274.34" y="-126.81" font-family="Times New Roman,serif" font-size="14.00">e4</text>
</g>
<!--   -->
<g id="node2" class="node">
<title> </title>
<ellipse fill="none" stroke="white" cx="20.51" cy="-103.51" rx="20.51" ry="20.51"/>
<text text-anchor="middle" x="20.51" y="-99.81" font-family="Times New Roman,serif" font-size="14.00"> </text>
</g>
<!-- a0 -->
<g id="node3" class="node">
<title>a0</title>
<ellipse fill="none" stroke="black" cx="98.52" cy="-103.51" rx="20.51" ry="20.51"/>
<text text-anchor="middle" x="98.52" y="-99.81" font-family="Times New Roman,serif" font-size="14.00">a0</text>
</g>
<!--  &#45;&gt;a0 -->
<g id="edge1" class="edge">
<title> &#45;&gt;a0</title>
<path fill="none" stroke="black" d="M41.08,-103.51C49.24,-103.51 58.89,-103.51 67.88,-103.51"/>
<polygon fill="black" stroke="black" points="68.01,-107.01 78.01,-103.51 68.01,-100.01 68.01,-107.01"/>
</g>
<!-- a1 -->
<g id="node4" class="node">
<title>a1</title>
<ellipse fill="none" stroke="black" cx="182.53" cy="-103.51" rx="20.51" ry="20.51"/>
<text text-anchor="middle" x="182.53" y="-99.81" font-family="Times New Roman,serif" font-size="14.00">a1</text>
</g>
<!-- a0&#45;&gt;a1 -->
<g id="edge2" class="edge">
<title>a0&#45;&gt;a1</title>
<path fill="none" stroke="black" d="M119.37,-103.51C129.04,-103.51 140.87,-103.51 151.61,-103.51"/>
<polygon fill="black" stroke="black" points="151.86,-107.01 161.86,-103.51 151.86,-100.01 151.86,-107.01"/>
<text text-anchor="start" x="137.02" y="-107.31" font-family="Times New Roman,serif" font-size="14.00">λ</text>
</g>
<!-- a3 -->
<g id="node5" class="node">
<title>a3</title>
<ellipse fill="none" stroke="black" cx="266.54" cy="-133.51" rx="20.51" ry="20.51"/>
<text text-anchor="middle" x="266.54" y="-129.81" font-family="Times New Roman,serif" font-size="14.00">a3</text>
</g>
<!-- a1&#45;&gt;a3 -->
<g id="edge3" class="edge">
<title>a1&#45;&gt;a3</title>
<path fill="none" stroke="black" d="M202.14,-110.31C212.52,-114.11 225.66,-118.92 237.29,-123.17"/>
<polygon fill="black" stroke="black" points="236.41,-126.58 247.01,-126.73 238.82,-120 236.41,-126.58"/>
<text text-anchor="start" x="221.04" y="-123.31" font-family="Times New Roman,serif" font-size="14.00">λ</text>
</g>
<!-- a5 -->
<g id="node6" class="node">
<title>a5</title>
<ellipse fill="none" stroke="black" cx="266.54" cy="-74.51" rx="20.51" ry="20.51"/>
<text text-anchor="middle" x="266.54" y="-70.81" font-family="Times New Roman,serif" font-size="14.00">a5</text>
</g>
<!-- a1&#45;&gt;a5 -->
<g id="edge4" class="edge">
<title>a1&#45;&gt;a5</title>
<path fill="none" stroke="black" d="M202.14,-96.93C212.52,-93.25 225.66,-88.61 237.29,-84.5"/>
<polygon fill="black" stroke="black" points="238.75,-87.69 247.01,-81.06 236.41,-81.09 238.75,-87.69"/>
<text text-anchor="start" x="221.04" y="-94.31" font-family="Times New Roman,serif" font-size="14.00">λ</text>
</g>
<!-- a4 -->
<g id="node10" class="node">
<title>a4</title>
<ellipse fill="none" stroke="black" cx="351.55" cy="-133.51" rx="20.51" ry="20.51"/>
<text text-anchor="middle" x="351.55" y="-129.81" font-family="Times New Roman,serif" font-size="14.00">a4</text>
</g>
<!-- a3&#45;&gt;a4 -->
<g id="edge7" class="edge">
<title>a3&#45;&gt;a4</title>
<path fill="none" stroke="black" d="M287.22,-133.51C297.24,-133.51 309.65,-133.51 320.81,-133.51"/>
<polygon fill="black" stroke="black" points="321.02,-137.01 331.02,-133.51 321.02,-130.01 321.02,-137.01"/>
<text text-anchor="middle" x="309.05" y="-137.31" font-family="Times New Roman,serif" font-size="14.00">a</text>
</g>
<!-- a6 -->
<g id="node11" class="node">
<title>a6</title>
<ellipse fill="none" stroke="black" cx="351.55" cy="-74.51" rx="20.51" ry="20.51"/>
<text text-anchor="middle" x="351.55" y="-70.81" font-family="Times New Roman,serif" font-size="14.00">a6</text>
</g>
<!-- a5&#45;&gt;a6 -->
<g id="edge9" class="edge">
<title>a5&#45;&gt;a6</title>
<path fill="none" stroke="black" d="M287.22,-74.51C297.24,-74.51 309.65,-74.51 320.81,-74.51"/>
<polygon fill="black" stroke="black" points="321.02,-78.01 331.02,-74.51 321.02,-71.01 321.02,-78.01"/>
<text text-anchor="middle" x="309.05" y="-78.31" font-family="Times New Roman,serif" font-size="14.00">b</text>
</g>
<!-- a2 -->
<g id="node7" class="node">
<title>a2</title>
<ellipse fill="none" stroke="black" cx="435.57" cy="-103.51" rx="20.51" ry="20.51"/>
<text text-anchor="middle" x="435.57" y="-99.81" font-family="Times New Roman,serif" font-size="14.00">a2</text>
</g>
<!-- a7 -->
<g id="node8" class="node">
<title>a7</title>
<ellipse fill="none" stroke="black" cx="519.58" cy="-151.51" rx="20.51" ry="20.51"/>
<text text-anchor="middle" x="519.58" y="-147.81" font-family="Times New Roman,serif" font-size="14.00">a7</text>
</g>
<!-- a2&#45;&gt;a7 -->
<g id="edge5" class="edge">
<title>a2&#45;&gt;a7</title>
<path fill="none" stroke="black" d="M453.56,-113.45C464.89,-120.08 479.99,-128.92 492.78,-136.41"/>
<polygon fill="black" stroke="black" points="491.21,-139.54 501.61,-141.57 494.75,-133.5 491.21,-139.54"/>
<text text-anchor="start" x="474.07" y="-133.31" font-family="Times New Roman,serif" font-size="14.00">λ</text>
</g>
<!-- b3 -->
<g id="node9" class="node">
<title>b3</title>
<ellipse fill="none" stroke="black" cx="856.63" cy="-103.51" rx="20.51" ry="20.51"/>
<text text-anchor="middle" x="856.63" y="-99.81" font-family="Times New Roman,serif" font-size="14.00">b3</text>
</g>
<!-- a2&#45;&gt;b3 -->
<g id="edge6" class="edge">
<title>a2&#45;&gt;b3</title>
<path fill="none" stroke="black" d="M455.26,-97.73C471.75,-93.15 496.53,-87.51 518.58,-87.51 518.58,-87.51 518.58,-87.51 773.62,-87.51 791.53,-87.51 811.25,-91.23 826.86,-95.08"/>
<polygon fill="black" stroke="black" points="826.38,-98.58 836.94,-97.73 828.15,-91.81 826.38,-98.58"/>
<text text-anchor="start" x="642.6" y="-91.31" font-family="Times New Roman,serif" font-size="14.00">λ</text>
</g>
<!-- a9 -->
<g id="node12" class="node">
<title>a9</title>
<ellipse fill="none" stroke="black" cx="603.59" cy="-233.51" rx="20.51" ry="20.51"/>
<text text-anchor="middle" x="603.59" y="-229.81" font-family="Times New Roman,serif" font-size="14.00">a9</text>
</g>
<!-- a7&#45;&gt;a9 -->
<g id="edge11" class="edge">
<title>a7&#45;&gt;a9</title>
<path fill="none" stroke="black" d="M534.86,-165.79C547.68,-178.61 566.67,-197.59 581.28,-212.2"/>
<polygon fill="black" stroke="black" points="578.92,-214.79 588.47,-219.39 583.87,-209.84 578.92,-214.79"/>
<text text-anchor="start" x="558.09" y="-198.31" font-family="Times New Roman,serif" font-size="14.00">λ</text>
</g>
<!-- b1 -->
<g id="node13" class="node">
<title>b1</title>
<ellipse fill="none" stroke="black" cx="603.59" cy="-174.51" rx="20.51" ry="20.51"/>
<text text-anchor="middle" x="603.59" y="-170.81" font-family="Times New Roman,serif" font-size="14.00">b1</text>
</g>
<!-- a7&#45;&gt;b1 -->
<g id="edge12" class="edge">
<title>a7&#45;&gt;b1</title>
<path fill="none" stroke="black" d="M539.6,-156.84C549.74,-159.69 562.44,-163.24 573.77,-166.42"/>
<polygon fill="black" stroke="black" points="573.1,-169.87 583.67,-169.2 574.99,-163.13 573.1,-169.87"/>
<text text-anchor="start" x="558.09" y="-167.31" font-family="Times New Roman,serif" font-size="14.00">λ</text>
</g>
<!-- b4 -->
<g id="node17" class="node">
<title>b4</title>
<ellipse fill="none" stroke="black" cx="940.64" cy="-103.51" rx="20.51" ry="20.51"/>
<text text-anchor="middle" x="940.64" y="-99.81" font-family="Times New Roman,serif" font-size="14.00">b4</text>
</g>
<!-- b3&#45;&gt;b4 -->
<g id="edge19" class="edge">
<title>b3&#45;&gt;b4</title>
<path fill="none" stroke="black" d="M877.48,-103.51C887.15,-103.51 898.98,-103.51 909.72,-103.51"/>
<polygon fill="black" stroke="black" points="909.97,-107.01 919.97,-103.51 909.97,-100.01 909.97,-107.01"/>
<text text-anchor="start" x="895.13" y="-107.31" font-family="Times New Roman,serif" font-size="14.00">λ</text>
</g>
<!-- a4&#45;&gt;a2 -->
<g id="edge8" class="edge">
<title>a4&#45;&gt;a2</title>
<path fill="none" stroke="black" d="M371.16,-126.7C381.55,-122.9 394.69,-118.09 406.31,-113.84"/>
<polygon fill="black" stroke="black" points="407.84,-117.01 416.03,-110.29 405.44,-110.44 407.84,-117.01"/>
<text text-anchor="start" x="390.06" y="-123.31" font-family="Times New Roman,serif" font-size="14.00">λ</text>
</g>
<!-- a6&#45;&gt;a2 -->
<g id="edge10" class="edge">
<title>a6&#45;&gt;a2</title>
<path fill="none" stroke="black" d="M371.16,-81.09C381.55,-84.76 394.69,-89.4 406.31,-93.52"/>
<polygon fill="black" stroke="black" points="405.44,-96.92 416.03,-96.95 407.77,-90.32 405.44,-96.92"/>
<text text-anchor="start" x="390.06" y="-94.31" font-family="Times New Roman,serif" font-size="14.00">λ</text>
</g>
<!-- b0 -->
<g id="node15" class="node">
<title>b0</title>
<ellipse fill="none" stroke="black" cx="688.6" cy="-233.51" rx="20.51" ry="20.51"/>
<text text-anchor="middle" x="688.6" y="-229.81" font-family="Times New Roman,serif" font-size="14.00">b0</text>
</g>
<!-- a9&#45;&gt;b0 -->
<g id="edge15" class="edge">
<title>a9&#45;&gt;b0</title>
<path fill="none" stroke="black" d="M624.26,-233.51C634.29,-233.51 646.7,-233.51 657.86,-233.51"/>
<polygon fill="black" stroke="black" points="658.07,-237.01 668.07,-233.51 658.07,-230.01 658.07,-237.01"/>
<text text-anchor="middle" x="646.1" y="-237.31" font-family="Times New Roman,serif" font-size="14.00">a</text>
</g>
<!-- b2 -->
<g id="node16" class="node">
<title>b2</title>
<ellipse fill="none" stroke="black" cx="688.6" cy="-174.51" rx="20.51" ry="20.51"/>
<text text-anchor="middle" x="688.6" y="-170.81" font-family="Times New Roman,serif" font-size="14.00">b2</text>
</g>
<!-- b1&#45;&gt;b2 -->
<g id="edge17" class="edge">
<title>b1&#45;&gt;b2</title>
<path fill="none" stroke="black" d="M624.26,-174.51C634.29,-174.51 646.7,-174.51 657.86,-174.51"/>
<polygon fill="black" stroke="black" points="658.07,-178.01 668.07,-174.51 658.07,-171.01 658.07,-178.01"/>
<text text-anchor="middle" x="646.1" y="-178.31" font-family="Times New Roman,serif" font-size="14.00">b</text>
</g>
<!-- a8 -->
<g id="node14" class="node">
<title>a8</title>
<ellipse fill="none" stroke="black" cx="772.62" cy="-147.51" rx="20.51" ry="20.51"/>
<text text-anchor="middle" x="772.62" y="-143.81" font-family="Times New Roman,serif" font-size="14.00">a8</text>
</g>
<!-- a8&#45;&gt;a7 -->
<g id="edge14" class="edge">
<title>a8&#45;&gt;a7</title>
<path fill="none" stroke="black" d="M752.06,-146.27C717.79,-144.32 644.7,-141.07 583.09,-144.51 572.32,-145.11 560.57,-146.29 550.18,-147.51"/>
<polygon fill="black" stroke="black" points="549.45,-144.07 539.96,-148.77 550.31,-151.02 549.45,-144.07"/>
<text text-anchor="start" x="642.6" y="-146.31" font-family="Times New Roman,serif" font-size="14.00">λ</text>
</g>
<!-- a8&#45;&gt;b3 -->
<g id="edge13" class="edge">
<title>a8&#45;&gt;b3</title>
<path fill="none" stroke="black" d="M791.01,-138.17C802.1,-132.22 816.69,-124.4 829.19,-117.69"/>
<polygon fill="black" stroke="black" points="831.1,-120.64 838.26,-112.82 827.79,-114.47 831.1,-120.64"/>
<text text-anchor="start" x="811.12" y="-131.31" font-family="Times New Roman,serif" font-size="14.00">λ</text>
</g>
<!-- b0&#45;&gt;a8 -->
<g id="edge16" class="edge">
<title>b0&#45;&gt;a8</title>
<path fill="none" stroke="black" d="M703.52,-218.92C716.44,-205.37 735.85,-185.01 750.65,-169.49"/>
<polygon fill="black" stroke="black" points="753.54,-171.53 757.91,-161.88 748.47,-166.7 753.54,-171.53"/>
<text text-anchor="start" x="727.11" y="-196.31" font-family="Times New Roman,serif" font-size="14.00">λ</text>
</g>
<!-- b2&#45;&gt;a8 -->
<g id="edge18" class="edge">
<title>b2&#45;&gt;a8</title>
<path fill="none" stroke="black" d="M708.21,-168.38C718.52,-164.99 731.55,-160.7 743.12,-156.89"/>
<polygon fill="black" stroke="black" points="744.39,-160.15 752.8,-153.7 742.2,-153.5 744.39,-160.15"/>
<text text-anchor="start" x="727.11" y="-165.31" font-family="Times New Roman,serif" font-size="14.00">λ</text>
</g>
<!-- b6 -->
<g id="node18" class="node">
<title>b6</title>
<ellipse fill="none" stroke="black" cx="1024.65" cy="-197.51" rx="20.51" ry="20.51"/>
<text text-anchor="middle" x="1024.65" y="-193.81" font-family="Times New Roman,serif" font-size="14.00">b6</text>
</g>
<!-- b4&#45;&gt;b6 -->
<g id="edge20" class="edge">
<title>b4&#45;&gt;b6</title>
<path fill="none" stroke="black" d="M954.82,-118.61C967.97,-133.68 988.35,-157.05 1003.53,-174.44"/>
<polygon fill="black" stroke="black" points="1001.3,-177.21 1010.51,-182.44 1006.57,-172.6 1001.3,-177.21"/>
<text text-anchor="start" x="979.15" y="-156.31" font-family="Times New Roman,serif" font-size="14.00">λ</text>
</g>
<!-- b9 -->
<g id="node19" class="node">
<title>b9</title>
<ellipse fill="none" stroke="black" cx="1024.65" cy="-138.51" rx="20.51" ry="20.51"/>
<text text-anchor="middle" x="1024.65" y="-134.81" font-family="Times New Roman,serif" font-size="14.00">b9</text>
</g>
<!-- b4&#45;&gt;b9 -->
<g id="edge21" class="edge">
<title>b4&#45;&gt;b9</title>
<path fill="none" stroke="black" d="M959.84,-111.27C970.46,-115.81 984.07,-121.61 995.99,-126.7"/>
<polygon fill="black" stroke="black" points="994.93,-130.05 1005.5,-130.76 997.68,-123.62 994.93,-130.05"/>
<text text-anchor="start" x="979.15" y="-126.31" font-family="Times New Roman,serif" font-size="14.00">λ</text>
</g>
<!-- c2 -->
<g id="node20" class="node">
<title>c2</title>
<ellipse fill="none" stroke="black" cx="1024.65" cy="-79.51" rx="20.51" ry="20.51"/>
<text text-anchor="middle" x="1024.65" y="-75.81" font-family="Times New Roman,serif" font-size="14.00">c2</text>
</g>
<!-- b4&#45;&gt;c2 -->
<g id="edge22" class="edge">
<title>b4&#45;&gt;c2</title>
<path fill="none" stroke="black" d="M960.66,-97.94C970.81,-94.97 983.5,-91.26 994.83,-87.94"/>
<polygon fill="black" stroke="black" points="996.12,-91.21 1004.73,-85.04 994.15,-84.49 996.12,-91.21"/>
<text text-anchor="start" x="979.15" y="-96.31" font-family="Times New Roman,serif" font-size="14.00">λ</text>
</g>
<!-- c7 -->
<g id="node21" class="node">
<title>c7</title>
<ellipse fill="none" stroke="black" cx="1024.65" cy="-20.51" rx="20.51" ry="20.51"/>
<text text-anchor="middle" x="1024.65" y="-16.81" font-family="Times New Roman,serif" font-size="14.00">c7</text>
</g>
<!-- b4&#45;&gt;c7 -->
<g id="edge23" class="edge">
<title>b4&#45;&gt;c7</title>
<path fill="none" stroke="black" d="M955.55,-89.43C968.39,-76.43 987.65,-56.94 1002.42,-42"/>
<polygon fill="black" stroke="black" points="1005.13,-44.23 1009.67,-34.65 1000.15,-39.31 1005.13,-44.23"/>
<text text-anchor="start" x="979.15" y="-68.31" font-family="Times New Roman,serif" font-size="14.00">λ</text>
</g>
<!-- b7 -->
<g id="node24" class="node">
<title>b7</title>
<ellipse fill="none" stroke="black" cx="1109.66" cy="-197.51" rx="20.51" ry="20.51"/>
<text text-anchor="middle" x="1109.66" y="-193.81" font-family="Times New Roman,serif" font-size="14.00">b7</text>
</g>
<!-- b6&#45;&gt;b7 -->
<g id="edge25" class="edge">
<title>b6&#45;&gt;b7</title>
<path fill="none" stroke="black" d="M1045.33,-197.51C1055.35,-197.51 1067.76,-197.51 1078.92,-197.51"/>
<polygon fill="black" stroke="black" points="1079.13,-201.01 1089.13,-197.51 1079.13,-194.01 1079.13,-201.01"/>
<text text-anchor="middle" x="1067.16" y="-201.31" font-family="Times New Roman,serif" font-size="14.00">a</text>
</g>
<!-- c0 -->
<g id="node26" class="node">
<title>c0</title>
<ellipse fill="none" stroke="black" cx="1109.66" cy="-138.51" rx="20.51" ry="20.51"/>
<text text-anchor="middle" x="1109.66" y="-134.81" font-family="Times New Roman,serif" font-size="14.00">c0</text>
</g>
<!-- b9&#45;&gt;c0 -->
<g id="edge28" class="edge">
<title>b9&#45;&gt;c0</title>
<path fill="none" stroke="black" d="M1045.33,-138.51C1055.35,-138.51 1067.76,-138.51 1078.92,-138.51"/>
<polygon fill="black" stroke="black" points="1079.13,-142.01 1089.13,-138.51 1079.13,-135.01 1079.13,-142.01"/>
<text text-anchor="middle" x="1067.16" y="-142.31" font-family="Times New Roman,serif" font-size="14.00">b</text>
</g>
<!-- c3 -->
<g id="node28" class="node">
<title>c3</title>
<ellipse fill="none" stroke="black" cx="1109.66" cy="-79.51" rx="20.51" ry="20.51"/>
<text text-anchor="middle" x="1109.66" y="-75.81" font-family="Times New Roman,serif" font-size="14.00">c3</text>
</g>
<!-- c2&#45;&gt;c3 -->
<g id="edge31" class="edge">
<title>c2&#45;&gt;c3</title>
<path fill="none" stroke="black" d="M1045.33,-79.51C1055.35,-79.51 1067.76,-79.51 1078.92,-79.51"/>
<polygon fill="black" stroke="black" points="1079.13,-83.01 1089.13,-79.51 1079.13,-76.01 1079.13,-83.01"/>
<text text-anchor="middle" x="1067.16" y="-83.31" font-family="Times New Roman,serif" font-size="14.00">a</text>
</g>
<!-- c8 -->
<g id="node32" class="node">
<title>c8</title>
<ellipse fill="none" stroke="black" cx="1109.66" cy="-20.51" rx="20.51" ry="20.51"/>
<text text-anchor="middle" x="1109.66" y="-16.81" font-family="Times New Roman,serif" font-size="14.00">c8</text>
</g>
<!-- c7&#45;&gt;c8 -->
<g id="edge36" class="edge">
<title>c7&#45;&gt;c8</title>
<path fill="none" stroke="black" d="M1045.33,-20.51C1055.35,-20.51 1067.76,-20.51 1078.92,-20.51"/>
<polygon fill="black" stroke="black" points="1079.13,-24.01 1089.13,-20.51 1079.13,-17.01 1079.13,-24.01"/>
<text text-anchor="middle" x="1067.16" y="-24.31" font-family="Times New Roman,serif" font-size="14.00">b</text>
</g>
<!-- b5 -->
<g id="node22" class="node">
<title>b5</title>
<ellipse fill="none" stroke="black" cx="1514.74" cy="-113.51" rx="20.51" ry="20.51"/>
<text text-anchor="middle" x="1514.74" y="-109.81" font-family="Times New Roman,serif" font-size="14.00">b5</text>
</g>
<!-- d2 -->
<g id="node23" class="node">
<title>d2</title>
<ellipse fill="none" stroke="black" cx="1598.75" cy="-113.51" rx="20.51" ry="20.51"/>
<text text-anchor="middle" x="1598.75" y="-109.81" font-family="Times New Roman,serif" font-size="14.00">d2</text>
</g>
<!-- b5&#45;&gt;d2 -->
<g id="edge24" class="edge">
<title>b5&#45;&gt;d2</title>
<path fill="none" stroke="black" d="M1535.59,-113.51C1545.26,-113.51 1557.09,-113.51 1567.83,-113.51"/>
<polygon fill="black" stroke="black" points="1568.08,-117.01 1578.08,-113.51 1568.08,-110.01 1568.08,-117.01"/>
<text text-anchor="start" x="1553.24" y="-117.31" font-family="Times New Roman,serif" font-size="14.00">λ</text>
</g>
<!-- d4 -->
<g id="node36" class="node">
<title>d4</title>
<ellipse fill="none" stroke="black" cx="1682.76" cy="-143.51" rx="20.51" ry="20.51"/>
<text text-anchor="middle" x="1682.76" y="-139.81" font-family="Times New Roman,serif" font-size="14.00">d4</text>
</g>
<!-- d2&#45;&gt;d4 -->
<g id="edge41" class="edge">
<title>d2&#45;&gt;d4</title>
<path fill="none" stroke="black" d="M1618.36,-120.31C1628.74,-124.11 1641.88,-128.92 1653.51,-133.17"/>
<polygon fill="black" stroke="black" points="1652.63,-136.58 1663.23,-136.73 1655.04,-130 1652.63,-136.58"/>
<text text-anchor="start" x="1637.26" y="-133.31" font-family="Times New Roman,serif" font-size="14.00">λ</text>
</g>
<!-- d6 -->
<g id="node37" class="node">
<title>d6</title>
<ellipse fill="none" stroke="black" cx="1682.76" cy="-84.51" rx="20.51" ry="20.51"/>
<text text-anchor="middle" x="1682.76" y="-80.81" font-family="Times New Roman,serif" font-size="14.00">d6</text>
</g>
<!-- d2&#45;&gt;d6 -->
<g id="edge42" class="edge">
<title>d2&#45;&gt;d6</title>
<path fill="none" stroke="black" d="M1618.36,-106.93C1628.74,-103.25 1641.88,-98.61 1653.51,-94.5"/>
<polygon fill="black" stroke="black" points="1654.96,-97.69 1663.23,-91.06 1652.63,-91.09 1654.96,-97.69"/>
<text text-anchor="start" x="1637.26" y="-104.31" font-family="Times New Roman,serif" font-size="14.00">λ</text>
</g>
<!-- b8 -->
<g id="node25" class="node">
<title>b8</title>
<ellipse fill="none" stroke="black" cx="1371.71" cy="-190.51" rx="20.51" ry="20.51"/>
<text text-anchor="middle" x="1371.71" y="-186.81" font-family="Times New Roman,serif" font-size="14.00">b8</text>
</g>
<!-- b7&#45;&gt;b8 -->
<g id="edge26" class="edge">
<title>b7&#45;&gt;b8</title>
<path fill="none" stroke="black" d="M1130.21,-196.98C1175.3,-195.77 1286.83,-192.76 1340.67,-191.31"/>
<polygon fill="black" stroke="black" points="1341.04,-194.81 1350.94,-191.04 1340.85,-187.81 1341.04,-194.81"/>
<text text-anchor="middle" x="1194.68" y="-199.31" font-family="Times New Roman,serif" font-size="14.00">a</text>
</g>
<!-- b8&#45;&gt;b5 -->
<g id="edge27" class="edge">
<title>b8&#45;&gt;b5</title>
<path fill="none" stroke="black" d="M1391.8,-185.98C1413.48,-180.25 1449.34,-168.98 1476.23,-151.51 1482.64,-147.34 1488.82,-141.91 1494.24,-136.47"/>
<polygon fill="black" stroke="black" points="1496.82,-138.84 1501.13,-129.15 1491.72,-134.04 1496.82,-138.84"/>
<text text-anchor="start" x="1427.23" y="-183.31" font-family="Times New Roman,serif" font-size="14.00">λ</text>
</g>
<!-- c1 -->
<g id="node27" class="node">
<title>c1</title>
<ellipse fill="none" stroke="black" cx="1253.69" cy="-137.51" rx="20.51" ry="20.51"/>
<text text-anchor="middle" x="1253.69" y="-133.81" font-family="Times New Roman,serif" font-size="14.00">c1</text>
</g>
<!-- c0&#45;&gt;c1 -->
<g id="edge29" class="edge">
<title>c0&#45;&gt;c1</title>
<path fill="none" stroke="black" d="M1130.41,-138.37C1154.37,-138.2 1194.99,-137.91 1222.78,-137.72"/>
<polygon fill="black" stroke="black" points="1223.13,-141.21 1233.11,-137.64 1223.08,-134.21 1223.13,-141.21"/>
<text text-anchor="middle" x="1152.17" y="-142.31" font-family="Times New Roman,serif" font-size="14.00">b</text>
</g>
<!-- c1&#45;&gt;b5 -->
<g id="edge30" class="edge">
<title>c1&#45;&gt;b5</title>
<path fill="none" stroke="black" d="M1274.35,-137C1313.13,-135.79 1402.16,-132.03 1476.23,-121.51 1478.98,-121.12 1481.83,-120.64 1484.67,-120.12"/>
<polygon fill="black" stroke="black" points="1485.64,-123.49 1494.75,-118.09 1484.25,-116.63 1485.64,-123.49"/>
<text text-anchor="start" x="1368.21" y="-137.31" font-family="Times New Roman,serif" font-size="14.00">λ</text>
</g>
<!-- c4 -->
<g id="node29" class="node">
<title>c4</title>
<ellipse fill="none" stroke="black" cx="1194.68" cy="-87.51" rx="20.51" ry="20.51"/>
<text text-anchor="middle" x="1194.68" y="-83.81" font-family="Times New Roman,serif" font-size="14.00">c4</text>
</g>
<!-- c3&#45;&gt;c4 -->
<g id="edge32" class="edge">
<title>c3&#45;&gt;c4</title>
<path fill="none" stroke="black" d="M1130.34,-81.4C1140.37,-82.37 1152.77,-83.56 1163.94,-84.64"/>
<polygon fill="black" stroke="black" points="1163.86,-88.15 1174.15,-85.62 1164.53,-81.18 1163.86,-88.15"/>
<text text-anchor="middle" x="1152.17" y="-88.31" font-family="Times New Roman,serif" font-size="14.00">b</text>
</g>
<!-- c5 -->
<g id="node30" class="node">
<title>c5</title>
<ellipse fill="none" stroke="black" cx="1312.7" cy="-88.51" rx="20.51" ry="20.51"/>
<text text-anchor="middle" x="1312.7" y="-84.81" font-family="Times New Roman,serif" font-size="14.00">c5</text>
</g>
<!-- c4&#45;&gt;c5 -->
<g id="edge33" class="edge">
<title>c4&#45;&gt;c5</title>
<path fill="none" stroke="black" d="M1215.36,-87.68C1233.53,-87.83 1260.77,-88.07 1281.66,-88.25"/>
<polygon fill="black" stroke="black" points="1281.89,-91.75 1291.92,-88.34 1281.95,-84.75 1281.89,-91.75"/>
<text text-anchor="middle" x="1253.69" y="-92.31" font-family="Times New Roman,serif" font-size="14.00">a</text>
</g>
<!-- c6 -->
<g id="node31" class="node">
<title>c6</title>
<ellipse fill="none" stroke="black" cx="1430.73" cy="-88.51" rx="20.51" ry="20.51"/>
<text text-anchor="middle" x="1430.73" y="-84.81" font-family="Times New Roman,serif" font-size="14.00">c6</text>
</g>
<!-- c5&#45;&gt;c6 -->
<g id="edge34" class="edge">
<title>c5&#45;&gt;c6</title>
<path fill="none" stroke="black" d="M1333.38,-88.51C1351.55,-88.51 1378.8,-88.51 1399.69,-88.51"/>
<polygon fill="black" stroke="black" points="1399.95,-92.01 1409.95,-88.51 1399.95,-85.01 1399.95,-92.01"/>
<text text-anchor="middle" x="1371.71" y="-92.31" font-family="Times New Roman,serif" font-size="14.00">b</text>
</g>
<!-- c6&#45;&gt;b5 -->
<g id="edge35" class="edge">
<title>c6&#45;&gt;b5</title>
<path fill="none" stroke="black" d="M1450.75,-94.3C1460.89,-97.4 1473.58,-101.27 1484.91,-104.72"/>
<polygon fill="black" stroke="black" points="1484.23,-108.17 1494.82,-107.74 1486.27,-101.48 1484.23,-108.17"/>
<text text-anchor="start" x="1469.23" y="-106.31" font-family="Times New Roman,serif" font-size="14.00">λ</text>
</g>
<!-- c9 -->
<g id="node33" class="node">
<title>c9</title>
<ellipse fill="none" stroke="black" cx="1194.68" cy="-27.51" rx="20.51" ry="20.51"/>
<text text-anchor="middle" x="1194.68" y="-23.81" font-family="Times New Roman,serif" font-size="14.00">c9</text>
</g>
<!-- c8&#45;&gt;c9 -->
<g id="edge37" class="edge">
<title>c8&#45;&gt;c9</title>
<path fill="none" stroke="black" d="M1130.34,-22.16C1140.37,-23.01 1152.77,-24.06 1163.94,-25"/>
<polygon fill="black" stroke="black" points="1163.89,-28.51 1174.15,-25.86 1164.47,-21.53 1163.89,-28.51"/>
<text text-anchor="middle" x="1152.17" y="-28.31" font-family="Times New Roman,serif" font-size="14.00">a</text>
</g>
<!-- d0 -->
<g id="node34" class="node">
<title>d0</title>
<ellipse fill="none" stroke="black" cx="1312.7" cy="-29.51" rx="20.51" ry="20.51"/>
<text text-anchor="middle" x="1312.7" y="-25.81" font-family="Times New Roman,serif" font-size="14.00">d0</text>
</g>
<!-- c9&#45;&gt;d0 -->
<g id="edge38" class="edge">
<title>c9&#45;&gt;d0</title>
<path fill="none" stroke="black" d="M1215.36,-27.85C1233.53,-28.16 1260.77,-28.63 1281.66,-28.99"/>
<polygon fill="black" stroke="black" points="1281.86,-32.49 1291.92,-29.17 1281.98,-25.49 1281.86,-32.49"/>
<text text-anchor="middle" x="1253.69" y="-33.31" font-family="Times New Roman,serif" font-size="14.00">b</text>
</g>
<!-- d1 -->
<g id="node35" class="node">
<title>d1</title>
<ellipse fill="none" stroke="black" cx="1430.73" cy="-29.51" rx="20.51" ry="20.51"/>
<text text-anchor="middle" x="1430.73" y="-25.81" font-family="Times New Roman,serif" font-size="14.00">d1</text>
</g>
<!-- d0&#45;&gt;d1 -->
<g id="edge39" class="edge">
<title>d0&#45;&gt;d1</title>
<path fill="none" stroke="black" d="M1333.38,-29.51C1351.55,-29.51 1378.8,-29.51 1399.69,-29.51"/>
<polygon fill="black" stroke="black" points="1399.95,-33.01 1409.95,-29.51 1399.95,-26.01 1399.95,-33.01"/>
<text text-anchor="middle" x="1371.71" y="-33.31" font-family="Times New Roman,serif" font-size="14.00">a</text>
</g>
<!-- d1&#45;&gt;b5 -->
<g id="edge40" class="edge">
<title>d1&#45;&gt;b5</title>
<path fill="none" stroke="black" d="M1445.64,-43.76C1458.48,-56.91 1477.74,-76.64 1492.5,-91.76"/>
<polygon fill="black" stroke="black" points="1490.27,-94.48 1499.76,-99.19 1495.28,-89.59 1490.27,-94.48"/>
<text text-anchor="start" x="1469.23" y="-78.31" font-family="Times New Roman,serif" font-size="14.00">λ</text>
</g>
<!-- d5 -->
<g id="node40" class="node">
<title>d5</title>
<ellipse fill="none" stroke="black" cx="1767.77" cy="-143.51" rx="20.51" ry="20.51"/>
<text text-anchor="middle" x="1767.77" y="-139.81" font-family="Times New Roman,serif" font-size="14.00">d5</text>
</g>
<!-- d4&#45;&gt;d5 -->
<g id="edge45" class="edge">
<title>d4&#45;&gt;d5</title>
<path fill="none" stroke="black" d="M1703.43,-143.51C1713.46,-143.51 1725.87,-143.51 1737.03,-143.51"/>
<polygon fill="black" stroke="black" points="1737.24,-147.01 1747.24,-143.51 1737.24,-140.01 1737.24,-147.01"/>
<text text-anchor="middle" x="1725.27" y="-147.31" font-family="Times New Roman,serif" font-size="14.00">a</text>
</g>
<!-- d7 -->
<g id="node41" class="node">
<title>d7</title>
<ellipse fill="none" stroke="black" cx="1767.77" cy="-84.51" rx="20.51" ry="20.51"/>
<text text-anchor="middle" x="1767.77" y="-80.81" font-family="Times New Roman,serif" font-size="14.00">d7</text>
</g>
<!-- d6&#45;&gt;d7 -->
<g id="edge47" class="edge">
<title>d6&#45;&gt;d7</title>
<path fill="none" stroke="black" d="M1703.43,-84.51C1713.46,-84.51 1725.87,-84.51 1737.03,-84.51"/>
<polygon fill="black" stroke="black" points="1737.24,-88.01 1747.24,-84.51 1737.24,-81.01 1737.24,-88.01"/>
<text text-anchor="middle" x="1725.27" y="-88.31" font-family="Times New Roman,serif" font-size="14.00">b</text>
</g>
<!-- d3 -->
<g id="node38" class="node">
<title>d3</title>
<ellipse fill="none" stroke="black" cx="1851.79" cy="-113.51" rx="20.51" ry="20.51"/>
<text text-anchor="middle" x="1851.79" y="-109.81" font-family="Times New Roman,serif" font-size="14.00">d3</text>
</g>
<!-- d3&#45;&gt;e4 -->
<g id="edge44" class="edge">
<title>d3&#45;&gt;e4</title>
<path fill="none" stroke="black" d="M1867.99,-126.48C1883.66,-138.49 1909.33,-154.51 1934.8,-154.51 1934.8,-154.51 1934.8,-154.51 2189.84,-154.51 2208.4,-154.51 2228.41,-148.96 2244.18,-143.2"/>
<polygon fill="black" stroke="black" points="2245.83,-146.32 2253.88,-139.44 2243.3,-139.79 2245.83,-146.32"/>
<text text-anchor="start" x="2058.82" y="-158.31" font-family="Times New Roman,serif" font-size="14.00">λ</text>
</g>
<!-- d8 -->
<g id="node39" class="node">
<title>d8</title>
<ellipse fill="none" stroke="black" cx="1935.8" cy="-71.51" rx="20.51" ry="20.51"/>
<text text-anchor="middle" x="1935.8" y="-67.81" font-family="Times New Roman,serif" font-size="14.00">d8</text>
</g>
<!-- d3&#45;&gt;d8 -->
<g id="edge43" class="edge">
<title>d3&#45;&gt;d8</title>
<path fill="none" stroke="black" d="M1870.58,-104.39C1881.62,-98.74 1896,-91.38 1908.36,-85.05"/>
<polygon fill="black" stroke="black" points="1910.01,-88.13 1917.32,-80.46 1906.82,-81.9 1910.01,-88.13"/>
<text text-anchor="start" x="1890.29" y="-98.31" font-family="Times New Roman,serif" font-size="14.00">λ</text>
</g>
<!-- e0 -->
<g id="node42" class="node">
<title>e0</title>
<ellipse fill="none" stroke="black" cx="2019.81" cy="-105.51" rx="20.51" ry="20.51"/>
<text text-anchor="middle" x="2019.81" y="-101.81" font-family="Times New Roman,serif" font-size="14.00">e0</text>
</g>
<!-- d8&#45;&gt;e0 -->
<g id="edge49" class="edge">
<title>d8&#45;&gt;e0</title>
<path fill="none" stroke="black" d="M1955,-79.05C1965.62,-83.45 1979.23,-89.1 1991.15,-94.04"/>
<polygon fill="black" stroke="black" points="1990.08,-97.38 2000.66,-97.98 1992.76,-90.92 1990.08,-97.38"/>
<text text-anchor="start" x="1974.3" y="-94.31" font-family="Times New Roman,serif" font-size="14.00">λ</text>
</g>
<!-- e2 -->
<g id="node43" class="node">
<title>e2</title>
<ellipse fill="none" stroke="black" cx="2019.81" cy="-46.51" rx="20.51" ry="20.51"/>
<text text-anchor="middle" x="2019.81" y="-42.81" font-family="Times New Roman,serif" font-size="14.00">e2</text>
</g>
<!-- d8&#45;&gt;e2 -->
<g id="edge50" class="edge">
<title>d8&#45;&gt;e2</title>
<path fill="none" stroke="black" d="M1955.41,-64.77C1961.41,-62.67 1968.11,-60.41 1974.3,-58.51 1979.34,-56.96 1984.73,-55.41 1989.95,-53.97"/>
<polygon fill="black" stroke="black" points="1990.92,-57.33 1999.67,-51.35 1989.1,-50.57 1990.92,-57.33"/>
<text text-anchor="start" x="1974.3" y="-62.31" font-family="Times New Roman,serif" font-size="14.00">λ</text>
</g>
<!-- d5&#45;&gt;d3 -->
<g id="edge46" class="edge">
<title>d5&#45;&gt;d3</title>
<path fill="none" stroke="black" d="M1787.38,-136.7C1797.77,-132.9 1810.91,-128.09 1822.53,-123.84"/>
<polygon fill="black" stroke="black" points="1824.06,-127.01 1832.25,-120.29 1821.66,-120.44 1824.06,-127.01"/>
<text text-anchor="start" x="1806.28" y="-133.31" font-family="Times New Roman,serif" font-size="14.00">λ</text>
</g>
<!-- d7&#45;&gt;d3 -->
<g id="edge48" class="edge">
<title>d7&#45;&gt;d3</title>
<path fill="none" stroke="black" d="M1787.38,-91.09C1797.77,-94.76 1810.91,-99.4 1822.53,-103.52"/>
<polygon fill="black" stroke="black" points="1821.66,-106.92 1832.25,-106.95 1823.99,-100.32 1821.66,-106.92"/>
<text text-anchor="start" x="1806.28" y="-104.31" font-family="Times New Roman,serif" font-size="14.00">λ</text>
</g>
<!-- e1 -->
<g id="node45" class="node">
<title>e1</title>
<ellipse fill="none" stroke="black" cx="2104.82" cy="-105.51" rx="20.51" ry="20.51"/>
<text text-anchor="middle" x="2104.82" y="-101.81" font-family="Times New Roman,serif" font-size="14.00">e1</text>
</g>
<!-- e0&#45;&gt;e1 -->
<g id="edge53" class="edge">
<title>e0&#45;&gt;e1</title>
<path fill="none" stroke="black" d="M2040.48,-105.51C2050.51,-105.51 2062.92,-105.51 2074.08,-105.51"/>
<polygon fill="black" stroke="black" points="2074.29,-109.01 2084.29,-105.51 2074.29,-102.01 2074.29,-109.01"/>
<text text-anchor="middle" x="2062.32" y="-109.31" font-family="Times New Roman,serif" font-size="14.00">a</text>
</g>
<!-- e3 -->
<g id="node46" class="node">
<title>e3</title>
<ellipse fill="none" stroke="black" cx="2104.82" cy="-46.51" rx="20.51" ry="20.51"/>
<text text-anchor="middle" x="2104.82" y="-42.81" font-family="Times New Roman,serif" font-size="14.00">e3</text>
</g>
<!-- e2&#45;&gt;e3 -->
<g id="edge55" class="edge">
<title>e2&#45;&gt;e3</title>
<path fill="none" stroke="black" d="M2040.48,-46.51C2050.51,-46.51 2062.92,-46.51 2074.08,-46.51"/>
<polygon fill="black" stroke="black" points="2074.29,-50.01 2084.29,-46.51 2074.29,-43.01 2074.29,-50.01"/>
<text text-anchor="middle" x="2062.32" y="-50.31" font-family="Times New Roman,serif" font-size="14.00">b</text>
</g>
<!-- d9 -->
<g id="node44" class="node">
<title>d9</title>
<ellipse fill="none" stroke="black" cx="2188.84" cy="-76.51" rx="20.51" ry="20.51"/>
<text text-anchor="middle" x="2188.84" y="-72.81" font-family="Times New Roman,serif" font-size="14.00">d9</text>
</g>
<!-- d9&#45;&gt;e4 -->
<g id="edge51" class="edge">
<title>d9&#45;&gt;e4</title>
<path fill="none" stroke="black" d="M2206.73,-87.43C2218.2,-94.85 2233.59,-104.8 2246.69,-113.27"/>
<polygon fill="black" stroke="black" points="2245.01,-116.36 2255.31,-118.85 2248.82,-110.48 2245.01,-116.36"/>
<text text-anchor="start" x="2227.34" y="-109.31" font-family="Times New Roman,serif" font-size="14.00">λ</text>
</g>
<!-- d9&#45;&gt;d8 -->
<g id="edge52" class="edge">
<title>d9&#45;&gt;d8</title>
<path fill="none" stroke="black" d="M2176.43,-59.92C2165.31,-45.37 2146.96,-25.21 2125.33,-16.51 2073.37,4.4 2051.71,3.27 1999.3,-16.51 1982.33,-22.91 1966.98,-36.26 1955.73,-48.2"/>
<polygon fill="black" stroke="black" points="1953.03,-45.97 1948.96,-55.75 1958.24,-50.64 1953.03,-45.97"/>
<text text-anchor="start" x="2058.82" y="-5.31" font-family="Times New Roman,serif" font-size="14.00">λ</text>
</g>
<!-- e1&#45;&gt;d9 -->
<g id="edge54" class="edge">
<title>e1&#45;&gt;d9</title>
<path fill="none" stroke="black" d="M2124.43,-98.93C2134.81,-95.25 2147.96,-90.61 2159.58,-86.5"/>
<polygon fill="black" stroke="black" points="2161.04,-89.69 2169.3,-83.06 2158.7,-83.09 2161.04,-89.69"/>
<text text-anchor="start" x="2143.33" y="-96.31" font-family="Times New Roman,serif" font-size="14.00">λ</text>
</g>
<!-- e3&#45;&gt;d9 -->
<g id="edge56" class="edge">
<title>e3&#45;&gt;d9</title>
<path fill="none" stroke="black" d="M2124.43,-53.31C2134.81,-57.11 2147.96,-61.92 2159.58,-66.17"/>
<polygon fill="black" stroke="black" points="2158.71,-69.58 2169.3,-69.73 2161.11,-63 2158.71,-69.58"/>
<text text-anchor="start" x="2143.33" y="-66.31" font-family="Times New Roman,serif" font-size="14.00">λ</text>
</g>
</g>
</svg>
