<?xml version="1.0" encoding="UTF-8" standalone="no"?>
<!DOCTYPE svg PUBLIC "-//W3C//DTD SVG 1.1//EN"
 "http://www.w3.org/Graphics/SVG/1.1/DTD/svg11.dtd">
<!-- Generated by graphviz version 3.0.0 (20220226.1711)
 -->
<!-- Pages: 1 -->
<svg width="389pt" height="125pt"
 viewBox="14.40 14.40 374.40 110.55" xmlns="http://www.w3.org/2000/svg" xmlns:xlink="http://www.w3.org/1999/xlink">
<g id="graph0" class="graph" transform="scale(0.562425 0.562425) rotate(0) translate(29.6 192.56)">
<polygon fill="white" stroke="transparent" points="-4,4 -4,-166.96 636.09,-166.96 636.09,4 -4,4"/>
<!-- a0 -->
<g id="node1" class="node">
<title>a0</title>
<ellipse fill="none" stroke="black" cx="610.09" cy="-74.96" rx="18" ry="18"/>
<ellipse fill="none" stroke="black" cx="610.09" cy="-74.96" rx="22" ry="22"/>
<text text-anchor="middle" x="610.09" y="-71.26" font-family="Times New Roman,serif" font-size="14.00">a0</text>
</g>
<!-- a0&#45;&gt;a0 -->
<g id="edge2" class="edge">
<title>a0&#45;&gt;a0</title>
<path fill="none" stroke="black" d="M606.02,-96.76C605.64,-106.52 606.99,-114.96 610.09,-114.96 612.02,-114.96 613.27,-111.66 613.85,-106.81"/>
<polygon fill="black" stroke="black" points="617.35,-106.86 614.15,-96.76 610.35,-106.66 617.35,-106.86"/>
<text text-anchor="middle" x="610.09" y="-118.76" font-family="Times New Roman,serif" font-size="14.00">a</text>
</g>
<!-- a0&#45;&gt;a0 -->
<g id="edge3" class="edge">
<title>a0&#45;&gt;a0</title>
<path fill="none" stroke="black" d="M603.15,-96.07C600.08,-114.05 602.39,-132.96 610.09,-132.96 616.33,-132.96 619.03,-120.48 618.18,-106.15"/>
<polygon fill="black" stroke="black" points="621.64,-105.61 617.03,-96.07 614.69,-106.41 621.64,-105.61"/>
<text text-anchor="middle" x="610.09" y="-136.76" font-family="Times New Roman,serif" font-size="14.00">b</text>
</g>
<!--   -->
<g id="node2" class="node">
<title> </title>
<ellipse fill="none" stroke="white" cx="20.51" cy="-62.96" rx="20.51" ry="20.51"/>
<text text-anchor="middle" x="20.51" y="-59.26" font-family="Times New Roman,serif" font-size="14.00"> </text>
</g>
<!-- a4 -->
<g id="node3" class="node">
<title>a4</title>
<ellipse fill="none" stroke="black" cx="98.52" cy="-62.96" rx="20.51" ry="20.51"/>
<text text-anchor="middle" x="98.52" y="-59.26" font-family="Times New Roman,serif" font-size="14.00">a4</text>
</g>
<!--  &#45;&gt;a4 -->
<g id="edge1" class="edge">
<title> &#45;&gt;a4</title>
<path fill="none" stroke="black" d="M41.08,-62.96C49.24,-62.96 58.89,-62.96 67.88,-62.96"/>
<polygon fill="black" stroke="black" points="68.01,-66.46 78.01,-62.96 68.01,-59.46 68.01,-66.46"/>
</g>
<!-- a5 -->
<g id="node9" class="node">
<title>a5</title>
<ellipse fill="none" stroke="black" cx="183.53" cy="-62.96" rx="20.51" ry="20.51"/>
<text text-anchor="middle" x="183.53" y="-59.26" font-family="Times New Roman,serif" font-size="14.00">a5</text>
</g>
<!-- a4&#45;&gt;a5 -->
<g id="edge10" class="edge">
<title>a4&#45;&gt;a5</title>
<path fill="none" stroke="black" d="M119.19,-62.96C129.22,-62.96 141.62,-62.96 152.79,-62.96"/>
<polygon fill="black" stroke="black" points="153,-66.46 163,-62.96 153,-59.46 153,-66.46"/>
<text text-anchor="middle" x="141.02" y="-66.76" font-family="Times New Roman,serif" font-size="14.00">a</text>
</g>
<!-- a4&#45;&gt;a5 -->
<g id="edge11" class="edge">
<title>a4&#45;&gt;a5</title>
<path fill="none" stroke="black" d="M116.42,-52.28C122.65,-48.92 129.92,-45.65 137.02,-43.96 143.85,-42.33 150.97,-43.69 157.5,-46.29"/>
<polygon fill="black" stroke="black" points="156.02,-49.47 166.53,-50.8 159.14,-43.2 156.02,-49.47"/>
<text text-anchor="middle" x="141.02" y="-47.76" font-family="Times New Roman,serif" font-size="14.00">b</text>
</g>
<!-- a1 -->
<g id="node4" class="node">
<title>a1</title>
<ellipse fill="none" stroke="black" cx="353.55" cy="-33.96" rx="20.51" ry="20.51"/>
<text text-anchor="middle" x="353.55" y="-30.26" font-family="Times New Roman,serif" font-size="14.00">a1</text>
</g>
<!-- a8 -->
<g id="node5" class="node">
<title>a8</title>
<ellipse fill="none" stroke="black" cx="523.58" cy="-74.96" rx="20.51" ry="20.51"/>
<text text-anchor="middle" x="523.58" y="-71.26" font-family="Times New Roman,serif" font-size="14.00">a8</text>
</g>
<!-- a1&#45;&gt;a8 -->
<g id="edge4" class="edge">
<title>a1&#45;&gt;a8</title>
<path fill="none" stroke="black" d="M373.61,-28.41C395,-23.15 430.45,-17.36 459.07,-26.96 475.04,-32.31 490.2,-43.45 501.7,-53.65"/>
<polygon fill="black" stroke="black" points="499.33,-56.23 509.04,-60.47 504.1,-51.1 499.33,-56.23"/>
<text text-anchor="middle" x="438.57" y="-30.76" font-family="Times New Roman,serif" font-size="14.00">a</text>
</g>
<!-- a3 -->
<g id="node6" class="node">
<title>a3</title>
<ellipse fill="none" stroke="black" cx="438.57" cy="-71.96" rx="20.51" ry="20.51"/>
<text text-anchor="middle" x="438.57" y="-68.26" font-family="Times New Roman,serif" font-size="14.00">a3</text>
</g>
<!-- a1&#45;&gt;a3 -->
<g id="edge5" class="edge">
<title>a1&#45;&gt;a3</title>
<path fill="none" stroke="black" d="M372.57,-42.2C383.55,-47.23 397.82,-53.76 410.18,-59.42"/>
<polygon fill="black" stroke="black" points="409.04,-62.75 419.59,-63.73 411.95,-56.38 409.04,-62.75"/>
<text text-anchor="middle" x="396.06" y="-58.76" font-family="Times New Roman,serif" font-size="14.00">b</text>
</g>
<!-- a8&#45;&gt;a0 -->
<g id="edge18" class="edge">
<title>a8&#45;&gt;a0</title>
<path fill="none" stroke="black" d="M544.18,-74.96C554.08,-74.96 566.34,-74.96 577.53,-74.96"/>
<polygon fill="black" stroke="black" points="577.82,-78.46 587.82,-74.96 577.82,-71.46 577.82,-78.46"/>
<text text-anchor="middle" x="566.09" y="-78.76" font-family="Times New Roman,serif" font-size="14.00">a</text>
</g>
<!-- a8&#45;&gt;a0 -->
<g id="edge19" class="edge">
<title>a8&#45;&gt;a0</title>
<path fill="none" stroke="black" d="M541.48,-64.28C547.71,-60.92 554.99,-57.65 562.09,-55.96 568.87,-54.34 575.96,-55.54 582.52,-57.98"/>
<polygon fill="black" stroke="black" points="581.1,-61.18 591.64,-62.24 584.07,-54.84 581.1,-61.18"/>
<text text-anchor="middle" x="566.09" y="-59.76" font-family="Times New Roman,serif" font-size="14.00">b</text>
</g>
<!-- a3&#45;&gt;a8 -->
<g id="edge8" class="edge">
<title>a3&#45;&gt;a8</title>
<path fill="none" stroke="black" d="M459.24,-72.67C469.27,-73.03 481.67,-73.48 492.84,-73.88"/>
<polygon fill="black" stroke="black" points="492.93,-77.39 503.05,-74.25 493.18,-70.39 492.93,-77.39"/>
<text text-anchor="middle" x="481.07" y="-77.76" font-family="Times New Roman,serif" font-size="14.00">a</text>
</g>
<!-- a3&#45;&gt;a8 -->
<g id="edge9" class="edge">
<title>a3&#45;&gt;a8</title>
<path fill="none" stroke="black" d="M456.14,-60.58C464.64,-56.09 475.25,-52.5 485.07,-54.96 489.07,-55.96 493.1,-57.47 496.97,-59.22"/>
<polygon fill="black" stroke="black" points="495.63,-62.47 506.12,-63.93 498.83,-56.25 495.63,-62.47"/>
<text text-anchor="middle" x="481.07" y="-58.76" font-family="Times New Roman,serif" font-size="14.00">b</text>
</g>
<!-- a2 -->
<g id="node7" class="node">
<title>a2</title>
<ellipse fill="none" stroke="black" cx="268.54" cy="-105.96" rx="20.51" ry="20.51"/>
<text text-anchor="middle" x="268.54" y="-102.26" font-family="Times New Roman,serif" font-size="14.00">a2</text>
</g>
<!-- a2&#45;&gt;a8 -->
<g id="edge6" class="edge">
<title>a2&#45;&gt;a8</title>
<path fill="none" stroke="black" d="M286.27,-116.61C298.64,-123.79 316.2,-132.54 333.05,-135.96 388.08,-147.12 406.43,-146.5 459.07,-126.96 475.46,-120.87 490.73,-108.68 502.18,-97.62"/>
<polygon fill="black" stroke="black" points="504.94,-99.82 509.47,-90.25 499.96,-94.9 504.94,-99.82"/>
<text text-anchor="middle" x="396.06" y="-146.76" font-family="Times New Roman,serif" font-size="14.00">a</text>
</g>
<!-- a6 -->
<g id="node8" class="node">
<title>a6</title>
<ellipse fill="none" stroke="black" cx="353.55" cy="-105.96" rx="20.51" ry="20.51"/>
<text text-anchor="middle" x="353.55" y="-102.26" font-family="Times New Roman,serif" font-size="14.00">a6</text>
</g>
<!-- a2&#45;&gt;a6 -->
<g id="edge7" class="edge">
<title>a2&#45;&gt;a6</title>
<path fill="none" stroke="black" d="M289.22,-105.96C299.24,-105.96 311.65,-105.96 322.81,-105.96"/>
<polygon fill="black" stroke="black" points="323.02,-109.46 333.02,-105.96 323.02,-102.46 323.02,-109.46"/>
<text text-anchor="middle" x="311.05" y="-109.76" font-family="Times New Roman,serif" font-size="14.00">b</text>
</g>
<!-- a6&#45;&gt;a8 -->
<g id="edge15" class="edge">
<title>a6&#45;&gt;a8</title>
<path fill="none" stroke="black" d="M374.03,-109C382.08,-109.91 391.52,-110.53 400.06,-109.96 438.5,-107.36 449.44,-107.62 485.07,-92.96 488.55,-91.53 492.16,-89.93 495.72,-88.3"/>
<polygon fill="black" stroke="black" points="497.29,-91.43 504.83,-83.99 494.3,-85.1 497.29,-91.43"/>
<text text-anchor="middle" x="438.57" y="-111.76" font-family="Times New Roman,serif" font-size="14.00">b</text>
</g>
<!-- a6&#45;&gt;a3 -->
<g id="edge14" class="edge">
<title>a6&#45;&gt;a3</title>
<path fill="none" stroke="black" d="M372.98,-98.41C383.83,-93.97 397.78,-88.26 409.93,-83.28"/>
<polygon fill="black" stroke="black" points="411.27,-86.51 419.2,-79.48 408.61,-80.03 411.27,-86.51"/>
<text text-anchor="middle" x="396.06" y="-94.76" font-family="Times New Roman,serif" font-size="14.00">a</text>
</g>
<!-- a5&#45;&gt;a2 -->
<g id="edge12" class="edge">
<title>a5&#45;&gt;a2</title>
<path fill="none" stroke="black" d="M202.14,-72.08C213.36,-77.89 228.13,-85.54 240.79,-92.1"/>
<polygon fill="black" stroke="black" points="239.47,-95.36 249.96,-96.85 242.69,-89.14 239.47,-95.36"/>
<text text-anchor="middle" x="226.04" y="-89.76" font-family="Times New Roman,serif" font-size="14.00">a</text>
</g>
<!-- a7 -->
<g id="node10" class="node">
<title>a7</title>
<ellipse fill="none" stroke="black" cx="268.54" cy="-33.96" rx="20.51" ry="20.51"/>
<text text-anchor="middle" x="268.54" y="-30.26" font-family="Times New Roman,serif" font-size="14.00">a7</text>
</g>
<!-- a5&#45;&gt;a7 -->
<g id="edge13" class="edge">
<title>a5&#45;&gt;a7</title>
<path fill="none" stroke="black" d="M203.37,-56.38C214.06,-52.64 227.64,-47.9 239.55,-43.74"/>
<polygon fill="black" stroke="black" points="240.78,-47.01 249.07,-40.41 238.47,-40.41 240.78,-47.01"/>
<text text-anchor="middle" x="226.04" y="-53.76" font-family="Times New Roman,serif" font-size="14.00">b</text>
</g>
<!-- a7&#45;&gt;a1 -->
<g id="edge16" class="edge">
<title>a7&#45;&gt;a1</title>
<path fill="none" stroke="black" d="M289.22,-33.96C299.24,-33.96 311.65,-33.96 322.81,-33.96"/>
<polygon fill="black" stroke="black" points="323.02,-37.46 333.02,-33.96 323.02,-30.46 323.02,-37.46"/>
<text text-anchor="middle" x="311.05" y="-37.76" font-family="Times New Roman,serif" font-size="14.00">a</text>
</g>
<!-- a7&#45;&gt;a8 -->
<g id="edge17" class="edge">
<title>a7&#45;&gt;a8</title>
<path fill="none" stroke="black" d="M286.32,-23.51C298.71,-16.44 316.27,-7.72 333.05,-3.96 362.11,2.56 370.52,-1.17 400.06,-4.96 439.38,-10 454.09,-7.22 485.07,-31.96 491.82,-37.35 498.33,-44.05 503.97,-50.55"/>
<polygon fill="black" stroke="black" points="501.53,-53.1 510.6,-58.56 506.92,-48.63 501.53,-53.1"/>
<text text-anchor="middle" x="396.06" y="-8.76" font-family="Times New Roman,serif" font-size="14.00">b</text>
</g>
</g>
</svg>
