<?xml version="1.0" encoding="UTF-8" standalone="no"?>
<!DOCTYPE svg PUBLIC "-//W3C//DTD SVG 1.1//EN"
 "http://www.w3.org/Graphics/SVG/1.1/DTD/svg11.dtd">
<!-- Generated by graphviz version 3.0.0 (20220226.1711)
 -->
<!-- Pages: 1 -->
<svg width="243pt" height="114pt"
 viewBox="14.40 14.40 228.42 99.40" xmlns="http://www.w3.org/2000/svg" xmlns:xlink="http://www.w3.org/1999/xlink">
<g id="graph0" class="graph" transform="scale(1 1) rotate(0) translate(18.4 95.4)">
<polygon fill="white" stroke="transparent" points="-4,4 -4,-81 210.02,-81 210.02,4 -4,4"/>
<!-- 2 -->
<g id="node1" class="node">
<title>2</title>
<ellipse fill="none" stroke="black" cx="184.02" cy="-22" rx="18" ry="18"/>
<ellipse fill="none" stroke="black" cx="184.02" cy="-22" rx="22" ry="22"/>
<text text-anchor="middle" x="184.02" y="-18.3" font-family="Times New Roman,serif" font-size="14.00">2</text>
</g>
<!-- 2&#45;&gt;2 -->
<g id="edge3" class="edge">
<title>2&#45;&gt;2</title>
<path fill="none" stroke="black" d="M176.34,-42.99C175.39,-53.09 177.95,-62 184.02,-62 187.91,-62 190.36,-58.34 191.37,-53.06"/>
<polygon fill="black" stroke="black" points="194.87,-53.1 191.71,-42.99 187.87,-52.87 194.87,-53.1"/>
<text text-anchor="middle" x="184.02" y="-65.8" font-family="Times New Roman,serif" font-size="14.00">a,b</text>
</g>
<!--   -->
<g id="node2" class="node">
<title> </title>
<ellipse fill="none" stroke="white" cx="20.51" cy="-22" rx="20.51" ry="20.51"/>
<text text-anchor="middle" x="20.51" y="-18.3" font-family="Times New Roman,serif" font-size="14.00"> </text>
</g>
<!-- 1 -->
<g id="node3" class="node">
<title>1</title>
<ellipse fill="none" stroke="black" cx="98.52" cy="-22" rx="20.51" ry="20.51"/>
<text text-anchor="middle" x="98.52" y="-18.3" font-family="Times New Roman,serif" font-size="14.00">1</text>
</g>
<!--  &#45;&gt;1 -->
<g id="edge1" class="edge">
<title> &#45;&gt;1</title>
<path fill="none" stroke="black" d="M41.08,-22C49.24,-22 58.89,-22 67.88,-22"/>
<polygon fill="black" stroke="black" points="68.01,-25.5 78.01,-22 68.01,-18.5 68.01,-25.5"/>
</g>
<!-- 1&#45;&gt;2 -->
<g id="edge2" class="edge">
<title>1&#45;&gt;2</title>
<path fill="none" stroke="black" d="M119.31,-22C129.03,-22 140.97,-22 151.88,-22"/>
<polygon fill="black" stroke="black" points="151.92,-25.5 161.92,-22 151.92,-18.5 151.92,-25.5"/>
<text text-anchor="middle" x="140.52" y="-25.8" font-family="Times New Roman,serif" font-size="14.00">c</text>
</g>
<!-- 1&#45;&gt;1 -->
<g id="edge4" class="edge">
<title>1&#45;&gt;1</title>
<path fill="none" stroke="black" d="M91.64,-41.42C90.59,-51.46 92.88,-60.51 98.52,-60.51 102.13,-60.51 104.37,-56.79 105.24,-51.48"/>
<polygon fill="black" stroke="black" points="108.74,-51.47 105.39,-41.42 101.74,-51.36 108.74,-51.47"/>
<text text-anchor="middle" x="98.52" y="-64.31" font-family="Times New Roman,serif" font-size="14.00">a,b</text>
</g>
</g>
</svg>
