<?xml version="1.0" encoding="UTF-8" standalone="no"?>
<!DOCTYPE svg PUBLIC "-//W3C//DTD SVG 1.1//EN"
 "http://www.w3.org/Graphics/SVG/1.1/DTD/svg11.dtd">
<!-- Generated by graphviz version 3.0.0 (20220226.1711)
 -->
<!-- Pages: 1 -->
<svg width="389pt" height="183pt"
 viewBox="14.40 14.40 374.40 168.30" xmlns="http://www.w3.org/2000/svg" xmlns:xlink="http://www.w3.org/1999/xlink">
<g id="graph0" class="graph" transform="scale(0.756244 0.756244) rotate(0) translate(23.04 218.55)">
<polygon fill="white" stroke="transparent" points="-4,4 -4,-199.51 472.04,-199.51 472.04,4 -4,4"/>
<!-- 3 -->
<g id="node1" class="node">
<title>3</title>
<ellipse fill="none" stroke="black" cx="270.04" cy="-140.51" rx="18" ry="18"/>
<ellipse fill="none" stroke="black" cx="270.04" cy="-140.51" rx="22" ry="22"/>
<text text-anchor="middle" x="270.04" y="-136.81" font-family="Times New Roman,serif" font-size="14.00">3</text>
</g>
<!-- 3&#45;&gt;3 -->
<g id="edge4" class="edge">
<title>3&#45;&gt;3</title>
<path fill="none" stroke="black" d="M262.03,-161.09C260.92,-171.35 263.59,-180.51 270.04,-180.51 274.17,-180.51 276.74,-176.75 277.77,-171.35"/>
<polygon fill="black" stroke="black" points="281.28,-171.18 278.04,-161.09 274.28,-170.99 281.28,-171.18"/>
<text text-anchor="middle" x="270.04" y="-184.31" font-family="Times New Roman,serif" font-size="14.00">b</text>
</g>
<!-- 4 -->
<g id="node2" class="node">
<title>4</title>
<ellipse fill="none" stroke="black" cx="358.04" cy="-112.51" rx="18" ry="18"/>
<ellipse fill="none" stroke="black" cx="358.04" cy="-112.51" rx="22" ry="22"/>
<text text-anchor="middle" x="358.04" y="-108.81" font-family="Times New Roman,serif" font-size="14.00">4</text>
</g>
<!-- 3&#45;&gt;4 -->
<g id="edge5" class="edge">
<title>3&#45;&gt;4</title>
<path fill="none" stroke="black" d="M291.42,-133.87C302.02,-130.42 315.19,-126.13 326.94,-122.3"/>
<polygon fill="black" stroke="black" points="328.38,-125.52 336.8,-119.09 326.21,-118.86 328.38,-125.52"/>
<text text-anchor="middle" x="314.04" y="-130.31" font-family="Times New Roman,serif" font-size="14.00">a</text>
</g>
<!-- 4&#45;&gt;4 -->
<g id="edge6" class="edge">
<title>4&#45;&gt;4</title>
<path fill="none" stroke="black" d="M350.03,-133.09C348.92,-143.35 351.59,-152.51 358.04,-152.51 362.17,-152.51 364.74,-148.75 365.77,-143.35"/>
<polygon fill="black" stroke="black" points="369.28,-143.18 366.04,-133.09 362.28,-142.99 369.28,-143.18"/>
<text text-anchor="middle" x="358.04" y="-156.31" font-family="Times New Roman,serif" font-size="14.00">b</text>
</g>
<!-- 5 -->
<g id="node3" class="node">
<title>5</title>
<ellipse fill="none" stroke="black" cx="446.04" cy="-81.51" rx="18" ry="18"/>
<ellipse fill="none" stroke="black" cx="446.04" cy="-81.51" rx="22" ry="22"/>
<text text-anchor="middle" x="446.04" y="-77.81" font-family="Times New Roman,serif" font-size="14.00">5</text>
</g>
<!-- 4&#45;&gt;5 -->
<g id="edge7" class="edge">
<title>4&#45;&gt;5</title>
<path fill="none" stroke="black" d="M378.98,-105.32C389.84,-101.4 403.47,-96.49 415.53,-92.14"/>
<polygon fill="black" stroke="black" points="416.98,-95.34 425.2,-88.66 414.6,-88.76 416.98,-95.34"/>
<text text-anchor="middle" x="402.04" y="-102.31" font-family="Times New Roman,serif" font-size="14.00">a</text>
</g>
<!-- 5&#45;&gt;5 -->
<g id="edge8" class="edge">
<title>5&#45;&gt;5</title>
<path fill="none" stroke="black" d="M438.03,-102.09C436.92,-112.35 439.59,-121.51 446.04,-121.51 450.17,-121.51 452.74,-117.75 453.77,-112.35"/>
<polygon fill="black" stroke="black" points="457.28,-112.18 454.04,-102.09 450.28,-111.99 457.28,-112.18"/>
<text text-anchor="middle" x="446.04" y="-125.31" font-family="Times New Roman,serif" font-size="14.00">b</text>
</g>
<!--   -->
<g id="node4" class="node">
<title> </title>
<ellipse fill="none" stroke="white" cx="20.51" cy="-81.51" rx="20.51" ry="20.51"/>
<text text-anchor="middle" x="20.51" y="-77.81" font-family="Times New Roman,serif" font-size="14.00"> </text>
</g>
<!-- 1 -->
<g id="node5" class="node">
<title>1</title>
<ellipse fill="none" stroke="black" cx="98.52" cy="-81.51" rx="20.51" ry="20.51"/>
<text text-anchor="middle" x="98.52" y="-77.81" font-family="Times New Roman,serif" font-size="14.00">1</text>
</g>
<!--  &#45;&gt;1 -->
<g id="edge1" class="edge">
<title> &#45;&gt;1</title>
<path fill="none" stroke="black" d="M41.08,-81.51C49.24,-81.51 58.89,-81.51 67.88,-81.51"/>
<polygon fill="black" stroke="black" points="68.01,-85.01 78.01,-81.51 68.01,-78.01 68.01,-85.01"/>
</g>
<!-- 2 -->
<g id="node6" class="node">
<title>2</title>
<ellipse fill="none" stroke="black" cx="183.53" cy="-111.51" rx="20.51" ry="20.51"/>
<text text-anchor="middle" x="183.53" y="-107.81" font-family="Times New Roman,serif" font-size="14.00">2</text>
</g>
<!-- 1&#45;&gt;2 -->
<g id="edge2" class="edge">
<title>1&#45;&gt;2</title>
<path fill="none" stroke="black" d="M117.94,-88.16C128.61,-92.02 142.27,-96.96 154.28,-101.3"/>
<polygon fill="black" stroke="black" points="153.28,-104.66 163.87,-104.76 155.66,-98.07 153.28,-104.66"/>
<text text-anchor="middle" x="141.02" y="-101.31" font-family="Times New Roman,serif" font-size="14.00">b</text>
</g>
<!-- 6 -->
<g id="node7" class="node">
<title>6</title>
<ellipse fill="none" stroke="black" cx="183.53" cy="-52.51" rx="20.51" ry="20.51"/>
<text text-anchor="middle" x="183.53" y="-48.81" font-family="Times New Roman,serif" font-size="14.00">6</text>
</g>
<!-- 1&#45;&gt;6 -->
<g id="edge9" class="edge">
<title>1&#45;&gt;6</title>
<path fill="none" stroke="black" d="M118.36,-74.93C129.04,-71.19 142.62,-66.45 154.54,-62.28"/>
<polygon fill="black" stroke="black" points="155.77,-65.56 164.05,-58.96 153.46,-58.95 155.77,-65.56"/>
<text text-anchor="middle" x="141.02" y="-72.31" font-family="Times New Roman,serif" font-size="14.00">a</text>
</g>
<!-- 2&#45;&gt;3 -->
<g id="edge3" class="edge">
<title>2&#45;&gt;3</title>
<path fill="none" stroke="black" d="M203.29,-117.94C213.85,-121.57 227.28,-126.18 239.25,-130.28"/>
<polygon fill="black" stroke="black" points="238.26,-133.65 248.86,-133.58 240.54,-127.03 238.26,-133.65"/>
<text text-anchor="middle" x="226.04" y="-130.31" font-family="Times New Roman,serif" font-size="14.00">b</text>
</g>
<!-- 8 -->
<g id="node9" class="node">
<title>8</title>
<ellipse fill="none" stroke="black" cx="270.04" cy="-79.51" rx="20.51" ry="20.51"/>
<text text-anchor="middle" x="270.04" y="-75.81" font-family="Times New Roman,serif" font-size="14.00">8</text>
</g>
<!-- 2&#45;&gt;8 -->
<g id="edge16" class="edge">
<title>2&#45;&gt;8</title>
<path fill="none" stroke="black" d="M202.87,-104.56C214.05,-100.33 228.57,-94.83 241.16,-90.06"/>
<polygon fill="black" stroke="black" points="242.62,-93.25 250.74,-86.44 240.14,-86.7 242.62,-93.25"/>
<text text-anchor="middle" x="226.04" y="-100.31" font-family="Times New Roman,serif" font-size="14.00">a</text>
</g>
<!-- 7 -->
<g id="node8" class="node">
<title>7</title>
<ellipse fill="none" stroke="black" cx="270.04" cy="-20.51" rx="20.51" ry="20.51"/>
<text text-anchor="middle" x="270.04" y="-16.81" font-family="Times New Roman,serif" font-size="14.00">7</text>
</g>
<!-- 6&#45;&gt;7 -->
<g id="edge10" class="edge">
<title>6&#45;&gt;7</title>
<path fill="none" stroke="black" d="M202.87,-45.56C214.05,-41.33 228.57,-35.83 241.16,-31.06"/>
<polygon fill="black" stroke="black" points="242.62,-34.25 250.74,-27.44 240.14,-27.7 242.62,-34.25"/>
<text text-anchor="middle" x="226.04" y="-41.31" font-family="Times New Roman,serif" font-size="14.00">a</text>
</g>
<!-- 6&#45;&gt;8 -->
<g id="edge11" class="edge">
<title>6&#45;&gt;8</title>
<path fill="none" stroke="black" d="M203.71,-57.07C211.88,-59.14 221.48,-61.74 230.04,-64.51 233.63,-65.67 237.38,-66.98 241.06,-68.33"/>
<polygon fill="black" stroke="black" points="239.95,-71.65 250.54,-71.92 242.43,-65.1 239.95,-71.65"/>
<text text-anchor="middle" x="226.04" y="-68.31" font-family="Times New Roman,serif" font-size="14.00">b</text>
</g>
<!-- 9 -->
<g id="node10" class="node">
<title>9</title>
<ellipse fill="none" stroke="black" cx="358.04" cy="-51.51" rx="20.51" ry="20.51"/>
<text text-anchor="middle" x="358.04" y="-47.81" font-family="Times New Roman,serif" font-size="14.00">9</text>
</g>
<!-- 7&#45;&gt;9 -->
<g id="edge12" class="edge">
<title>7&#45;&gt;9</title>
<path fill="none" stroke="black" d="M289.7,-27.23C301.08,-31.34 315.85,-36.66 328.66,-41.28"/>
<polygon fill="black" stroke="black" points="327.82,-44.69 338.41,-44.79 330.19,-38.11 327.82,-44.69"/>
<text text-anchor="middle" x="314.04" y="-41.31" font-family="Times New Roman,serif" font-size="14.00">b</text>
</g>
<!-- 8&#45;&gt;4 -->
<g id="edge14" class="edge">
<title>8&#45;&gt;4</title>
<path fill="none" stroke="black" d="M289.7,-86.67C300.77,-90.91 315.05,-96.39 327.61,-101.21"/>
<polygon fill="black" stroke="black" points="326.63,-104.59 337.22,-104.9 329.13,-98.05 326.63,-104.59"/>
<text text-anchor="middle" x="314.04" y="-101.31" font-family="Times New Roman,serif" font-size="14.00">b</text>
</g>
<!-- 8&#45;&gt;9 -->
<g id="edge15" class="edge">
<title>8&#45;&gt;9</title>
<path fill="none" stroke="black" d="M289.55,-71.96C295.99,-69.45 303.28,-66.73 310.04,-64.51 315.81,-62.6 322.03,-60.75 328.01,-59.06"/>
<polygon fill="black" stroke="black" points="328.98,-62.42 337.7,-56.4 327.13,-55.67 328.98,-62.42"/>
<text text-anchor="middle" x="314.04" y="-68.31" font-family="Times New Roman,serif" font-size="14.00">a</text>
</g>
<!-- 9&#45;&gt;5 -->
<g id="edge13" class="edge">
<title>9&#45;&gt;5</title>
<path fill="none" stroke="black" d="M377.7,-58.02C388.69,-61.85 402.85,-66.79 415.34,-71.15"/>
<polygon fill="black" stroke="black" points="414.32,-74.5 424.91,-74.49 416.62,-67.89 414.32,-74.5"/>
<text text-anchor="middle" x="402.04" y="-71.31" font-family="Times New Roman,serif" font-size="14.00">b</text>
</g>
</g>
</svg>
