<?xml version="1.0" encoding="UTF-8" standalone="no"?>
<!DOCTYPE svg PUBLIC "-//W3C//DTD SVG 1.1//EN"
 "http://www.w3.org/Graphics/SVG/1.1/DTD/svg11.dtd">
<!-- Generated by graphviz version 3.0.0 (20220226.1711)
 -->
<!-- Pages: 1 -->
<svg width="329pt" height="114pt"
 viewBox="14.40 14.40 314.44 99.40" xmlns="http://www.w3.org/2000/svg" xmlns:xlink="http://www.w3.org/1999/xlink">
<g id="graph0" class="graph" transform="scale(1 1) rotate(0) translate(18.4 95.4)">
<polygon fill="white" stroke="transparent" points="-4,4 -4,-81 296.04,-81 296.04,4 -4,4"/>
<!-- 3 -->
<g id="node1" class="node">
<title>3</title>
<ellipse fill="none" stroke="black" cx="270.04" cy="-22" rx="18" ry="18"/>
<ellipse fill="none" stroke="black" cx="270.04" cy="-22" rx="22" ry="22"/>
<text text-anchor="middle" x="270.04" y="-18.3" font-family="Times New Roman,serif" font-size="14.00">3</text>
</g>
<!-- 3&#45;&gt;3 -->
<g id="edge6" class="edge">
<title>3&#45;&gt;3</title>
<path fill="none" stroke="black" d="M262.03,-42.58C260.92,-52.84 263.59,-62 270.04,-62 274.17,-62 276.74,-58.24 277.77,-52.84"/>
<polygon fill="black" stroke="black" points="281.28,-52.67 278.04,-42.58 274.28,-52.49 281.28,-52.67"/>
<text text-anchor="middle" x="270.04" y="-65.8" font-family="Times New Roman,serif" font-size="14.00">a,b</text>
</g>
<!--   -->
<g id="node2" class="node">
<title> </title>
<ellipse fill="none" stroke="white" cx="20.51" cy="-22" rx="20.51" ry="20.51"/>
<text text-anchor="middle" x="20.51" y="-18.3" font-family="Times New Roman,serif" font-size="14.00"> </text>
</g>
<!-- 1 -->
<g id="node3" class="node">
<title>1</title>
<ellipse fill="none" stroke="black" cx="98.52" cy="-22" rx="20.51" ry="20.51"/>
<text text-anchor="middle" x="98.52" y="-18.3" font-family="Times New Roman,serif" font-size="14.00">1</text>
</g>
<!--  &#45;&gt;1 -->
<g id="edge1" class="edge">
<title> &#45;&gt;1</title>
<path fill="none" stroke="black" d="M41.08,-22C49.24,-22 58.89,-22 67.88,-22"/>
<polygon fill="black" stroke="black" points="68.01,-25.5 78.01,-22 68.01,-18.5 68.01,-25.5"/>
</g>
<!-- 1&#45;&gt;1 -->
<g id="edge3" class="edge">
<title>1&#45;&gt;1</title>
<path fill="none" stroke="black" d="M91.64,-41.42C90.59,-51.46 92.88,-60.51 98.52,-60.51 102.13,-60.51 104.37,-56.79 105.24,-51.48"/>
<polygon fill="black" stroke="black" points="108.74,-51.47 105.39,-41.42 101.74,-51.36 108.74,-51.47"/>
<text text-anchor="middle" x="98.52" y="-64.31" font-family="Times New Roman,serif" font-size="14.00">a</text>
</g>
<!-- 2 -->
<g id="node4" class="node">
<title>2</title>
<ellipse fill="none" stroke="black" cx="183.53" cy="-22" rx="20.51" ry="20.51"/>
<text text-anchor="middle" x="183.53" y="-18.3" font-family="Times New Roman,serif" font-size="14.00">2</text>
</g>
<!-- 1&#45;&gt;2 -->
<g id="edge2" class="edge">
<title>1&#45;&gt;2</title>
<path fill="none" stroke="black" d="M119.19,-22C129.22,-22 141.62,-22 152.79,-22"/>
<polygon fill="black" stroke="black" points="153,-25.5 163,-22 153,-18.5 153,-25.5"/>
<text text-anchor="middle" x="141.02" y="-25.8" font-family="Times New Roman,serif" font-size="14.00">b</text>
</g>
<!-- 2&#45;&gt;3 -->
<g id="edge4" class="edge">
<title>2&#45;&gt;3</title>
<path fill="none" stroke="black" d="M204.13,-22C214.03,-22 226.29,-22 237.48,-22"/>
<polygon fill="black" stroke="black" points="237.77,-25.5 247.77,-22 237.77,-18.5 237.77,-25.5"/>
<text text-anchor="middle" x="226.04" y="-25.8" font-family="Times New Roman,serif" font-size="14.00">b</text>
</g>
<!-- 2&#45;&gt;2 -->
<g id="edge5" class="edge">
<title>2&#45;&gt;2</title>
<path fill="none" stroke="black" d="M175.93,-41.42C174.76,-51.46 177.3,-60.51 183.53,-60.51 187.52,-60.51 190,-56.79 190.95,-51.48"/>
<polygon fill="black" stroke="black" points="194.46,-51.48 191.13,-41.42 187.46,-51.35 194.46,-51.48"/>
<text text-anchor="middle" x="183.53" y="-64.31" font-family="Times New Roman,serif" font-size="14.00">a</text>
</g>
</g>
</svg>
