<?xml version="1.0" encoding="UTF-8" standalone="no"?>
<!DOCTYPE svg PUBLIC "-//W3C//DTD SVG 1.1//EN"
 "http://www.w3.org/Graphics/SVG/1.1/DTD/svg11.dtd">
<!-- Generated by graphviz version 3.0.0 (20220226.1711)
 -->
<!-- Pages: 1 -->
<svg width="389pt" height="219pt"
 viewBox="14.40 14.40 374.40 204.73" xmlns="http://www.w3.org/2000/svg" xmlns:xlink="http://www.w3.org/1999/xlink">
<g id="graph0" class="graph" transform="scale(0.662252 0.662252) rotate(0) translate(25.74 305.14)">
<polygon fill="white" stroke="transparent" points="-4,4 -4,-283.4 539.6,-283.4 539.6,4 -4,4"/>
<!-- a3b3 -->
<g id="node1" class="node">
<title>a3b3</title>
<ellipse fill="none" stroke="black" cx="513.6" cy="-114.7" rx="18" ry="18"/>
<ellipse fill="none" stroke="black" cx="513.6" cy="-114.7" rx="22" ry="22"/>
<text text-anchor="middle" x="513.6" y="-111" font-family="Times New Roman,serif" font-size="14.00">a3b3</text>
</g>
<!-- a3b3&#45;&gt;a3b3 -->
<g id="edge18" class="edge">
<title>a3b3&#45;&gt;a3b3</title>
<path fill="none" stroke="black" d="M509.54,-136.51C509.15,-146.26 510.51,-154.7 513.6,-154.7 515.53,-154.7 516.79,-151.4 517.36,-146.55"/>
<polygon fill="black" stroke="black" points="520.86,-146.6 517.66,-136.51 513.86,-146.4 520.86,-146.6"/>
<text text-anchor="middle" x="513.6" y="-158.5" font-family="Times New Roman,serif" font-size="14.00">a</text>
</g>
<!-- a3b3&#45;&gt;a3b3 -->
<g id="edge19" class="edge">
<title>a3b3&#45;&gt;a3b3</title>
<path fill="none" stroke="black" d="M506.66,-135.81C503.6,-153.79 505.91,-172.7 513.6,-172.7 519.85,-172.7 522.55,-160.22 521.7,-145.89"/>
<polygon fill="black" stroke="black" points="525.16,-145.35 520.54,-135.81 518.2,-146.15 525.16,-145.35"/>
<text text-anchor="middle" x="513.6" y="-176.5" font-family="Times New Roman,serif" font-size="14.00">b</text>
</g>
<!--   -->
<g id="node2" class="node">
<title> </title>
<ellipse fill="none" stroke="white" cx="20.51" cy="-124.7" rx="20.51" ry="20.51"/>
<text text-anchor="middle" x="20.51" y="-121" font-family="Times New Roman,serif" font-size="14.00"> </text>
</g>
<!-- a1b1 -->
<g id="node3" class="node">
<title>a1b1</title>
<ellipse fill="none" stroke="black" cx="107.71" cy="-124.7" rx="29.9" ry="29.9"/>
<text text-anchor="middle" x="107.71" y="-121" font-family="Times New Roman,serif" font-size="14.00">a1b1</text>
</g>
<!--  &#45;&gt;a1b1 -->
<g id="edge1" class="edge">
<title> &#45;&gt;a1b1</title>
<path fill="none" stroke="black" d="M41.27,-124.7C49.13,-124.7 58.46,-124.7 67.57,-124.7"/>
<polygon fill="black" stroke="black" points="67.69,-128.2 77.69,-124.7 67.69,-121.2 67.69,-128.2"/>
</g>
<!-- a1b2 -->
<g id="node4" class="node">
<title>a1b2</title>
<ellipse fill="none" stroke="black" cx="211.11" cy="-163.7" rx="29.9" ry="29.9"/>
<text text-anchor="middle" x="211.11" y="-160" font-family="Times New Roman,serif" font-size="14.00">a1b2</text>
</g>
<!-- a1b1&#45;&gt;a1b2 -->
<g id="edge2" class="edge">
<title>a1b1&#45;&gt;a1b2</title>
<path fill="none" stroke="black" d="M135.62,-135.05C147.19,-139.5 160.9,-144.77 173.39,-149.58"/>
<polygon fill="black" stroke="black" points="172.49,-152.98 183.08,-153.3 175,-146.44 172.49,-152.98"/>
<text text-anchor="middle" x="159.41" y="-148.5" font-family="Times New Roman,serif" font-size="14.00">a</text>
</g>
<!-- a2b1 -->
<g id="node5" class="node">
<title>a2b1</title>
<ellipse fill="none" stroke="black" cx="211.11" cy="-86.7" rx="29.9" ry="29.9"/>
<text text-anchor="middle" x="211.11" y="-83" font-family="Times New Roman,serif" font-size="14.00">a2b1</text>
</g>
<!-- a1b1&#45;&gt;a2b1 -->
<g id="edge3" class="edge">
<title>a1b1&#45;&gt;a2b1</title>
<path fill="none" stroke="black" d="M135.88,-114.52C147.36,-110.21 160.91,-105.14 173.27,-100.51"/>
<polygon fill="black" stroke="black" points="174.72,-103.7 182.86,-96.91 172.27,-97.14 174.72,-103.7"/>
<text text-anchor="middle" x="159.41" y="-111.5" font-family="Times New Roman,serif" font-size="14.00">b</text>
</g>
<!-- a2b2 -->
<g id="node6" class="node">
<title>a2b2</title>
<ellipse fill="none" stroke="black" cx="314.5" cy="-139.7" rx="29.9" ry="29.9"/>
<text text-anchor="middle" x="314.5" y="-136" font-family="Times New Roman,serif" font-size="14.00">a2b2</text>
</g>
<!-- a1b2&#45;&gt;a2b2 -->
<g id="edge7" class="edge">
<title>a1b2&#45;&gt;a2b2</title>
<path fill="none" stroke="black" d="M240.08,-157.08C250.96,-154.5 263.61,-151.51 275.3,-148.74"/>
<polygon fill="black" stroke="black" points="276.34,-152.09 285.27,-146.38 274.73,-145.28 276.34,-152.09"/>
<text text-anchor="middle" x="262.81" y="-155.5" font-family="Times New Roman,serif" font-size="14.00">b</text>
</g>
<!-- a1b3 -->
<g id="node8" class="node">
<title>a1b3</title>
<ellipse fill="none" stroke="black" cx="314.5" cy="-216.7" rx="29.9" ry="29.9"/>
<text text-anchor="middle" x="314.5" y="-213" font-family="Times New Roman,serif" font-size="14.00">a1b3</text>
</g>
<!-- a1b2&#45;&gt;a1b3 -->
<g id="edge6" class="edge">
<title>a1b2&#45;&gt;a1b3</title>
<path fill="none" stroke="black" d="M237.69,-177.07C250.18,-183.6 265.39,-191.55 278.9,-198.61"/>
<polygon fill="black" stroke="black" points="277.44,-201.8 287.93,-203.33 280.69,-195.59 277.44,-201.8"/>
<text text-anchor="middle" x="262.81" y="-195.5" font-family="Times New Roman,serif" font-size="14.00">a</text>
</g>
<!-- a2b1&#45;&gt;a2b2 -->
<g id="edge4" class="edge">
<title>a2b1&#45;&gt;a2b2</title>
<path fill="none" stroke="black" d="M237.69,-100.07C250.18,-106.6 265.39,-114.55 278.9,-121.61"/>
<polygon fill="black" stroke="black" points="277.44,-124.8 287.93,-126.33 280.69,-118.59 277.44,-124.8"/>
<text text-anchor="middle" x="262.81" y="-119.5" font-family="Times New Roman,serif" font-size="14.00">a</text>
</g>
<!-- a3b1 -->
<g id="node7" class="node">
<title>a3b1</title>
<ellipse fill="none" stroke="black" cx="314.5" cy="-29.7" rx="29.9" ry="29.9"/>
<text text-anchor="middle" x="314.5" y="-26" font-family="Times New Roman,serif" font-size="14.00">a3b1</text>
</g>
<!-- a2b1&#45;&gt;a3b1 -->
<g id="edge5" class="edge">
<title>a2b1&#45;&gt;a3b1</title>
<path fill="none" stroke="black" d="M237.43,-72.46C250.02,-65.39 265.41,-56.74 279.04,-49.07"/>
<polygon fill="black" stroke="black" points="281.15,-51.9 288.15,-43.95 277.72,-45.8 281.15,-51.9"/>
<text text-anchor="middle" x="262.81" y="-64.5" font-family="Times New Roman,serif" font-size="14.00">b</text>
</g>
<!-- a3b2 -->
<g id="node9" class="node">
<title>a3b2</title>
<ellipse fill="none" stroke="black" cx="417.9" cy="-59.7" rx="29.9" ry="29.9"/>
<text text-anchor="middle" x="417.9" y="-56" font-family="Times New Roman,serif" font-size="14.00">a3b2</text>
</g>
<!-- a2b2&#45;&gt;a3b2 -->
<g id="edge13" class="edge">
<title>a2b2&#45;&gt;a3b2</title>
<path fill="none" stroke="black" d="M338.26,-121.74C352.25,-110.71 370.37,-96.41 385.69,-84.32"/>
<polygon fill="black" stroke="black" points="388.19,-86.81 393.87,-77.87 383.85,-81.32 388.19,-86.81"/>
<text text-anchor="middle" x="366.2" y="-106.5" font-family="Times New Roman,serif" font-size="14.00">b</text>
</g>
<!-- a2b3 -->
<g id="node10" class="node">
<title>a2b3</title>
<ellipse fill="none" stroke="black" cx="417.9" cy="-169.7" rx="29.9" ry="29.9"/>
<text text-anchor="middle" x="417.9" y="-166" font-family="Times New Roman,serif" font-size="14.00">a2b3</text>
</g>
<!-- a2b2&#45;&gt;a2b3 -->
<g id="edge12" class="edge">
<title>a2b2&#45;&gt;a2b3</title>
<path fill="none" stroke="black" d="M343.21,-147.9C354.39,-151.2 367.46,-155.07 379.46,-158.62"/>
<polygon fill="black" stroke="black" points="378.65,-162.03 389.23,-161.51 380.63,-155.32 378.65,-162.03"/>
<text text-anchor="middle" x="366.2" y="-158.5" font-family="Times New Roman,serif" font-size="14.00">a</text>
</g>
<!-- a3b1&#45;&gt;a3b1 -->
<g id="edge9" class="edge">
<title>a3b1&#45;&gt;a3b1</title>
<path fill="none" stroke="black" d="M305.15,-58.1C304.84,-68.68 307.96,-77.4 314.5,-77.4 318.8,-77.4 321.62,-73.64 322.96,-68.07"/>
<polygon fill="black" stroke="black" points="326.45,-68.37 323.86,-58.1 319.48,-67.75 326.45,-68.37"/>
<text text-anchor="middle" x="314.5" y="-81.2" font-family="Times New Roman,serif" font-size="14.00">b</text>
</g>
<!-- a3b1&#45;&gt;a3b2 -->
<g id="edge8" class="edge">
<title>a3b1&#45;&gt;a3b2</title>
<path fill="none" stroke="black" d="M343.21,-37.9C354.39,-41.2 367.46,-45.07 379.46,-48.62"/>
<polygon fill="black" stroke="black" points="378.65,-52.03 389.23,-51.51 380.63,-45.32 378.65,-52.03"/>
<text text-anchor="middle" x="366.2" y="-49.5" font-family="Times New Roman,serif" font-size="14.00">a</text>
</g>
<!-- a1b3&#45;&gt;a1b3 -->
<g id="edge10" class="edge">
<title>a1b3&#45;&gt;a1b3</title>
<path fill="none" stroke="black" d="M305.15,-245.1C304.84,-255.68 307.96,-264.4 314.5,-264.4 318.8,-264.4 321.62,-260.64 322.96,-255.07"/>
<polygon fill="black" stroke="black" points="326.45,-255.37 323.86,-245.1 319.48,-254.75 326.45,-255.37"/>
<text text-anchor="middle" x="314.5" y="-268.2" font-family="Times New Roman,serif" font-size="14.00">a</text>
</g>
<!-- a1b3&#45;&gt;a2b3 -->
<g id="edge11" class="edge">
<title>a1b3&#45;&gt;a2b3</title>
<path fill="none" stroke="black" d="M341.88,-204.47C353.97,-198.87 368.47,-192.15 381.49,-186.11"/>
<polygon fill="black" stroke="black" points="383.06,-189.24 390.66,-181.86 380.11,-182.89 383.06,-189.24"/>
<text text-anchor="middle" x="366.2" y="-197.5" font-family="Times New Roman,serif" font-size="14.00">b</text>
</g>
<!-- a3b2&#45;&gt;a3b3 -->
<g id="edge16" class="edge">
<title>a3b2&#45;&gt;a3b3</title>
<path fill="none" stroke="black" d="M444.01,-74.44C456.75,-81.91 472.24,-91.01 485.28,-98.66"/>
<polygon fill="black" stroke="black" points="483.86,-101.89 494.26,-103.93 487.41,-95.85 483.86,-101.89"/>
<text text-anchor="middle" x="469.6" y="-94.5" font-family="Times New Roman,serif" font-size="14.00">a</text>
</g>
<!-- a3b2&#45;&gt;a3b2 -->
<g id="edge17" class="edge">
<title>a3b2&#45;&gt;a3b2</title>
<path fill="none" stroke="black" d="M408.55,-88.1C408.24,-98.68 411.36,-107.4 417.9,-107.4 422.2,-107.4 425.01,-103.64 426.36,-98.07"/>
<polygon fill="black" stroke="black" points="429.85,-98.37 427.26,-88.1 422.87,-97.75 429.85,-98.37"/>
<text text-anchor="middle" x="417.9" y="-111.2" font-family="Times New Roman,serif" font-size="14.00">b</text>
</g>
<!-- a2b3&#45;&gt;a3b3 -->
<g id="edge15" class="edge">
<title>a2b3&#45;&gt;a3b3</title>
<path fill="none" stroke="black" d="M444.01,-154.96C456.75,-147.48 472.24,-138.39 485.28,-130.74"/>
<polygon fill="black" stroke="black" points="487.41,-133.54 494.26,-125.46 483.86,-127.51 487.41,-133.54"/>
<text text-anchor="middle" x="469.6" y="-145.5" font-family="Times New Roman,serif" font-size="14.00">b</text>
</g>
<!-- a2b3&#45;&gt;a2b3 -->
<g id="edge14" class="edge">
<title>a2b3&#45;&gt;a2b3</title>
<path fill="none" stroke="black" d="M408.55,-198.1C408.24,-208.68 411.36,-217.4 417.9,-217.4 422.2,-217.4 425.01,-213.64 426.36,-208.07"/>
<polygon fill="black" stroke="black" points="429.85,-208.37 427.26,-198.1 422.87,-207.75 429.85,-208.37"/>
<text text-anchor="middle" x="417.9" y="-221.2" font-family="Times New Roman,serif" font-size="14.00">a</text>
</g>
</g>
</svg>
