<?xml version="1.0" encoding="UTF-8" standalone="no"?>
<!DOCTYPE svg PUBLIC "-//W3C//DTD SVG 1.1//EN"
 "http://www.w3.org/Graphics/SVG/1.1/DTD/svg11.dtd">
<!-- Generated by graphviz version 3.0.0 (20220226.1711)
 -->
<!-- Pages: 1 -->
<svg width="389pt" height="70pt"
 viewBox="14.40 14.40 374.40 55.97" xmlns="http://www.w3.org/2000/svg" xmlns:xlink="http://www.w3.org/1999/xlink">
<g id="graph0" class="graph" transform="scale(0.616861 0.616861) rotate(0) translate(27.34 86.74)">
<polygon fill="white" stroke="transparent" points="-4,4 -4,-63.4 579.6,-63.4 579.6,4 -4,4"/>
<!-- a4b2 -->
<g id="node1" class="node">
<title>a4b2</title>
<ellipse fill="none" stroke="black" cx="440.2" cy="-29.7" rx="18" ry="18"/>
<ellipse fill="none" stroke="black" cx="440.2" cy="-29.7" rx="22" ry="22"/>
<text text-anchor="middle" x="440.2" y="-26" font-family="Times New Roman,serif" font-size="14.00">a4b2</text>
</g>
<!-- a4b1 -->
<g id="node6" class="node">
<title>a4b1</title>
<ellipse fill="none" stroke="black" cx="545.9" cy="-29.7" rx="29.9" ry="29.9"/>
<text text-anchor="middle" x="545.9" y="-26" font-family="Times New Roman,serif" font-size="14.00">a4b1</text>
</g>
<!-- a4b2&#45;&gt;a4b1 -->
<g id="edge5" class="edge">
<title>a4b2&#45;&gt;a4b1</title>
<path fill="none" stroke="black" d="M462.44,-29.7C474.84,-29.7 490.87,-29.7 505.5,-29.7"/>
<polygon fill="black" stroke="black" points="505.83,-33.2 515.83,-29.7 505.83,-26.2 505.83,-33.2"/>
<text text-anchor="middle" x="489.2" y="-33.5" font-family="Times New Roman,serif" font-size="14.00">a,b</text>
</g>
<!--   -->
<g id="node2" class="node">
<title> </title>
<ellipse fill="none" stroke="white" cx="20.51" cy="-29.7" rx="20.51" ry="20.51"/>
<text text-anchor="middle" x="20.51" y="-26" font-family="Times New Roman,serif" font-size="14.00"> </text>
</g>
<!-- a1b1 -->
<g id="node3" class="node">
<title>a1b1</title>
<ellipse fill="none" stroke="black" cx="107.71" cy="-29.7" rx="29.9" ry="29.9"/>
<text text-anchor="middle" x="107.71" y="-26" font-family="Times New Roman,serif" font-size="14.00">a1b1</text>
</g>
<!--  &#45;&gt;a1b1 -->
<g id="edge1" class="edge">
<title> &#45;&gt;a1b1</title>
<path fill="none" stroke="black" d="M41.27,-29.7C49.13,-29.7 58.46,-29.7 67.57,-29.7"/>
<polygon fill="black" stroke="black" points="67.69,-33.2 77.69,-29.7 67.69,-26.2 67.69,-33.2"/>
</g>
<!-- a2b2 -->
<g id="node4" class="node">
<title>a2b2</title>
<ellipse fill="none" stroke="black" cx="221.11" cy="-29.7" rx="29.9" ry="29.9"/>
<text text-anchor="middle" x="221.11" y="-26" font-family="Times New Roman,serif" font-size="14.00">a2b2</text>
</g>
<!-- a1b1&#45;&gt;a2b2 -->
<g id="edge2" class="edge">
<title>a1b1&#45;&gt;a2b2</title>
<path fill="none" stroke="black" d="M137.69,-29.7C150.97,-29.7 166.9,-29.7 181.21,-29.7"/>
<polygon fill="black" stroke="black" points="181.28,-33.2 191.28,-29.7 181.28,-26.2 181.28,-33.2"/>
<text text-anchor="middle" x="164.41" y="-33.5" font-family="Times New Roman,serif" font-size="14.00">a,b</text>
</g>
<!-- a3b1 -->
<g id="node5" class="node">
<title>a3b1</title>
<ellipse fill="none" stroke="black" cx="334.5" cy="-29.7" rx="29.9" ry="29.9"/>
<text text-anchor="middle" x="334.5" y="-26" font-family="Times New Roman,serif" font-size="14.00">a3b1</text>
</g>
<!-- a2b2&#45;&gt;a3b1 -->
<g id="edge3" class="edge">
<title>a2b2&#45;&gt;a3b1</title>
<path fill="none" stroke="black" d="M251.09,-29.7C264.37,-29.7 280.3,-29.7 294.61,-29.7"/>
<polygon fill="black" stroke="black" points="294.67,-33.2 304.67,-29.7 294.67,-26.2 294.67,-33.2"/>
<text text-anchor="middle" x="277.81" y="-33.5" font-family="Times New Roman,serif" font-size="14.00">a,b</text>
</g>
<!-- a3b1&#45;&gt;a4b2 -->
<g id="edge4" class="edge">
<title>a3b1&#45;&gt;a4b2</title>
<path fill="none" stroke="black" d="M364.39,-29.7C377.95,-29.7 394.14,-29.7 407.99,-29.7"/>
<polygon fill="black" stroke="black" points="408.03,-33.2 418.03,-29.7 408.03,-26.2 408.03,-33.2"/>
<text text-anchor="middle" x="391.2" y="-33.5" font-family="Times New Roman,serif" font-size="14.00">a,b</text>
</g>
<!-- a4b1&#45;&gt;a4b2 -->
<g id="edge6" class="edge">
<title>a4b1&#45;&gt;a4b2</title>
<path fill="none" stroke="black" d="M519.27,-15.88C507.46,-11.14 493.21,-7.7 480.2,-10.7 476.46,-11.56 472.66,-12.84 468.98,-14.32"/>
<polygon fill="black" stroke="black" points="467.24,-11.27 459.61,-18.61 470.16,-17.63 467.24,-11.27"/>
<text text-anchor="middle" x="489.2" y="-14.5" font-family="Times New Roman,serif" font-size="14.00">a,b</text>
</g>
</g>
</svg>
