<?xml version="1.0" encoding="UTF-8" standalone="no"?>
<!DOCTYPE svg PUBLIC "-//W3C//DTD SVG 1.1//EN"
 "http://www.w3.org/Graphics/SVG/1.1/DTD/svg11.dtd">
<!-- Generated by graphviz version 3.0.0 (20220226.1711)
 -->
<!-- Pages: 1 -->
<svg width="176pt" height="145pt"
 viewBox="14.40 14.40 161.41 130.91" xmlns="http://www.w3.org/2000/svg" xmlns:xlink="http://www.w3.org/1999/xlink">
<g id="graph0" class="graph" transform="scale(1 1) rotate(0) translate(18.4 126.91)">
<polygon fill="white" stroke="transparent" points="-4,4 -4,-112.51 143.01,-112.51 143.01,4 -4,4"/>
<!-- 2 -->
<g id="node1" class="node">
<title>2</title>
<ellipse fill="none" stroke="black" cx="22" cy="-86.51" rx="18" ry="18"/>
<ellipse fill="none" stroke="black" cx="22" cy="-86.51" rx="22" ry="22"/>
<text text-anchor="middle" x="22" y="-82.81" font-family="Times New Roman,serif" font-size="14.00">2</text>
</g>
<!-- 1 -->
<g id="node3" class="node">
<title>1</title>
<ellipse fill="none" stroke="black" cx="118.51" cy="-53.51" rx="20.51" ry="20.51"/>
<text text-anchor="middle" x="118.51" y="-49.81" font-family="Times New Roman,serif" font-size="14.00">1</text>
</g>
<!-- 2&#45;&gt;1 -->
<g id="edge3" class="edge">
<title>2&#45;&gt;1</title>
<path fill="none" stroke="black" d="M43.5,-81C54.43,-77.91 68.05,-73.82 80,-69.51 83.3,-68.32 86.72,-66.99 90.1,-65.62"/>
<polygon fill="black" stroke="black" points="91.49,-68.83 99.36,-61.74 88.78,-62.38 91.49,-68.83"/>
<text text-anchor="middle" x="71" y="-79.31" font-family="Times New Roman,serif" font-size="14.00">a,b</text>
</g>
<!--   -->
<g id="node2" class="node">
<title> </title>
<ellipse fill="none" stroke="white" cx="22" cy="-20.51" rx="20.51" ry="20.51"/>
<text text-anchor="middle" x="22" y="-16.81" font-family="Times New Roman,serif" font-size="14.00"> </text>
</g>
<!--  &#45;&gt;1 -->
<g id="edge1" class="edge">
<title> &#45;&gt;1</title>
<path fill="none" stroke="black" d="M42.33,-24.11C53.52,-26.47 67.77,-29.97 80,-34.51 83.74,-35.89 87.6,-37.55 91.35,-39.31"/>
<polygon fill="black" stroke="black" points="89.81,-42.45 100.32,-43.76 92.92,-36.18 89.81,-42.45"/>
</g>
<!-- 1&#45;&gt;2 -->
<g id="edge2" class="edge">
<title>1&#45;&gt;2</title>
<path fill="none" stroke="black" d="M98.18,-50.79C87.24,-50 73.49,-50.28 62,-54.51 56.1,-56.68 50.45,-60.14 45.36,-64.01"/>
<polygon fill="black" stroke="black" points="42.78,-61.61 37.4,-70.74 47.3,-66.96 42.78,-61.61"/>
<text text-anchor="middle" x="71" y="-58.31" font-family="Times New Roman,serif" font-size="14.00">a,b</text>
</g>
</g>
</svg>
