<?xml version="1.0" encoding="UTF-8" standalone="no"?>
<!DOCTYPE svg PUBLIC "-//W3C//DTD SVG 1.1//EN"
 "http://www.w3.org/Graphics/SVG/1.1/DTD/svg11.dtd">
<!-- Generated by graphviz version 3.0.0 (20220226.1711)
 -->
<!-- Pages: 1 -->
<svg width="389pt" height="148pt"
 viewBox="14.40 14.40 374.40 133.47" xmlns="http://www.w3.org/2000/svg" xmlns:xlink="http://www.w3.org/1999/xlink">
<g id="graph0" class="graph" transform="scale(0.559009 0.559009) rotate(0) translate(29.76 234.76)">
<polygon fill="white" stroke="transparent" points="-4,4 -4,-209 640,-209 640,4 -4,4"/>
<!-- a1b1 -->
<g id="node1" class="node">
<title>a1b1</title>
<ellipse fill="none" stroke="black" cx="100.01" cy="-129" rx="18" ry="18"/>
<ellipse fill="none" stroke="black" cx="100.01" cy="-129" rx="22" ry="22"/>
<text text-anchor="middle" x="100.01" y="-125.3" font-family="Times New Roman,serif" font-size="14.00">a1b1</text>
</g>
<!-- a2b1 -->
<g id="node3" class="node">
<title>a2b1</title>
<ellipse fill="none" stroke="black" cx="194.71" cy="-76" rx="29.9" ry="29.9"/>
<text text-anchor="middle" x="194.71" y="-72.3" font-family="Times New Roman,serif" font-size="14.00">a2b1</text>
</g>
<!-- a1b1&#45;&gt;a2b1 -->
<g id="edge2" class="edge">
<title>a1b1&#45;&gt;a2b1</title>
<path fill="none" stroke="black" d="M119.77,-118.27C131.2,-111.74 146.16,-103.19 159.63,-95.49"/>
<polygon fill="black" stroke="black" points="161.71,-98.33 168.65,-90.33 158.23,-92.25 161.71,-98.33"/>
<text text-anchor="middle" x="143.51" y="-109.8" font-family="Times New Roman,serif" font-size="14.00">a</text>
</g>
<!-- a1b2 -->
<g id="node4" class="node">
<title>a1b2</title>
<ellipse fill="none" stroke="black" cx="400.5" cy="-114" rx="29.9" ry="29.9"/>
<text text-anchor="middle" x="400.5" y="-110.3" font-family="Times New Roman,serif" font-size="14.00">a1b2</text>
</g>
<!-- a1b1&#45;&gt;a1b2 -->
<g id="edge3" class="edge">
<title>a1b1&#45;&gt;a1b2</title>
<path fill="none" stroke="black" d="M122,-127.95C171.53,-125.46 296.31,-119.19 360.31,-115.97"/>
<polygon fill="black" stroke="black" points="360.6,-119.46 370.41,-115.46 360.25,-112.47 360.6,-119.46"/>
<text text-anchor="middle" x="246.41" y="-125.8" font-family="Times New Roman,serif" font-size="14.00">b</text>
</g>
<!--   -->
<g id="node2" class="node">
<title> </title>
<ellipse fill="none" stroke="white" cx="20.51" cy="-129" rx="20.51" ry="20.51"/>
<text text-anchor="middle" x="20.51" y="-125.3" font-family="Times New Roman,serif" font-size="14.00"> </text>
</g>
<!--  &#45;&gt;a1b1 -->
<g id="edge1" class="edge">
<title> &#45;&gt;a1b1</title>
<path fill="none" stroke="black" d="M41.06,-129C49.12,-129 58.66,-129 67.65,-129"/>
<polygon fill="black" stroke="black" points="67.83,-132.5 77.83,-129 67.83,-125.5 67.83,-132.5"/>
</g>
<!-- a2b1&#45;&gt;a1b1 -->
<g id="edge4" class="edge">
<title>a2b1&#45;&gt;a1b1</title>
<path fill="none" stroke="black" d="M164.93,-77.87C156.51,-79.31 147.55,-81.79 140.01,-86 132.46,-90.21 125.59,-96.43 119.8,-102.84"/>
<polygon fill="black" stroke="black" points="116.78,-100.99 113.06,-110.92 122.15,-105.48 116.78,-100.99"/>
<text text-anchor="middle" x="143.51" y="-89.8" font-family="Times New Roman,serif" font-size="14.00">a</text>
</g>
<!-- a2b2 -->
<g id="node5" class="node">
<title>a2b2</title>
<ellipse fill="none" stroke="black" cx="298.11" cy="-76" rx="29.9" ry="29.9"/>
<text text-anchor="middle" x="298.11" y="-72.3" font-family="Times New Roman,serif" font-size="14.00">a2b2</text>
</g>
<!-- a2b1&#45;&gt;a2b2 -->
<g id="edge5" class="edge">
<title>a2b1&#45;&gt;a2b2</title>
<path fill="none" stroke="black" d="M224.5,-76C234.99,-76 247.02,-76 258.24,-76"/>
<polygon fill="black" stroke="black" points="258.25,-79.5 268.25,-76 258.25,-72.5 258.25,-79.5"/>
<text text-anchor="middle" x="246.41" y="-79.8" font-family="Times New Roman,serif" font-size="14.00">b</text>
</g>
<!-- a1b2&#45;&gt;a2b2 -->
<g id="edge6" class="edge">
<title>a1b2&#45;&gt;a2b2</title>
<path fill="none" stroke="black" d="M379,-93.03C371.43,-86.65 362.35,-80.42 352.81,-77 348.17,-75.34 343.16,-74.32 338.12,-73.75"/>
<polygon fill="black" stroke="black" points="338.06,-70.24 327.88,-73.15 337.65,-77.23 338.06,-70.24"/>
<text text-anchor="middle" x="349.31" y="-80.8" font-family="Times New Roman,serif" font-size="14.00">a</text>
</g>
<!-- a1b3 -->
<g id="node6" class="node">
<title>a1b3</title>
<ellipse fill="none" stroke="black" cx="503.9" cy="-114" rx="29.9" ry="29.9"/>
<text text-anchor="middle" x="503.9" y="-110.3" font-family="Times New Roman,serif" font-size="14.00">a1b3</text>
</g>
<!-- a1b2&#45;&gt;a1b3 -->
<g id="edge7" class="edge">
<title>a1b2&#45;&gt;a1b3</title>
<path fill="none" stroke="black" d="M430.29,-114C440.78,-114 452.82,-114 464.04,-114"/>
<polygon fill="black" stroke="black" points="464.04,-117.5 474.04,-114 464.04,-110.5 464.04,-117.5"/>
<text text-anchor="middle" x="452.2" y="-117.8" font-family="Times New Roman,serif" font-size="14.00">b</text>
</g>
<!-- a2b2&#45;&gt;a1b2 -->
<g id="edge8" class="edge">
<title>a2b2&#45;&gt;a1b2</title>
<path fill="none" stroke="black" d="M326.01,-86.18C337.38,-90.49 350.79,-95.56 363.03,-100.19"/>
<polygon fill="black" stroke="black" points="361.93,-103.52 372.53,-103.79 364.41,-96.98 361.93,-103.52"/>
<text text-anchor="middle" x="349.31" y="-100.8" font-family="Times New Roman,serif" font-size="14.00">a</text>
</g>
<!-- a2b3 -->
<g id="node7" class="node">
<title>a2b3</title>
<ellipse fill="none" stroke="black" cx="606.3" cy="-59" rx="29.9" ry="29.9"/>
<text text-anchor="middle" x="606.3" y="-55.3" font-family="Times New Roman,serif" font-size="14.00">a2b3</text>
</g>
<!-- a2b2&#45;&gt;a2b3 -->
<g id="edge9" class="edge">
<title>a2b2&#45;&gt;a2b3</title>
<path fill="none" stroke="black" d="M327.74,-73.39C333.71,-72.89 339.96,-72.4 345.81,-72 423.95,-66.7 515.48,-62.61 566.28,-60.52"/>
<polygon fill="black" stroke="black" points="566.63,-64.01 576.48,-60.11 566.35,-57.02 566.63,-64.01"/>
<text text-anchor="middle" x="452.2" y="-69.8" font-family="Times New Roman,serif" font-size="14.00">b</text>
</g>
<!-- a1b3&#45;&gt;a1b1 -->
<g id="edge11" class="edge">
<title>a1b3&#45;&gt;a1b1</title>
<path fill="none" stroke="black" d="M485.67,-138.05C467.51,-160.31 436.7,-190 401.5,-190 193.71,-190 193.71,-190 193.71,-190 165.64,-190 139.5,-170.24 122.18,-153.22"/>
<polygon fill="black" stroke="black" points="124.34,-150.42 114.87,-145.67 119.31,-155.29 124.34,-150.42"/>
<text text-anchor="middle" x="298.11" y="-193.8" font-family="Times New Roman,serif" font-size="14.00">b</text>
</g>
<!-- a1b3&#45;&gt;a2b3 -->
<g id="edge10" class="edge">
<title>a1b3&#45;&gt;a2b3</title>
<path fill="none" stroke="black" d="M526.59,-94.25C534.12,-88.12 542.87,-81.73 551.6,-77 556.62,-74.28 562.14,-71.86 567.65,-69.76"/>
<polygon fill="black" stroke="black" points="569.21,-72.92 577.49,-66.3 566.89,-66.31 569.21,-72.92"/>
<text text-anchor="middle" x="555.1" y="-80.8" font-family="Times New Roman,serif" font-size="14.00">a</text>
</g>
<!-- a2b3&#45;&gt;a2b1 -->
<g id="edge13" class="edge">
<title>a2b3&#45;&gt;a2b1</title>
<path fill="none" stroke="black" d="M584.64,-38.03C565.65,-21.07 535.83,0 504.9,0 297.11,0 297.11,0 297.11,0 265.9,0 238.14,-23.34 219.59,-44.15"/>
<polygon fill="black" stroke="black" points="216.77,-42.07 212.94,-51.95 222.09,-46.61 216.77,-42.07"/>
<text text-anchor="middle" x="400.5" y="-3.8" font-family="Times New Roman,serif" font-size="14.00">b</text>
</g>
<!-- a2b3&#45;&gt;a1b3 -->
<g id="edge12" class="edge">
<title>a2b3&#45;&gt;a1b3</title>
<path fill="none" stroke="black" d="M582.22,-76.87C574.89,-82.11 566.61,-87.61 558.6,-92 553.28,-94.92 547.49,-97.68 541.75,-100.2"/>
<polygon fill="black" stroke="black" points="540.09,-97.1 532.22,-104.19 542.8,-103.56 540.09,-97.1"/>
<text text-anchor="middle" x="555.1" y="-99.8" font-family="Times New Roman,serif" font-size="14.00">a</text>
</g>
</g>
</svg>
