<?xml version="1.0" encoding="UTF-8" standalone="no"?>
<!DOCTYPE svg PUBLIC "-//W3C//DTD SVG 1.1//EN"
 "http://www.w3.org/Graphics/SVG/1.1/DTD/svg11.dtd">
<!-- Generated by graphviz version 3.0.0 (20220226.1711)
 -->
<!-- Pages: 1 -->
<svg width="329pt" height="150pt"
 viewBox="14.40 14.40 314.44 135.91" xmlns="http://www.w3.org/2000/svg" xmlns:xlink="http://www.w3.org/1999/xlink">
<g id="graph0" class="graph" transform="scale(1 1) rotate(0) translate(18.4 131.91)">
<polygon fill="white" stroke="transparent" points="-4,4 -4,-117.51 296.04,-117.51 296.04,4 -4,4"/>
<!-- 1 -->
<g id="node1" class="node">
<title>1</title>
<ellipse fill="none" stroke="black" cx="100.01" cy="-22" rx="18" ry="18"/>
<ellipse fill="none" stroke="black" cx="100.01" cy="-22" rx="22" ry="22"/>
<text text-anchor="middle" x="100.01" y="-18.3" font-family="Times New Roman,serif" font-size="14.00">1</text>
</g>
<!-- 1&#45;&gt;1 -->
<g id="edge3" class="edge">
<title>1&#45;&gt;1</title>
<path fill="none" stroke="black" d="M92.7,-42.99C91.79,-53.09 94.23,-62 100.01,-62 103.72,-62 106.05,-58.34 107.01,-53.06"/>
<polygon fill="black" stroke="black" points="110.51,-53.1 107.33,-42.99 103.51,-52.87 110.51,-53.1"/>
<text text-anchor="middle" x="100.01" y="-65.8" font-family="Times New Roman,serif" font-size="14.00">a</text>
</g>
<!-- 2 -->
<g id="node3" class="node">
<title>2</title>
<ellipse fill="none" stroke="black" cx="186.52" cy="-60" rx="20.51" ry="20.51"/>
<text text-anchor="middle" x="186.52" y="-56.3" font-family="Times New Roman,serif" font-size="14.00">2</text>
</g>
<!-- 1&#45;&gt;2 -->
<g id="edge2" class="edge">
<title>1&#45;&gt;2</title>
<path fill="none" stroke="black" d="M120.61,-30.81C131.77,-35.83 145.92,-42.19 158.16,-47.7"/>
<polygon fill="black" stroke="black" points="156.91,-50.97 167.47,-51.88 159.78,-44.59 156.91,-50.97"/>
<text text-anchor="middle" x="144.01" y="-46.8" font-family="Times New Roman,serif" font-size="14.00">b</text>
</g>
<!--   -->
<g id="node2" class="node">
<title> </title>
<ellipse fill="none" stroke="white" cx="20.51" cy="-22" rx="20.51" ry="20.51"/>
<text text-anchor="middle" x="20.51" y="-18.3" font-family="Times New Roman,serif" font-size="14.00"> </text>
</g>
<!--  &#45;&gt;1 -->
<g id="edge1" class="edge">
<title> &#45;&gt;1</title>
<path fill="none" stroke="black" d="M41.06,-22C49.12,-22 58.66,-22 67.65,-22"/>
<polygon fill="black" stroke="black" points="67.83,-25.5 77.83,-22 67.83,-18.5 67.83,-25.5"/>
</g>
<!-- 2&#45;&gt;2 -->
<g id="edge4" class="edge">
<title>2&#45;&gt;2</title>
<path fill="none" stroke="black" d="M178.92,-79.42C177.75,-89.46 180.28,-98.51 186.52,-98.51 190.51,-98.51 192.99,-94.79 193.94,-89.48"/>
<polygon fill="black" stroke="black" points="197.44,-89.48 194.12,-79.42 190.44,-89.35 197.44,-89.48"/>
<text text-anchor="middle" x="186.52" y="-102.31" font-family="Times New Roman,serif" font-size="14.00">a</text>
</g>
<!-- 3 -->
<g id="node4" class="node">
<title>3</title>
<ellipse fill="none" stroke="black" cx="271.53" cy="-22" rx="20.51" ry="20.51"/>
<text text-anchor="middle" x="271.53" y="-18.3" font-family="Times New Roman,serif" font-size="14.00">3</text>
</g>
<!-- 2&#45;&gt;3 -->
<g id="edge5" class="edge">
<title>2&#45;&gt;3</title>
<path fill="none" stroke="black" d="M205.53,-51.75C216.52,-46.73 230.78,-40.2 243.14,-34.54"/>
<polygon fill="black" stroke="black" points="244.92,-37.57 252.55,-30.23 242,-31.21 244.92,-37.57"/>
<text text-anchor="middle" x="229.02" y="-46.8" font-family="Times New Roman,serif" font-size="14.00">b</text>
</g>
<!-- 3&#45;&gt;1 -->
<g id="edge7" class="edge">
<title>3&#45;&gt;1</title>
<path fill="none" stroke="black" d="M251.12,-19.3C238.57,-17.7 221.87,-15.82 207.02,-15 188.82,-14 184.21,-14.02 166.01,-15 154.96,-15.59 142.9,-16.75 132.2,-17.95"/>
<polygon fill="black" stroke="black" points="131.56,-14.51 122.04,-19.16 132.38,-21.46 131.56,-14.51"/>
<text text-anchor="middle" x="186.52" y="-18.8" font-family="Times New Roman,serif" font-size="14.00">b</text>
</g>
<!-- 3&#45;&gt;3 -->
<g id="edge6" class="edge">
<title>3&#45;&gt;3</title>
<path fill="none" stroke="black" d="M263.93,-41.42C262.76,-51.46 265.3,-60.51 271.53,-60.51 275.52,-60.51 278,-56.79 278.95,-51.48"/>
<polygon fill="black" stroke="black" points="282.46,-51.48 279.13,-41.42 275.46,-51.35 282.46,-51.48"/>
<text text-anchor="middle" x="271.53" y="-64.31" font-family="Times New Roman,serif" font-size="14.00">a</text>
</g>
</g>
</svg>
