<?xml version="1.0" encoding="UTF-8" standalone="no"?>
<!DOCTYPE svg PUBLIC "-//W3C//DTD SVG 1.1//EN"
 "http://www.w3.org/Graphics/SVG/1.1/DTD/svg11.dtd">
<!-- Generated by graphviz version 3.0.0 (20220226.1711)
 -->
<!-- Pages: 1 -->
<svg width="389pt" height="341pt"
 viewBox="14.40 14.40 374.40 326.16" xmlns="http://www.w3.org/2000/svg" xmlns:xlink="http://www.w3.org/1999/xlink">
<g id="graph0" class="graph" transform="scale(0.8933 0.8933) rotate(0) translate(20.12 361.12)">
<polygon fill="white" stroke="transparent" points="-4,4 -4,-345 399,-345 399,4 -4,4"/>
<!-- 2 -->
<g id="node1" class="node">
<title>2</title>
<ellipse fill="none" stroke="black" cx="22" cy="-131" rx="18" ry="18"/>
<ellipse fill="none" stroke="black" cx="22" cy="-131" rx="22" ry="22"/>
<text text-anchor="middle" x="22" y="-127.3" font-family="Times New Roman,serif" font-size="14.00">2</text>
</g>
<!-- 3 -->
<g id="node2" class="node">
<title>3</title>
<ellipse fill="none" stroke="black" cx="110" cy="-186" rx="18" ry="18"/>
<ellipse fill="none" stroke="black" cx="110" cy="-186" rx="22" ry="22"/>
<text text-anchor="middle" x="110" y="-182.3" font-family="Times New Roman,serif" font-size="14.00">3</text>
</g>
<!-- 2&#45;&gt;3 -->
<g id="edge5" class="edge">
<title>2&#45;&gt;3</title>
<path fill="none" stroke="black" d="M40.82,-142.4C52.85,-150.09 68.93,-160.37 82.46,-169.02"/>
<polygon fill="black" stroke="black" points="80.6,-171.99 90.91,-174.43 84.37,-166.09 80.6,-171.99"/>
<text text-anchor="middle" x="66" y="-163.8" font-family="Times New Roman,serif" font-size="14.00">b</text>
</g>
<!-- 1 -->
<g id="node7" class="node">
<title>1</title>
<ellipse fill="none" stroke="black" cx="373" cy="-100" rx="20.51" ry="20.51"/>
<text text-anchor="middle" x="373" y="-96.3" font-family="Times New Roman,serif" font-size="14.00">1</text>
</g>
<!-- 2&#45;&gt;1 -->
<g id="edge4" class="edge">
<title>2&#45;&gt;1</title>
<path fill="none" stroke="black" d="M32.9,-111.63C46.54,-87.96 73.52,-51 109,-51 109,-51 109,-51 286,-51 310.14,-51 333.69,-65.76 350.03,-79.08"/>
<polygon fill="black" stroke="black" points="348.01,-81.96 357.87,-85.83 352.57,-76.65 348.01,-81.96"/>
<text text-anchor="middle" x="197" y="-54.8" font-family="Times New Roman,serif" font-size="14.00">a</text>
</g>
<!-- 4 -->
<g id="node3" class="node">
<title>4</title>
<ellipse fill="none" stroke="black" cx="197" cy="-186" rx="18" ry="18"/>
<ellipse fill="none" stroke="black" cx="197" cy="-186" rx="22" ry="22"/>
<text text-anchor="middle" x="197" y="-182.3" font-family="Times New Roman,serif" font-size="14.00">4</text>
</g>
<!-- 3&#45;&gt;4 -->
<g id="edge8" class="edge">
<title>3&#45;&gt;4</title>
<path fill="none" stroke="black" d="M132.01,-186C141.92,-186 153.95,-186 164.89,-186"/>
<polygon fill="black" stroke="black" points="164.94,-189.5 174.94,-186 164.94,-182.5 164.94,-189.5"/>
<text text-anchor="middle" x="153.5" y="-189.8" font-family="Times New Roman,serif" font-size="14.00">a</text>
</g>
<!-- 6 -->
<g id="node5" class="node">
<title>6</title>
<ellipse fill="none" stroke="black" cx="373" cy="-265" rx="18" ry="18"/>
<ellipse fill="none" stroke="black" cx="373" cy="-265" rx="22" ry="22"/>
<text text-anchor="middle" x="373" y="-261.3" font-family="Times New Roman,serif" font-size="14.00">6</text>
</g>
<!-- 3&#45;&gt;6 -->
<g id="edge9" class="edge">
<title>3&#45;&gt;6</title>
<path fill="none" stroke="black" d="M129.67,-196.07C142.25,-202.6 159.33,-210.97 175,-217 239.61,-241.87 257.01,-245.94 325,-259 330.12,-259.98 335.58,-260.85 340.91,-261.59"/>
<polygon fill="black" stroke="black" points="340.49,-265.07 350.85,-262.87 341.38,-258.12 340.49,-265.07"/>
<text text-anchor="middle" x="241" y="-244.8" font-family="Times New Roman,serif" font-size="14.00">b</text>
</g>
<!-- 4&#45;&gt;3 -->
<g id="edge6" class="edge">
<title>4&#45;&gt;3</title>
<path fill="none" stroke="black" d="M177.53,-175.5C171.22,-172.45 163.99,-169.54 157,-168 150.62,-166.6 143.97,-167.62 137.77,-169.75"/>
<polygon fill="black" stroke="black" points="136.26,-166.6 128.51,-173.82 139.07,-173.01 136.26,-166.6"/>
<text text-anchor="middle" x="153.5" y="-171.8" font-family="Times New Roman,serif" font-size="14.00">a</text>
</g>
<!-- 5 -->
<g id="node4" class="node">
<title>5</title>
<ellipse fill="none" stroke="black" cx="285" cy="-212" rx="18" ry="18"/>
<ellipse fill="none" stroke="black" cx="285" cy="-212" rx="22" ry="22"/>
<text text-anchor="middle" x="285" y="-208.3" font-family="Times New Roman,serif" font-size="14.00">5</text>
</g>
<!-- 4&#45;&gt;5 -->
<g id="edge7" class="edge">
<title>4&#45;&gt;5</title>
<path fill="none" stroke="black" d="M218.38,-192.16C228.98,-195.37 242.15,-199.35 253.9,-202.9"/>
<polygon fill="black" stroke="black" points="253.18,-206.34 263.77,-205.88 255.21,-199.64 253.18,-206.34"/>
<text text-anchor="middle" x="241" y="-202.8" font-family="Times New Roman,serif" font-size="14.00">b</text>
</g>
<!-- 5&#45;&gt;6 -->
<g id="edge10" class="edge">
<title>5&#45;&gt;6</title>
<path fill="none" stroke="black" d="M304.24,-223.24C316.1,-230.55 331.77,-240.2 345.05,-248.39"/>
<polygon fill="black" stroke="black" points="343.44,-251.51 353.79,-253.78 347.11,-245.55 343.44,-251.51"/>
<text text-anchor="middle" x="329" y="-243.8" font-family="Times New Roman,serif" font-size="14.00">a</text>
</g>
<!-- 5&#45;&gt;1 -->
<g id="edge11" class="edge">
<title>5&#45;&gt;1</title>
<path fill="none" stroke="black" d="M299.47,-195C308.92,-183.03 321.81,-166.6 333,-152 339.97,-142.91 347.55,-132.84 354.15,-124.01"/>
<polygon fill="black" stroke="black" points="356.96,-126.1 360.14,-116 351.35,-121.92 356.96,-126.1"/>
<text text-anchor="middle" x="329" y="-164.8" font-family="Times New Roman,serif" font-size="14.00">b</text>
</g>
<!-- 6&#45;&gt;2 -->
<g id="edge13" class="edge">
<title>6&#45;&gt;2</title>
<path fill="none" stroke="black" d="M358.85,-282.32C343.53,-300.35 316.39,-326 286,-326 109,-326 109,-326 109,-326 38.61,-326 25.35,-218.32 23.17,-162.99"/>
<polygon fill="black" stroke="black" points="26.67,-162.88 22.88,-152.99 19.68,-163.09 26.67,-162.88"/>
<text text-anchor="middle" x="197" y="-329.8" font-family="Times New Roman,serif" font-size="14.00">b</text>
</g>
<!-- 6&#45;&gt;5 -->
<g id="edge12" class="edge">
<title>6&#45;&gt;5</title>
<path fill="none" stroke="black" d="M361.56,-245.92C354.83,-235.56 345.08,-223.56 333,-217 328.25,-214.42 322.84,-212.84 317.42,-211.91"/>
<polygon fill="black" stroke="black" points="317.46,-208.4 307.15,-210.84 316.74,-215.36 317.46,-208.4"/>
<text text-anchor="middle" x="329" y="-220.8" font-family="Times New Roman,serif" font-size="14.00">a</text>
</g>
<!--   -->
<g id="node6" class="node">
<title> </title>
<ellipse fill="none" stroke="white" cx="285" cy="-100" rx="20.51" ry="20.51"/>
<text text-anchor="middle" x="285" y="-96.3" font-family="Times New Roman,serif" font-size="14.00"> </text>
</g>
<!--  &#45;&gt;1 -->
<g id="edge1" class="edge">
<title> &#45;&gt;1</title>
<path fill="none" stroke="black" d="M305.51,-100C316.32,-100 329.99,-100 342.12,-100"/>
<polygon fill="black" stroke="black" points="342.26,-103.5 352.26,-100 342.26,-96.5 342.26,-103.5"/>
</g>
<!-- 1&#45;&gt;2 -->
<g id="edge2" class="edge">
<title>1&#45;&gt;2</title>
<path fill="none" stroke="black" d="M365.42,-80.72C354.13,-51.66 328.13,0 286,0 109,0 109,0 109,0 61.55,0 38.84,-60.81 29.18,-99.56"/>
<polygon fill="black" stroke="black" points="25.75,-98.83 26.89,-109.37 32.57,-100.42 25.75,-98.83"/>
<text text-anchor="middle" x="197" y="-3.8" font-family="Times New Roman,serif" font-size="14.00">a</text>
</g>
<!-- 1&#45;&gt;4 -->
<g id="edge3" class="edge">
<title>1&#45;&gt;4</title>
<path fill="none" stroke="black" d="M354.37,-108.71C324.15,-123.65 262.19,-154.27 226,-172.16"/>
<polygon fill="black" stroke="black" points="224.37,-169.06 216.95,-176.63 227.47,-175.34 224.37,-169.06"/>
<text text-anchor="middle" x="285" y="-156.8" font-family="Times New Roman,serif" font-size="14.00">b</text>
</g>
</g>
</svg>
