<?xml version="1.0" encoding="UTF-8" standalone="no"?>
<!DOCTYPE svg PUBLIC "-//W3C//DTD SVG 1.1//EN"
 "http://www.w3.org/Graphics/SVG/1.1/DTD/svg11.dtd">
<!-- Generated by graphviz version 3.0.0 (20220226.1711)
 -->
<!-- Pages: 1 -->
<svg width="389pt" height="66pt"
 viewBox="14.40 14.40 374.40 51.10" xmlns="http://www.w3.org/2000/svg" xmlns:xlink="http://www.w3.org/1999/xlink">
<g id="graph0" class="graph" transform="scale(0.705798 0.705798) rotate(0) translate(24.4 68.4)">
<polygon fill="white" stroke="transparent" points="-4,4 -4,-48 506.06,-48 506.06,4 -4,4"/>
<!-- 4 -->
<g id="node1" class="node">
<title>4</title>
<ellipse fill="none" stroke="black" cx="385.05" cy="-22" rx="18" ry="18"/>
<ellipse fill="none" stroke="black" cx="385.05" cy="-22" rx="22" ry="22"/>
<text text-anchor="middle" x="385.05" y="-18.3" font-family="Times New Roman,serif" font-size="14.00">4</text>
</g>
<!-- 5 -->
<g id="node6" class="node">
<title>5</title>
<ellipse fill="none" stroke="black" cx="481.55" cy="-22" rx="20.51" ry="20.51"/>
<text text-anchor="middle" x="481.55" y="-18.3" font-family="Times New Roman,serif" font-size="14.00">5</text>
</g>
<!-- 4&#45;&gt;5 -->
<g id="edge5" class="edge">
<title>4&#45;&gt;5</title>
<path fill="none" stroke="black" d="M407.49,-22C420.25,-22 436.63,-22 450.65,-22"/>
<polygon fill="black" stroke="black" points="450.81,-25.5 460.81,-22 450.81,-18.5 450.81,-25.5"/>
<text text-anchor="middle" x="434.05" y="-25.8" font-family="Times New Roman,serif" font-size="14.00">a,b</text>
</g>
<!--   -->
<g id="node2" class="node">
<title> </title>
<ellipse fill="none" stroke="white" cx="20.51" cy="-22" rx="20.51" ry="20.51"/>
<text text-anchor="middle" x="20.51" y="-18.3" font-family="Times New Roman,serif" font-size="14.00"> </text>
</g>
<!-- 1 -->
<g id="node3" class="node">
<title>1</title>
<ellipse fill="none" stroke="black" cx="98.52" cy="-22" rx="20.51" ry="20.51"/>
<text text-anchor="middle" x="98.52" y="-18.3" font-family="Times New Roman,serif" font-size="14.00">1</text>
</g>
<!--  &#45;&gt;1 -->
<g id="edge1" class="edge">
<title> &#45;&gt;1</title>
<path fill="none" stroke="black" d="M41.08,-22C49.24,-22 58.89,-22 67.88,-22"/>
<polygon fill="black" stroke="black" points="68.01,-25.5 78.01,-22 68.01,-18.5 68.01,-25.5"/>
</g>
<!-- 2 -->
<g id="node4" class="node">
<title>2</title>
<ellipse fill="none" stroke="black" cx="193.53" cy="-22" rx="20.51" ry="20.51"/>
<text text-anchor="middle" x="193.53" y="-18.3" font-family="Times New Roman,serif" font-size="14.00">2</text>
</g>
<!-- 1&#45;&gt;2 -->
<g id="edge2" class="edge">
<title>1&#45;&gt;2</title>
<path fill="none" stroke="black" d="M119.24,-22C131.82,-22 148.37,-22 162.55,-22"/>
<polygon fill="black" stroke="black" points="162.83,-25.5 172.83,-22 162.83,-18.5 162.83,-25.5"/>
<text text-anchor="middle" x="146.02" y="-25.8" font-family="Times New Roman,serif" font-size="14.00">a,b</text>
</g>
<!-- 3 -->
<g id="node5" class="node">
<title>3</title>
<ellipse fill="none" stroke="black" cx="288.54" cy="-22" rx="20.51" ry="20.51"/>
<text text-anchor="middle" x="288.54" y="-18.3" font-family="Times New Roman,serif" font-size="14.00">3</text>
</g>
<!-- 2&#45;&gt;3 -->
<g id="edge3" class="edge">
<title>2&#45;&gt;3</title>
<path fill="none" stroke="black" d="M214.26,-22C226.83,-22 243.38,-22 257.56,-22"/>
<polygon fill="black" stroke="black" points="257.85,-25.5 267.85,-22 257.85,-18.5 257.85,-25.5"/>
<text text-anchor="middle" x="241.04" y="-25.8" font-family="Times New Roman,serif" font-size="14.00">a,b</text>
</g>
<!-- 3&#45;&gt;4 -->
<g id="edge4" class="edge">
<title>3&#45;&gt;4</title>
<path fill="none" stroke="black" d="M309.12,-22C321.74,-22 338.42,-22 352.84,-22"/>
<polygon fill="black" stroke="black" points="352.85,-25.5 362.85,-22 352.85,-18.5 352.85,-25.5"/>
<text text-anchor="middle" x="336.05" y="-25.8" font-family="Times New Roman,serif" font-size="14.00">a,b</text>
</g>
<!-- 5&#45;&gt;4 -->
<g id="edge6" class="edge">
<title>5&#45;&gt;4</title>
<path fill="none" stroke="black" d="M463.66,-11.32C457.42,-7.97 450.15,-4.7 443.05,-3 433.18,-0.64 422.59,-2.82 413.25,-6.42"/>
<polygon fill="black" stroke="black" points="411.72,-3.27 404.04,-10.56 414.6,-9.65 411.72,-3.27"/>
<text text-anchor="middle" x="434.05" y="-6.8" font-family="Times New Roman,serif" font-size="14.00">a,b</text>
</g>
</g>
</svg>
