<?xml version="1.0" encoding="UTF-8" standalone="no"?>
<!DOCTYPE svg PUBLIC "-//W3C//DTD SVG 1.1//EN"
 "http://www.w3.org/Graphics/SVG/1.1/DTD/svg11.dtd">
<!-- Generated by graphviz version 3.0.0 (20220226.1711)
 -->
<!-- Pages: 1 -->
<svg width="389pt" height="131pt"
 viewBox="14.40 14.40 374.40 116.19" xmlns="http://www.w3.org/2000/svg" xmlns:xlink="http://www.w3.org/1999/xlink">
<g id="graph0" class="graph" transform="scale(0.29938 0.29938) rotate(0) translate(52.1 384.1)">
<polygon fill="white" stroke="transparent" points="-4,4 -4,-336 1198.49,-336 1198.49,4 -4,4"/>
<!-- a4b2 -->
<g id="node1" class="node">
<title>a4b2</title>
<ellipse fill="none" stroke="black" cx="364.31" cy="-195" rx="18" ry="18"/>
<ellipse fill="none" stroke="black" cx="364.31" cy="-195" rx="22" ry="22"/>
<text text-anchor="middle" x="364.31" y="-191.3" font-family="Times New Roman,serif" font-size="14.00">a4b2</text>
</g>
<!-- a5b1 -->
<g id="node16" class="node">
<title>a5b1</title>
<ellipse fill="none" stroke="black" cx="455.11" cy="-249" rx="23.3" ry="23.3"/>
<text text-anchor="middle" x="455.11" y="-245.3" font-family="Times New Roman,serif" font-size="14.00">a5b1</text>
</g>
<!-- a4b2&#45;&gt;a5b1 -->
<g id="edge16" class="edge">
<title>a4b2&#45;&gt;a5b1</title>
<path fill="none" stroke="black" d="M385.9,-200.22C394.82,-202.98 405.15,-206.87 413.71,-212 419.74,-215.61 425.66,-220.22 431.02,-224.95"/>
<polygon fill="black" stroke="black" points="428.73,-227.61 438.43,-231.87 433.51,-222.49 428.73,-227.61"/>
<text text-anchor="middle" x="409.71" y="-215.8" font-family="Times New Roman,serif" font-size="14.00">a</text>
</g>
<!-- a5b3 -->
<g id="node17" class="node">
<title>a5b3</title>
<ellipse fill="none" stroke="black" cx="632.9" cy="-212" rx="23.3" ry="23.3"/>
<text text-anchor="middle" x="632.9" y="-208.3" font-family="Times New Roman,serif" font-size="14.00">a5b3</text>
</g>
<!-- a4b2&#45;&gt;a5b3 -->
<g id="edge17" class="edge">
<title>a4b2&#45;&gt;a5b3</title>
<path fill="none" stroke="black" d="M386.6,-194.75C426.8,-194.51 516.57,-195.14 591.51,-204 594.21,-204.32 597,-204.72 599.8,-205.17"/>
<polygon fill="black" stroke="black" points="599.31,-208.64 609.78,-206.97 600.56,-201.75 599.31,-208.64"/>
<text text-anchor="middle" x="500.51" y="-200.8" font-family="Times New Roman,serif" font-size="14.00">b</text>
</g>
<!-- a4b3 -->
<g id="node2" class="node">
<title>a4b3</title>
<ellipse fill="none" stroke="black" cx="902.5" cy="-167" rx="18" ry="18"/>
<ellipse fill="none" stroke="black" cx="902.5" cy="-167" rx="22" ry="22"/>
<text text-anchor="middle" x="902.5" y="-163.3" font-family="Times New Roman,serif" font-size="14.00">a4b3</text>
</g>
<!-- a5b4 -->
<g id="node15" class="node">
<title>a5b4</title>
<ellipse fill="none" stroke="black" cx="993.29" cy="-167" rx="23.3" ry="23.3"/>
<text text-anchor="middle" x="993.29" y="-163.3" font-family="Times New Roman,serif" font-size="14.00">a5b4</text>
</g>
<!-- a4b3&#45;&gt;a5b4 -->
<g id="edge18" class="edge">
<title>a4b3&#45;&gt;a5b4</title>
<path fill="none" stroke="black" d="M924.54,-167C934.98,-167 947.84,-167 959.53,-167"/>
<polygon fill="black" stroke="black" points="959.85,-170.5 969.85,-167 959.85,-163.5 959.85,-170.5"/>
<text text-anchor="middle" x="947.89" y="-170.8" font-family="Times New Roman,serif" font-size="14.00">a</text>
</g>
<!-- a5b6 -->
<g id="node18" class="node">
<title>a5b6</title>
<ellipse fill="none" stroke="black" cx="1171.09" cy="-167" rx="23.3" ry="23.3"/>
<text text-anchor="middle" x="1171.09" y="-163.3" font-family="Times New Roman,serif" font-size="14.00">a5b6</text>
</g>
<!-- a4b3&#45;&gt;a5b6 -->
<g id="edge19" class="edge">
<title>a4b3&#45;&gt;a5b6</title>
<path fill="none" stroke="black" d="M916.47,-184.44C927.51,-199.17 941.9,-218.03 943.89,-219 947.09,-220.56 948.35,-219.24 951.89,-219 1020.28,-214.32 1039,-217.58 1104.69,-198 1117.08,-194.31 1130.07,-188.58 1141.18,-183.04"/>
<polygon fill="black" stroke="black" points="1143.11,-185.98 1150.39,-178.29 1139.9,-179.76 1143.11,-185.98"/>
<text text-anchor="middle" x="1038.69" y="-216.8" font-family="Times New Roman,serif" font-size="14.00">b</text>
</g>
<!-- a4b4 -->
<g id="node3" class="node">
<title>a4b4</title>
<ellipse fill="none" stroke="black" cx="544.51" cy="-249" rx="18" ry="18"/>
<ellipse fill="none" stroke="black" cx="544.51" cy="-249" rx="22" ry="22"/>
<text text-anchor="middle" x="544.51" y="-245.3" font-family="Times New Roman,serif" font-size="14.00">a4b4</text>
</g>
<!-- a4b4&#45;&gt;a5b3 -->
<g id="edge20" class="edge">
<title>a4b4&#45;&gt;a5b3</title>
<path fill="none" stroke="black" d="M565.11,-240.6C575.95,-235.96 589.66,-230.09 601.83,-224.88"/>
<polygon fill="black" stroke="black" points="603.36,-228.03 611.17,-220.88 600.6,-221.6 603.36,-228.03"/>
<text text-anchor="middle" x="588.01" y="-234.8" font-family="Times New Roman,serif" font-size="14.00">a</text>
</g>
<!-- a5b5 -->
<g id="node19" class="node">
<title>a5b5</title>
<ellipse fill="none" stroke="black" cx="811.7" cy="-262" rx="23.3" ry="23.3"/>
<text text-anchor="middle" x="811.7" y="-258.3" font-family="Times New Roman,serif" font-size="14.00">a5b5</text>
</g>
<!-- a4b4&#45;&gt;a5b5 -->
<g id="edge21" class="edge">
<title>a4b4&#45;&gt;a5b5</title>
<path fill="none" stroke="black" d="M566.76,-250.04C612.97,-252.31 722.83,-257.69 777.96,-260.4"/>
<polygon fill="black" stroke="black" points="778.07,-263.9 788.22,-260.9 778.41,-256.91 778.07,-263.9"/>
<text text-anchor="middle" x="678.3" y="-258.8" font-family="Times New Roman,serif" font-size="14.00">b</text>
</g>
<!-- a4b5 -->
<g id="node4" class="node">
<title>a4b5</title>
<ellipse fill="none" stroke="black" cx="1082.69" cy="-167" rx="18" ry="18"/>
<ellipse fill="none" stroke="black" cx="1082.69" cy="-167" rx="22" ry="22"/>
<text text-anchor="middle" x="1082.69" y="-163.3" font-family="Times New Roman,serif" font-size="14.00">a4b5</text>
</g>
<!-- a4b5&#45;&gt;a5b1 -->
<g id="edge23" class="edge">
<title>a4b5&#45;&gt;a5b1</title>
<path fill="none" stroke="black" d="M1079.13,-188.81C1072.91,-230.41 1052.91,-317 994.29,-317 543.51,-317 543.51,-317 543.51,-317 515.58,-317 491.21,-295.11 475.35,-276.17"/>
<polygon fill="black" stroke="black" points="478.05,-273.95 469.09,-268.3 472.58,-278.31 478.05,-273.95"/>
<text text-anchor="middle" x="766.3" y="-320.8" font-family="Times New Roman,serif" font-size="14.00">b</text>
</g>
<!-- a4b5&#45;&gt;a5b6 -->
<g id="edge22" class="edge">
<title>a4b5&#45;&gt;a5b6</title>
<path fill="none" stroke="black" d="M1105.05,-167C1114.82,-167 1126.61,-167 1137.46,-167"/>
<polygon fill="black" stroke="black" points="1137.47,-170.5 1147.47,-167 1137.47,-163.5 1137.47,-170.5"/>
<text text-anchor="middle" x="1126.19" y="-170.8" font-family="Times New Roman,serif" font-size="14.00">a</text>
</g>
<!-- a4b6 -->
<g id="node5" class="node">
<title>a4b6</title>
<ellipse fill="none" stroke="black" cx="722.3" cy="-211" rx="18" ry="18"/>
<ellipse fill="none" stroke="black" cx="722.3" cy="-211" rx="22" ry="22"/>
<text text-anchor="middle" x="722.3" y="-207.3" font-family="Times New Roman,serif" font-size="14.00">a4b6</text>
</g>
<!-- a5b2 -->
<g id="node14" class="node">
<title>a5b2</title>
<ellipse fill="none" stroke="black" cx="811.7" cy="-189" rx="23.3" ry="23.3"/>
<text text-anchor="middle" x="811.7" y="-185.3" font-family="Times New Roman,serif" font-size="14.00">a5b2</text>
</g>
<!-- a4b6&#45;&gt;a5b2 -->
<g id="edge25" class="edge">
<title>a4b6&#45;&gt;a5b2</title>
<path fill="none" stroke="black" d="M736.16,-193.89C742.99,-186.26 752.07,-178.08 762.3,-174 768.41,-171.56 775.09,-171.83 781.47,-173.43"/>
<polygon fill="black" stroke="black" points="780.55,-176.82 791.14,-176.84 782.88,-170.22 780.55,-176.82"/>
<text text-anchor="middle" x="766.3" y="-177.8" font-family="Times New Roman,serif" font-size="14.00">b</text>
</g>
<!-- a4b6&#45;&gt;a5b5 -->
<g id="edge24" class="edge">
<title>a4b6&#45;&gt;a5b5</title>
<path fill="none" stroke="black" d="M744.33,-207.72C752.79,-207.33 762.39,-208.12 770.3,-212 779.84,-216.68 787.88,-224.8 794.21,-233.15"/>
<polygon fill="black" stroke="black" points="791.39,-235.23 799.96,-241.46 797.14,-231.25 791.39,-235.23"/>
<text text-anchor="middle" x="766.3" y="-215.8" font-family="Times New Roman,serif" font-size="14.00">a</text>
</g>
<!--   -->
<g id="node6" class="node">
<title> </title>
<ellipse fill="none" stroke="white" cx="16.26" cy="-77" rx="16.03" ry="16.03"/>
<text text-anchor="middle" x="16.26" y="-73.3" font-family="Times New Roman,serif" font-size="14.00"> </text>
</g>
<!-- a1b1 -->
<g id="node7" class="node">
<title>a1b1</title>
<ellipse fill="none" stroke="black" cx="92.92" cy="-77" rx="23.3" ry="23.3"/>
<text text-anchor="middle" x="92.92" y="-73.3" font-family="Times New Roman,serif" font-size="14.00">a1b1</text>
</g>
<!--  &#45;&gt;a1b1 -->
<g id="edge1" class="edge">
<title> &#45;&gt;a1b1</title>
<path fill="none" stroke="black" d="M32.73,-77C40.43,-77 50.04,-77 59.26,-77"/>
<polygon fill="black" stroke="black" points="59.39,-80.5 69.39,-77 59.39,-73.5 59.39,-80.5"/>
</g>
<!-- a2b2 -->
<g id="node8" class="node">
<title>a2b2</title>
<ellipse fill="none" stroke="black" cx="182.72" cy="-112" rx="23.3" ry="23.3"/>
<text text-anchor="middle" x="182.72" y="-108.3" font-family="Times New Roman,serif" font-size="14.00">a2b2</text>
</g>
<!-- a1b1&#45;&gt;a2b2 -->
<g id="edge2" class="edge">
<title>a1b1&#45;&gt;a2b2</title>
<path fill="none" stroke="black" d="M115.18,-85.47C125.96,-89.77 139.26,-95.07 151.12,-99.8"/>
<polygon fill="black" stroke="black" points="150.08,-103.15 160.66,-103.61 152.67,-96.65 150.08,-103.15"/>
<text text-anchor="middle" x="137.82" y="-98.8" font-family="Times New Roman,serif" font-size="14.00">a</text>
</g>
<!-- a2b4 -->
<g id="node9" class="node">
<title>a2b4</title>
<ellipse fill="none" stroke="black" cx="364.31" cy="-61" rx="23.3" ry="23.3"/>
<text text-anchor="middle" x="364.31" y="-57.3" font-family="Times New Roman,serif" font-size="14.00">a2b4</text>
</g>
<!-- a1b1&#45;&gt;a2b4 -->
<g id="edge3" class="edge">
<title>a1b1&#45;&gt;a2b4</title>
<path fill="none" stroke="black" d="M116.43,-75.66C164.07,-72.83 275.26,-66.23 330.69,-62.94"/>
<polygon fill="black" stroke="black" points="330.91,-66.43 340.68,-62.34 330.49,-59.44 330.91,-66.43"/>
<text text-anchor="middle" x="228.12" y="-72.8" font-family="Times New Roman,serif" font-size="14.00">b</text>
</g>
<!-- a3b1 -->
<g id="node10" class="node">
<title>a3b1</title>
<ellipse fill="none" stroke="black" cx="273.52" cy="-195" rx="23.3" ry="23.3"/>
<text text-anchor="middle" x="273.52" y="-191.3" font-family="Times New Roman,serif" font-size="14.00">a3b1</text>
</g>
<!-- a2b2&#45;&gt;a3b1 -->
<g id="edge4" class="edge">
<title>a2b2&#45;&gt;a3b1</title>
<path fill="none" stroke="black" d="M200.42,-127.61C213.94,-140.25 233.16,-158.22 248.36,-172.42"/>
<polygon fill="black" stroke="black" points="246.19,-175.19 255.89,-179.46 250.97,-170.07 246.19,-175.19"/>
<text text-anchor="middle" x="228.12" y="-158.8" font-family="Times New Roman,serif" font-size="14.00">a</text>
</g>
<!-- a3b3 -->
<g id="node11" class="node">
<title>a3b3</title>
<ellipse fill="none" stroke="black" cx="455.11" cy="-89" rx="23.3" ry="23.3"/>
<text text-anchor="middle" x="455.11" y="-85.3" font-family="Times New Roman,serif" font-size="14.00">a3b3</text>
</g>
<!-- a2b2&#45;&gt;a3b3 -->
<g id="edge5" class="edge">
<title>a2b2&#45;&gt;a3b3</title>
<path fill="none" stroke="black" d="M206.28,-110.57C247.51,-107.89 337.8,-101.66 413.71,-94 416.23,-93.75 418.84,-93.46 421.46,-93.17"/>
<polygon fill="black" stroke="black" points="421.96,-96.63 431.48,-91.98 421.14,-89.68 421.96,-96.63"/>
<text text-anchor="middle" x="318.91" y="-105.8" font-family="Times New Roman,serif" font-size="14.00">b</text>
</g>
<!-- a2b4&#45;&gt;a3b3 -->
<g id="edge6" class="edge">
<title>a2b4&#45;&gt;a3b3</title>
<path fill="none" stroke="black" d="M386.81,-67.78C397.63,-71.19 410.96,-75.4 422.89,-79.16"/>
<polygon fill="black" stroke="black" points="421.91,-82.52 432.5,-82.19 424.02,-75.84 421.91,-82.52"/>
<text text-anchor="middle" x="409.71" y="-78.8" font-family="Times New Roman,serif" font-size="14.00">a</text>
</g>
<!-- a3b5 -->
<g id="node12" class="node">
<title>a3b5</title>
<ellipse fill="none" stroke="black" cx="632.9" cy="-147" rx="23.3" ry="23.3"/>
<text text-anchor="middle" x="632.9" y="-143.3" font-family="Times New Roman,serif" font-size="14.00">a3b5</text>
</g>
<!-- a2b4&#45;&gt;a3b5 -->
<g id="edge7" class="edge">
<title>a2b4&#45;&gt;a3b5</title>
<path fill="none" stroke="black" d="M387.46,-56.4C410.6,-52.47 447.76,-48.65 478.51,-57 527.86,-70.41 577.57,-104.15 606.51,-126.29"/>
<polygon fill="black" stroke="black" points="604.42,-129.1 614.46,-132.48 608.72,-123.57 604.42,-129.1"/>
<text text-anchor="middle" x="500.51" y="-69.8" font-family="Times New Roman,serif" font-size="14.00">b</text>
</g>
<!-- a3b1&#45;&gt;a4b2 -->
<g id="edge8" class="edge">
<title>a3b1&#45;&gt;a4b2</title>
<path fill="none" stroke="black" d="M296.92,-195C307.54,-195 320.41,-195 331.98,-195"/>
<polygon fill="black" stroke="black" points="332.14,-198.5 342.14,-195 332.14,-191.5 332.14,-198.5"/>
<text text-anchor="middle" x="318.91" y="-198.8" font-family="Times New Roman,serif" font-size="14.00">a</text>
</g>
<!-- a3b1&#45;&gt;a4b4 -->
<g id="edge9" class="edge">
<title>a3b1&#45;&gt;a4b4</title>
<path fill="none" stroke="black" d="M292.58,-208.89C320.55,-229.43 376.86,-266.98 431.71,-281 451.86,-286.15 458.25,-285.72 478.51,-281 491.71,-277.93 505.33,-271.76 516.66,-265.66"/>
<polygon fill="black" stroke="black" points="518.6,-268.59 525.58,-260.62 515.15,-262.49 518.6,-268.59"/>
<text text-anchor="middle" x="409.71" y="-278.8" font-family="Times New Roman,serif" font-size="14.00">b</text>
</g>
<!-- a3b3&#45;&gt;a4b4 -->
<g id="edge10" class="edge">
<title>a3b3&#45;&gt;a4b4</title>
<path fill="none" stroke="black" d="M473.2,-104C483.42,-113.71 496.02,-127.1 504.51,-141 519.19,-165.05 529.55,-195.47 535.88,-217.89"/>
<polygon fill="black" stroke="black" points="532.51,-218.84 538.51,-227.58 539.27,-217.01 532.51,-218.84"/>
<text text-anchor="middle" x="500.51" y="-144.8" font-family="Times New Roman,serif" font-size="14.00">a</text>
</g>
<!-- a3b3&#45;&gt;a4b5 -->
<g id="edge11" class="edge">
<title>a3b3&#45;&gt;a4b5</title>
<path fill="none" stroke="black" d="M465.44,-67.91C478.68,-41.59 505.61,0 543.51,0 543.51,0 543.51,0 994.29,0 1054.5,0 1073.31,-86.27 1079.13,-134.8"/>
<polygon fill="black" stroke="black" points="1075.66,-135.26 1080.21,-144.82 1082.62,-134.51 1075.66,-135.26"/>
<text text-anchor="middle" x="766.3" y="-3.8" font-family="Times New Roman,serif" font-size="14.00">b</text>
</g>
<!-- a3b5&#45;&gt;a4b6 -->
<g id="edge12" class="edge">
<title>a3b5&#45;&gt;a4b6</title>
<path fill="none" stroke="black" d="M652.44,-160.57C665.05,-169.81 681.91,-182.16 695.79,-192.32"/>
<polygon fill="black" stroke="black" points="693.85,-195.23 703.98,-198.32 697.98,-189.59 693.85,-195.23"/>
<text text-anchor="middle" x="678.3" y="-183.8" font-family="Times New Roman,serif" font-size="14.00">a</text>
</g>
<!-- a4b1 -->
<g id="node13" class="node">
<title>a4b1</title>
<ellipse fill="none" stroke="black" cx="902.5" cy="-230" rx="23.3" ry="23.3"/>
<text text-anchor="middle" x="902.5" y="-226.3" font-family="Times New Roman,serif" font-size="14.00">a4b1</text>
</g>
<!-- a3b5&#45;&gt;a4b1 -->
<g id="edge13" class="edge">
<title>a3b5&#45;&gt;a4b1</title>
<path fill="none" stroke="black" d="M655.65,-141.3C699.49,-131.19 799.51,-115.32 861.1,-162 875.35,-172.81 869.94,-182.63 879.1,-198 880,-199.52 880.96,-201.07 881.94,-202.61"/>
<polygon fill="black" stroke="black" points="879.31,-204.97 887.76,-211.35 885.13,-201.09 879.31,-204.97"/>
<text text-anchor="middle" x="766.3" y="-134.8" font-family="Times New Roman,serif" font-size="14.00">b</text>
</g>
<!-- a4b1&#45;&gt;a5b2 -->
<g id="edge14" class="edge">
<title>a4b1&#45;&gt;a5b2</title>
<path fill="none" stroke="black" d="M882.2,-217.48C875.65,-213.52 868.19,-209.31 861.1,-206 855.62,-203.44 849.64,-201.04 843.81,-198.9"/>
<polygon fill="black" stroke="black" points="844.86,-195.56 834.27,-195.56 842.55,-202.17 844.86,-195.56"/>
<text text-anchor="middle" x="857.1" y="-209.8" font-family="Times New Roman,serif" font-size="14.00">a</text>
</g>
<!-- a4b1&#45;&gt;a5b4 -->
<g id="edge15" class="edge">
<title>a4b1&#45;&gt;a5b4</title>
<path fill="none" stroke="black" d="M922.33,-216.64C934.89,-207.73 951.6,-195.87 965.53,-185.98"/>
<polygon fill="black" stroke="black" points="967.66,-188.77 973.79,-180.13 963.61,-183.06 967.66,-188.77"/>
<text text-anchor="middle" x="947.89" y="-203.8" font-family="Times New Roman,serif" font-size="14.00">b</text>
</g>
<!-- a5b2&#45;&gt;a4b3 -->
<g id="edge29" class="edge">
<title>a5b2&#45;&gt;a4b3</title>
<path fill="none" stroke="black" d="M831.7,-176.84C838.23,-173.3 845.75,-169.88 853.1,-168 858.59,-166.6 864.56,-165.86 870.36,-165.55"/>
<polygon fill="black" stroke="black" points="870.55,-169.04 880.49,-165.36 870.43,-162.04 870.55,-169.04"/>
<text text-anchor="middle" x="857.1" y="-171.8" font-family="Times New Roman,serif" font-size="14.00">b</text>
</g>
<!-- a5b2&#45;&gt;a4b1 -->
<g id="edge28" class="edge">
<title>a5b2&#45;&gt;a4b1</title>
<path fill="none" stroke="black" d="M829.16,-205.04C836.05,-210.91 844.46,-217.07 853.1,-221 858.03,-223.24 863.48,-224.93 868.9,-226.19"/>
<polygon fill="black" stroke="black" points="868.65,-229.71 879.13,-228.14 869.96,-222.83 868.65,-229.71"/>
<text text-anchor="middle" x="857.1" y="-226.8" font-family="Times New Roman,serif" font-size="14.00">a</text>
</g>
<!-- a5b4&#45;&gt;a4b3 -->
<g id="edge32" class="edge">
<title>a5b4&#45;&gt;a4b3</title>
<path fill="none" stroke="black" d="M973.41,-153.88C964.63,-149.28 953.94,-145.76 943.89,-148 939.64,-148.95 935.3,-150.4 931.13,-152.09"/>
<polygon fill="black" stroke="black" points="929.46,-149 921.79,-156.32 932.34,-155.38 929.46,-149"/>
<text text-anchor="middle" x="947.89" y="-151.8" font-family="Times New Roman,serif" font-size="14.00">a</text>
</g>
<!-- a5b4&#45;&gt;a4b5 -->
<g id="edge33" class="edge">
<title>a5b4&#45;&gt;a4b5</title>
<path fill="none" stroke="black" d="M1016.8,-167C1026.99,-167 1039.22,-167 1050.3,-167"/>
<polygon fill="black" stroke="black" points="1050.46,-170.5 1060.46,-167 1050.46,-163.5 1050.46,-170.5"/>
<text text-anchor="middle" x="1038.69" y="-170.8" font-family="Times New Roman,serif" font-size="14.00">b</text>
</g>
<!-- a5b1&#45;&gt;a4b2 -->
<g id="edge26" class="edge">
<title>a5b1&#45;&gt;a4b2</title>
<path fill="none" stroke="black" d="M432.81,-240.65C424.16,-236.92 414.22,-232.2 405.71,-227 400.2,-223.63 394.58,-219.62 389.36,-215.59"/>
<polygon fill="black" stroke="black" points="391.54,-212.86 381.55,-209.35 387.17,-218.33 391.54,-212.86"/>
<text text-anchor="middle" x="409.71" y="-234.8" font-family="Times New Roman,serif" font-size="14.00">a</text>
</g>
<!-- a5b1&#45;&gt;a4b4 -->
<g id="edge27" class="edge">
<title>a5b1&#45;&gt;a4b4</title>
<path fill="none" stroke="black" d="M478.62,-249C488.81,-249 501.04,-249 512.11,-249"/>
<polygon fill="black" stroke="black" points="512.28,-252.5 522.28,-249 512.28,-245.5 512.28,-252.5"/>
<text text-anchor="middle" x="500.51" y="-252.8" font-family="Times New Roman,serif" font-size="14.00">b</text>
</g>
<!-- a5b3&#45;&gt;a4b4 -->
<g id="edge30" class="edge">
<title>a5b3&#45;&gt;a4b4</title>
<path fill="none" stroke="black" d="M609.99,-207.26C601.73,-206.44 592.42,-206.72 584.51,-210 577.21,-213.02 570.56,-218.15 564.91,-223.71"/>
<polygon fill="black" stroke="black" points="562.03,-221.67 557.84,-231.4 567.19,-226.4 562.03,-221.67"/>
<text text-anchor="middle" x="588.01" y="-213.8" font-family="Times New Roman,serif" font-size="14.00">a</text>
</g>
<!-- a5b3&#45;&gt;a4b6 -->
<g id="edge31" class="edge">
<title>a5b3&#45;&gt;a4b6</title>
<path fill="none" stroke="black" d="M656.41,-211.74C666.61,-211.63 678.83,-211.49 689.91,-211.36"/>
<polygon fill="black" stroke="black" points="690.11,-214.86 700.07,-211.24 690.03,-207.86 690.11,-214.86"/>
<text text-anchor="middle" x="678.3" y="-214.8" font-family="Times New Roman,serif" font-size="14.00">b</text>
</g>
<!-- a5b6&#45;&gt;a4b2 -->
<g id="edge37" class="edge">
<title>a5b6&#45;&gt;a4b2</title>
<path fill="none" stroke="black" d="M1157.78,-147.22C1143,-126.21 1116.11,-96 1083.69,-96 677.3,-96 677.3,-96 677.3,-96 595.92,-96 573.64,-99.05 496.51,-125 458.15,-137.91 417.58,-161.25 391.89,-177.41"/>
<polygon fill="black" stroke="black" points="389.67,-174.68 383.12,-183.01 393.44,-180.58 389.67,-174.68"/>
<text text-anchor="middle" x="766.3" y="-99.8" font-family="Times New Roman,serif" font-size="14.00">b</text>
</g>
<!-- a5b6&#45;&gt;a4b5 -->
<g id="edge36" class="edge">
<title>a5b6&#45;&gt;a4b5</title>
<path fill="none" stroke="black" d="M1151.61,-153.85C1143.01,-149.25 1132.54,-145.73 1122.69,-148 1118.95,-148.86 1115.15,-150.14 1111.46,-151.62"/>
<polygon fill="black" stroke="black" points="1109.73,-148.57 1102.09,-155.92 1112.64,-154.93 1109.73,-148.57"/>
<text text-anchor="middle" x="1126.19" y="-151.8" font-family="Times New Roman,serif" font-size="14.00">a</text>
</g>
<!-- a5b5&#45;&gt;a4b6 -->
<g id="edge34" class="edge">
<title>a5b5&#45;&gt;a4b6</title>
<path fill="none" stroke="black" d="M790.98,-250.49C779.13,-243.58 763.87,-234.68 750.85,-227.07"/>
<polygon fill="black" stroke="black" points="752.24,-223.83 741.84,-221.82 748.71,-229.88 752.24,-223.83"/>
<text text-anchor="middle" x="766.3" y="-241.8" font-family="Times New Roman,serif" font-size="14.00">a</text>
</g>
<!-- a5b5&#45;&gt;a4b1 -->
<g id="edge35" class="edge">
<title>a5b5&#45;&gt;a4b1</title>
<path fill="none" stroke="black" d="M835.39,-263.18C843.68,-262.94 853.01,-261.88 861.1,-259 866.38,-257.12 871.59,-254.32 876.42,-251.2"/>
<polygon fill="black" stroke="black" points="878.52,-254 884.63,-245.34 874.45,-248.3 878.52,-254"/>
<text text-anchor="middle" x="857.1" y="-264.8" font-family="Times New Roman,serif" font-size="14.00">b</text>
</g>
</g>
</svg>
