<?xml version="1.0" encoding="UTF-8" standalone="no"?>
<!DOCTYPE svg PUBLIC "-//W3C//DTD SVG 1.1//EN"
 "http://www.w3.org/Graphics/SVG/1.1/DTD/svg11.dtd">
<!-- Generated by graphviz version 3.0.0 (20220226.1711)
 -->
<!-- Pages: 1 -->
<svg width="389pt" height="106pt"
 viewBox="14.40 14.40 374.40 92.03" xmlns="http://www.w3.org/2000/svg" xmlns:xlink="http://www.w3.org/1999/xlink">
<g id="graph0" class="graph" transform="scale(0.430045 0.430045) rotate(0) translate(37.48 209.99)">
<polygon fill="white" stroke="transparent" points="-4,4 -4,-176.51 833.12,-176.51 833.12,4 -4,4"/>
<!-- 12 -->
<g id="node1" class="node">
<title>12</title>
<ellipse fill="none" stroke="black" cx="807.12" cy="-22" rx="18" ry="18"/>
<ellipse fill="none" stroke="black" cx="807.12" cy="-22" rx="22" ry="22"/>
<text text-anchor="middle" x="807.12" y="-18.3" font-family="Times New Roman,serif" font-size="14.00">12</text>
</g>
<!--   -->
<g id="node2" class="node">
<title> </title>
<ellipse fill="none" stroke="white" cx="20.51" cy="-22" rx="20.51" ry="20.51"/>
<text text-anchor="middle" x="20.51" y="-18.3" font-family="Times New Roman,serif" font-size="14.00"> </text>
</g>
<!-- 1 -->
<g id="node3" class="node">
<title>1</title>
<ellipse fill="none" stroke="black" cx="98.52" cy="-22" rx="20.51" ry="20.51"/>
<text text-anchor="middle" x="98.52" y="-18.3" font-family="Times New Roman,serif" font-size="14.00">1</text>
</g>
<!--  &#45;&gt;1 -->
<g id="edge1" class="edge">
<title> &#45;&gt;1</title>
<path fill="none" stroke="black" d="M41.08,-22C49.24,-22 58.89,-22 67.88,-22"/>
<polygon fill="black" stroke="black" points="68.01,-25.5 78.01,-22 68.01,-18.5 68.01,-25.5"/>
</g>
<!-- 2 -->
<g id="node4" class="node">
<title>2</title>
<ellipse fill="none" stroke="black" cx="182.53" cy="-70" rx="20.51" ry="20.51"/>
<text text-anchor="middle" x="182.53" y="-66.3" font-family="Times New Roman,serif" font-size="14.00">2</text>
</g>
<!-- 1&#45;&gt;2 -->
<g id="edge2" class="edge">
<title>1&#45;&gt;2</title>
<path fill="none" stroke="black" d="M116.51,-31.95C127.84,-38.57 142.94,-47.41 155.73,-54.9"/>
<polygon fill="black" stroke="black" points="154.16,-58.04 164.56,-60.07 157.7,-52 154.16,-58.04"/>
<text text-anchor="start" x="137.02" y="-51.8" font-family="Times New Roman,serif" font-size="14.00">λ</text>
</g>
<!-- 11 -->
<g id="node5" class="node">
<title>11</title>
<ellipse fill="none" stroke="black" cx="721.62" cy="-22" rx="20.51" ry="20.51"/>
<text text-anchor="middle" x="721.62" y="-18.3" font-family="Times New Roman,serif" font-size="14.00">11</text>
</g>
<!-- 1&#45;&gt;11 -->
<g id="edge3" class="edge">
<title>1&#45;&gt;11</title>
<path fill="none" stroke="black" d="M118.21,-16.22C134.7,-11.64 159.48,-6 181.53,-6 181.53,-6 181.53,-6 638.6,-6 656.52,-6 676.24,-9.72 691.85,-13.58"/>
<polygon fill="black" stroke="black" points="691.36,-17.07 701.92,-16.22 693.14,-10.3 691.36,-17.07"/>
<text text-anchor="start" x="389.56" y="-9.8" font-family="Times New Roman,serif" font-size="14.00">λ</text>
</g>
<!-- 3 -->
<g id="node6" class="node">
<title>3</title>
<ellipse fill="none" stroke="black" cx="266.54" cy="-152" rx="20.51" ry="20.51"/>
<text text-anchor="middle" x="266.54" y="-148.3" font-family="Times New Roman,serif" font-size="14.00">3</text>
</g>
<!-- 2&#45;&gt;3 -->
<g id="edge4" class="edge">
<title>2&#45;&gt;3</title>
<path fill="none" stroke="black" d="M197.82,-84.28C210.63,-97.1 229.62,-116.09 244.23,-130.7"/>
<polygon fill="black" stroke="black" points="241.87,-133.28 251.42,-137.88 246.82,-128.33 241.87,-133.28"/>
<text text-anchor="start" x="221.04" y="-116.8" font-family="Times New Roman,serif" font-size="14.00">λ</text>
</g>
<!-- 4 -->
<g id="node7" class="node">
<title>4</title>
<ellipse fill="none" stroke="black" cx="266.54" cy="-93" rx="20.51" ry="20.51"/>
<text text-anchor="middle" x="266.54" y="-89.3" font-family="Times New Roman,serif" font-size="14.00">4</text>
</g>
<!-- 2&#45;&gt;4 -->
<g id="edge5" class="edge">
<title>2&#45;&gt;4</title>
<path fill="none" stroke="black" d="M202.55,-75.33C212.7,-78.18 225.39,-81.74 236.72,-84.92"/>
<polygon fill="black" stroke="black" points="236.05,-88.36 246.62,-87.69 237.94,-81.62 236.05,-88.36"/>
<text text-anchor="start" x="221.04" y="-85.8" font-family="Times New Roman,serif" font-size="14.00">λ</text>
</g>
<!-- 11&#45;&gt;12 -->
<g id="edge15" class="edge">
<title>11&#45;&gt;12</title>
<path fill="none" stroke="black" d="M742.41,-22C752.13,-22 764.07,-22 774.98,-22"/>
<polygon fill="black" stroke="black" points="775.01,-25.5 785.01,-22 775.01,-18.5 775.01,-25.5"/>
<text text-anchor="middle" x="763.62" y="-25.8" font-family="Times New Roman,serif" font-size="14.00">a</text>
</g>
<!-- 5 -->
<g id="node8" class="node">
<title>5</title>
<ellipse fill="none" stroke="black" cx="350.55" cy="-152" rx="20.51" ry="20.51"/>
<text text-anchor="middle" x="350.55" y="-148.3" font-family="Times New Roman,serif" font-size="14.00">5</text>
</g>
<!-- 3&#45;&gt;5 -->
<g id="edge6" class="edge">
<title>3&#45;&gt;5</title>
<path fill="none" stroke="black" d="M287.4,-152C297.07,-152 308.9,-152 319.63,-152"/>
<polygon fill="black" stroke="black" points="319.88,-155.5 329.88,-152 319.88,-148.5 319.88,-155.5"/>
<text text-anchor="middle" x="308.55" y="-155.8" font-family="Times New Roman,serif" font-size="14.00">a</text>
</g>
<!-- 6 -->
<g id="node11" class="node">
<title>6</title>
<ellipse fill="none" stroke="black" cx="350.55" cy="-93" rx="20.51" ry="20.51"/>
<text text-anchor="middle" x="350.55" y="-89.3" font-family="Times New Roman,serif" font-size="14.00">6</text>
</g>
<!-- 4&#45;&gt;6 -->
<g id="edge9" class="edge">
<title>4&#45;&gt;6</title>
<path fill="none" stroke="black" d="M287.4,-93C297.07,-93 308.9,-93 319.63,-93"/>
<polygon fill="black" stroke="black" points="319.88,-96.5 329.88,-93 319.88,-89.5 319.88,-96.5"/>
<text text-anchor="middle" x="308.55" y="-96.8" font-family="Times New Roman,serif" font-size="14.00">a</text>
</g>
<!-- 7 -->
<g id="node9" class="node">
<title>7</title>
<ellipse fill="none" stroke="black" cx="494.58" cy="-151" rx="20.51" ry="20.51"/>
<text text-anchor="middle" x="494.58" y="-147.3" font-family="Times New Roman,serif" font-size="14.00">7</text>
</g>
<!-- 5&#45;&gt;7 -->
<g id="edge7" class="edge">
<title>5&#45;&gt;7</title>
<path fill="none" stroke="black" d="M371.3,-151.86C395.26,-151.69 435.88,-151.41 463.68,-151.21"/>
<polygon fill="black" stroke="black" points="464.02,-154.71 474,-151.14 463.97,-147.71 464.02,-154.71"/>
<text text-anchor="middle" x="393.06" y="-154.8" font-family="Times New Roman,serif" font-size="14.00">b</text>
</g>
<!-- 10 -->
<g id="node10" class="node">
<title>10</title>
<ellipse fill="none" stroke="black" cx="637.6" cy="-74" rx="20.51" ry="20.51"/>
<text text-anchor="middle" x="637.6" y="-70.3" font-family="Times New Roman,serif" font-size="14.00">10</text>
</g>
<!-- 7&#45;&gt;10 -->
<g id="edge8" class="edge">
<title>7&#45;&gt;10</title>
<path fill="none" stroke="black" d="M514.71,-146.06C531.08,-141.39 554.96,-133.55 574.1,-123 588.48,-115.07 603.01,-103.92 614.43,-94.25"/>
<polygon fill="black" stroke="black" points="616.9,-96.74 622.16,-87.55 612.31,-91.46 616.9,-96.74"/>
<text text-anchor="start" x="550.09" y="-143.8" font-family="Times New Roman,serif" font-size="14.00">λ</text>
</g>
<!-- 10&#45;&gt;2 -->
<g id="edge14" class="edge">
<title>10&#45;&gt;2</title>
<path fill="none" stroke="black" d="M619.66,-63.84C603.52,-55.14 578.24,-44 554.59,-44 265.54,-44 265.54,-44 265.54,-44 246.67,-44 226.46,-50.33 210.82,-56.75"/>
<polygon fill="black" stroke="black" points="209.03,-53.71 201.26,-60.91 211.83,-60.12 209.03,-53.71"/>
<text text-anchor="start" x="389.56" y="-47.8" font-family="Times New Roman,serif" font-size="14.00">λ</text>
</g>
<!-- 10&#45;&gt;11 -->
<g id="edge13" class="edge">
<title>10&#45;&gt;11</title>
<path fill="none" stroke="black" d="M655.6,-63.23C667.11,-55.93 682.52,-46.15 695.45,-37.96"/>
<polygon fill="black" stroke="black" points="697.35,-40.89 703.93,-32.58 693.61,-34.98 697.35,-40.89"/>
<text text-anchor="start" x="676.11" y="-53.8" font-family="Times New Roman,serif" font-size="14.00">λ</text>
</g>
<!-- 8 -->
<g id="node12" class="node">
<title>8</title>
<ellipse fill="none" stroke="black" cx="435.57" cy="-93" rx="20.51" ry="20.51"/>
<text text-anchor="middle" x="435.57" y="-89.3" font-family="Times New Roman,serif" font-size="14.00">8</text>
</g>
<!-- 6&#45;&gt;8 -->
<g id="edge10" class="edge">
<title>6&#45;&gt;8</title>
<path fill="none" stroke="black" d="M371.23,-93C381.26,-93 393.66,-93 404.83,-93"/>
<polygon fill="black" stroke="black" points="405.04,-96.5 415.04,-93 405.04,-89.5 405.04,-96.5"/>
<text text-anchor="middle" x="393.06" y="-96.8" font-family="Times New Roman,serif" font-size="14.00">b</text>
</g>
<!-- 9 -->
<g id="node13" class="node">
<title>9</title>
<ellipse fill="none" stroke="black" cx="553.59" cy="-93" rx="20.51" ry="20.51"/>
<text text-anchor="middle" x="553.59" y="-89.3" font-family="Times New Roman,serif" font-size="14.00">9</text>
</g>
<!-- 8&#45;&gt;9 -->
<g id="edge11" class="edge">
<title>8&#45;&gt;9</title>
<path fill="none" stroke="black" d="M456.25,-93C474.42,-93 501.66,-93 522.55,-93"/>
<polygon fill="black" stroke="black" points="522.81,-96.5 532.81,-93 522.81,-89.5 522.81,-96.5"/>
<text text-anchor="middle" x="494.58" y="-96.8" font-family="Times New Roman,serif" font-size="14.00">a</text>
</g>
<!-- 9&#45;&gt;10 -->
<g id="edge12" class="edge">
<title>9&#45;&gt;10</title>
<path fill="none" stroke="black" d="M574.03,-88.5C584.04,-86.18 596.44,-83.3 607.56,-80.73"/>
<polygon fill="black" stroke="black" points="608.36,-84.14 617.31,-78.47 606.78,-77.32 608.36,-84.14"/>
<text text-anchor="start" x="592.1" y="-87.8" font-family="Times New Roman,serif" font-size="14.00">λ</text>
</g>
</g>
</svg>
