<?xml version="1.0" encoding="UTF-8" standalone="no"?>
<!DOCTYPE svg PUBLIC "-//W3C//DTD SVG 1.1//EN"
 "http://www.w3.org/Graphics/SVG/1.1/DTD/svg11.dtd">
<!-- Generated by graphviz version 3.0.0 (20220226.1711)
 -->
<!-- Pages: 1 -->
<svg width="389pt" height="111pt"
 viewBox="14.40 14.40 374.40 96.72" xmlns="http://www.w3.org/2000/svg" xmlns:xlink="http://www.w3.org/1999/xlink">
<g id="graph0" class="graph" transform="scale(0.930145 0.930145) rotate(0) translate(19.48 99.99)">
<polygon fill="white" stroke="transparent" points="-4,4 -4,-84.51 383.04,-84.51 383.04,4 -4,4"/>
<!-- 2 -->
<g id="node1" class="node">
<title>2</title>
<ellipse fill="none" stroke="black" cx="184.02" cy="-22" rx="18" ry="18"/>
<ellipse fill="none" stroke="black" cx="184.02" cy="-22" rx="22" ry="22"/>
<text text-anchor="middle" x="184.02" y="-18.3" font-family="Times New Roman,serif" font-size="14.00">2</text>
</g>
<!-- 3 -->
<g id="node5" class="node">
<title>3</title>
<ellipse fill="none" stroke="black" cx="270.53" cy="-60" rx="20.51" ry="20.51"/>
<text text-anchor="middle" x="270.53" y="-56.3" font-family="Times New Roman,serif" font-size="14.00">3</text>
</g>
<!-- 2&#45;&gt;3 -->
<g id="edge3" class="edge">
<title>2&#45;&gt;3</title>
<path fill="none" stroke="black" d="M204.62,-30.81C215.78,-35.83 229.93,-42.19 242.17,-47.7"/>
<polygon fill="black" stroke="black" points="240.92,-50.97 251.48,-51.88 243.79,-44.59 240.92,-50.97"/>
<text text-anchor="middle" x="228.02" y="-46.8" font-family="Times New Roman,serif" font-size="14.00">b</text>
</g>
<!-- 4 -->
<g id="node2" class="node">
<title>4</title>
<ellipse fill="none" stroke="black" cx="357.04" cy="-39" rx="18" ry="18"/>
<ellipse fill="none" stroke="black" cx="357.04" cy="-39" rx="22" ry="22"/>
<text text-anchor="middle" x="357.04" y="-35.3" font-family="Times New Roman,serif" font-size="14.00">4</text>
</g>
<!-- 4&#45;&gt;2 -->
<g id="edge6" class="edge">
<title>4&#45;&gt;2</title>
<path fill="none" stroke="black" d="M336.91,-29.9C324.22,-24.38 307.02,-17.86 291.04,-15 266.03,-10.53 237.24,-12.9 215.99,-16.04"/>
<polygon fill="black" stroke="black" points="215.22,-12.61 205.91,-17.67 216.34,-19.52 215.22,-12.61"/>
<text text-anchor="middle" x="270.53" y="-18.8" font-family="Times New Roman,serif" font-size="14.00">a</text>
</g>
<!-- 4&#45;&gt;3 -->
<g id="edge5" class="edge">
<title>4&#45;&gt;3</title>
<path fill="none" stroke="black" d="M335.11,-34.61C326.84,-33.66 317.35,-33.57 309.04,-36 304.49,-37.33 299.97,-39.4 295.73,-41.78"/>
<polygon fill="black" stroke="black" points="293.56,-39.01 286.97,-47.31 297.29,-44.93 293.56,-39.01"/>
<text text-anchor="middle" x="313.04" y="-39.8" font-family="Times New Roman,serif" font-size="14.00">b</text>
</g>
<!--   -->
<g id="node3" class="node">
<title> </title>
<ellipse fill="none" stroke="white" cx="20.51" cy="-22" rx="20.51" ry="20.51"/>
<text text-anchor="middle" x="20.51" y="-18.3" font-family="Times New Roman,serif" font-size="14.00"> </text>
</g>
<!-- 1 -->
<g id="node4" class="node">
<title>1</title>
<ellipse fill="none" stroke="black" cx="98.52" cy="-22" rx="20.51" ry="20.51"/>
<text text-anchor="middle" x="98.52" y="-18.3" font-family="Times New Roman,serif" font-size="14.00">1</text>
</g>
<!--  &#45;&gt;1 -->
<g id="edge1" class="edge">
<title> &#45;&gt;1</title>
<path fill="none" stroke="black" d="M41.08,-22C49.24,-22 58.89,-22 67.88,-22"/>
<polygon fill="black" stroke="black" points="68.01,-25.5 78.01,-22 68.01,-18.5 68.01,-25.5"/>
</g>
<!-- 1&#45;&gt;2 -->
<g id="edge2" class="edge">
<title>1&#45;&gt;2</title>
<path fill="none" stroke="black" d="M119.31,-22C129.03,-22 140.97,-22 151.88,-22"/>
<polygon fill="black" stroke="black" points="151.92,-25.5 161.92,-22 151.92,-18.5 151.92,-25.5"/>
<text text-anchor="middle" x="140.52" y="-25.8" font-family="Times New Roman,serif" font-size="14.00">a</text>
</g>
<!-- 3&#45;&gt;4 -->
<g id="edge4" class="edge">
<title>3&#45;&gt;4</title>
<path fill="none" stroke="black" d="M291.23,-59.04C299.32,-58.34 308.72,-57.12 317.04,-55 320.47,-54.12 324.01,-53.01 327.48,-51.77"/>
<polygon fill="black" stroke="black" points="328.91,-54.97 336.96,-48.07 326.37,-48.45 328.91,-54.97"/>
<text text-anchor="middle" x="313.04" y="-59.8" font-family="Times New Roman,serif" font-size="14.00">a</text>
</g>
</g>
</svg>
