<?xml version="1.0" encoding="UTF-8" standalone="no"?>
<!DOCTYPE svg PUBLIC "-//W3C//DTD SVG 1.1//EN"
 "http://www.w3.org/Graphics/SVG/1.1/DTD/svg11.dtd">
<!-- Generated by graphviz version 3.0.0 (20220226.1711)
 -->
<!-- Pages: 1 -->
<svg width="389pt" height="224pt"
 viewBox="14.40 14.40 374.40 209.23" xmlns="http://www.w3.org/2000/svg" xmlns:xlink="http://www.w3.org/1999/xlink">
<g id="graph0" class="graph" transform="scale(0.761001 0.761001) rotate(0) translate(22.92 270.93)">
<polygon fill="white" stroke="transparent" points="-4,4 -4,-252.01 469.06,-252.01 469.06,4 -4,4"/>
<!-- 9 -->
<g id="node1" class="node">
<title>9</title>
<ellipse fill="none" stroke="black" cx="106.01" cy="-113.51" rx="18" ry="18"/>
<ellipse fill="none" stroke="black" cx="106.01" cy="-113.51" rx="22" ry="22"/>
<text text-anchor="middle" x="106.01" y="-109.81" font-family="Times New Roman,serif" font-size="14.00">9</text>
</g>
<!--   -->
<g id="node2" class="node">
<title> </title>
<ellipse fill="none" stroke="white" cx="20.51" cy="-52.51" rx="20.51" ry="20.51"/>
<text text-anchor="middle" x="20.51" y="-48.81" font-family="Times New Roman,serif" font-size="14.00"> </text>
</g>
<!-- 1 -->
<g id="node3" class="node">
<title>1</title>
<ellipse fill="none" stroke="black" cx="106.01" cy="-52.51" rx="20.51" ry="20.51"/>
<text text-anchor="middle" x="106.01" y="-48.81" font-family="Times New Roman,serif" font-size="14.00">1</text>
</g>
<!--  &#45;&gt;1 -->
<g id="edge1" class="edge">
<title> &#45;&gt;1</title>
<path fill="none" stroke="black" d="M41.3,-52.51C51.38,-52.51 63.86,-52.51 75.1,-52.51"/>
<polygon fill="black" stroke="black" points="75.36,-56.01 85.36,-52.51 75.36,-49.01 75.36,-56.01"/>
</g>
<!-- 2 -->
<g id="node4" class="node">
<title>2</title>
<ellipse fill="none" stroke="black" cx="191.52" cy="-99.51" rx="20.51" ry="20.51"/>
<text text-anchor="middle" x="191.52" y="-95.81" font-family="Times New Roman,serif" font-size="14.00">2</text>
</g>
<!-- 1&#45;&gt;2 -->
<g id="edge2" class="edge">
<title>1&#45;&gt;2</title>
<path fill="none" stroke="black" d="M126.64,-54.85C135.13,-56.44 144.94,-59.1 153.01,-63.51 159.29,-66.94 165.28,-71.69 170.55,-76.63"/>
<polygon fill="black" stroke="black" points="168.19,-79.22 177.72,-83.85 173.16,-74.29 168.19,-79.22"/>
<text text-anchor="middle" x="149.51" y="-67.31" font-family="Times New Roman,serif" font-size="14.00">a</text>
</g>
<!-- 3 -->
<g id="node5" class="node">
<title>3</title>
<ellipse fill="none" stroke="black" cx="275.53" cy="-80.51" rx="20.51" ry="20.51"/>
<text text-anchor="middle" x="275.53" y="-76.81" font-family="Times New Roman,serif" font-size="14.00">3</text>
</g>
<!-- 2&#45;&gt;3 -->
<g id="edge3" class="edge">
<title>2&#45;&gt;3</title>
<path fill="none" stroke="black" d="M211.95,-95C221.96,-92.68 234.37,-89.81 245.49,-87.23"/>
<polygon fill="black" stroke="black" points="246.28,-90.64 255.23,-84.98 244.7,-83.82 246.28,-90.64"/>
<text text-anchor="middle" x="233.52" y="-95.31" font-family="Times New Roman,serif" font-size="14.00">a</text>
</g>
<!-- 6 -->
<g id="node6" class="node">
<title>6</title>
<ellipse fill="none" stroke="black" cx="106.01" cy="-174.51" rx="20.51" ry="20.51"/>
<text text-anchor="middle" x="106.01" y="-170.81" font-family="Times New Roman,serif" font-size="14.00">6</text>
</g>
<!-- 2&#45;&gt;6 -->
<g id="edge4" class="edge">
<title>2&#45;&gt;6</title>
<path fill="none" stroke="black" d="M170.81,-97.06C162.47,-97.03 153.07,-98.43 146.01,-103.51 129.85,-115.12 137.77,-127.16 128.01,-144.51 127.03,-146.25 125.97,-148.02 124.87,-149.78"/>
<polygon fill="black" stroke="black" points="121.78,-148.11 119.17,-158.38 127.61,-151.98 121.78,-148.11"/>
<text text-anchor="start" x="146.01" y="-107.31" font-family="Times New Roman,serif" font-size="14.00">λ</text>
</g>
<!-- 4 -->
<g id="node7" class="node">
<title>4</title>
<ellipse fill="none" stroke="black" cx="359.54" cy="-20.51" rx="20.51" ry="20.51"/>
<text text-anchor="middle" x="359.54" y="-16.81" font-family="Times New Roman,serif" font-size="14.00">4</text>
</g>
<!-- 3&#45;&gt;4 -->
<g id="edge5" class="edge">
<title>3&#45;&gt;4</title>
<path fill="none" stroke="black" d="M291.45,-66.91C298.17,-61.02 306.31,-54.18 314.04,-48.51 319.87,-44.22 326.36,-39.9 332.53,-35.98"/>
<polygon fill="black" stroke="black" points="334.6,-38.82 341.25,-30.58 330.91,-32.87 334.6,-38.82"/>
<text text-anchor="middle" x="317.54" y="-52.31" font-family="Times New Roman,serif" font-size="14.00">a</text>
</g>
<!-- 5 -->
<g id="node8" class="node">
<title>5</title>
<ellipse fill="none" stroke="black" cx="444.55" cy="-102.51" rx="20.51" ry="20.51"/>
<text text-anchor="middle" x="444.55" y="-98.81" font-family="Times New Roman,serif" font-size="14.00">5</text>
</g>
<!-- 3&#45;&gt;5 -->
<g id="edge6" class="edge">
<title>3&#45;&gt;5</title>
<path fill="none" stroke="black" d="M296.04,-82.19C316.88,-84.09 350.87,-87.43 380.05,-91.51 391.19,-93.06 403.37,-95.09 414.05,-96.98"/>
<polygon fill="black" stroke="black" points="413.69,-100.47 424.15,-98.8 414.93,-93.58 413.69,-100.47"/>
<text text-anchor="start" x="356.04" y="-95.31" font-family="Times New Roman,serif" font-size="14.00">λ</text>
</g>
<!-- 6&#45;&gt;2 -->
<g id="edge10" class="edge">
<title>6&#45;&gt;2</title>
<path fill="none" stroke="black" d="M121.94,-161.1C134.77,-149.58 153.45,-132.8 168.07,-119.67"/>
<polygon fill="black" stroke="black" points="170.62,-122.08 175.72,-112.8 165.94,-116.88 170.62,-122.08"/>
<text text-anchor="start" x="146.01" y="-143.31" font-family="Times New Roman,serif" font-size="14.00">λ</text>
</g>
<!-- 8 -->
<g id="node9" class="node">
<title>8</title>
<ellipse fill="none" stroke="black" cx="20.51" cy="-176.51" rx="20.51" ry="20.51"/>
<text text-anchor="middle" x="20.51" y="-172.81" font-family="Times New Roman,serif" font-size="14.00">8</text>
</g>
<!-- 6&#45;&gt;8 -->
<g id="edge11" class="edge">
<title>6&#45;&gt;8</title>
<path fill="none" stroke="black" d="M88.24,-163.85C79.63,-159.63 68.91,-156.25 59.01,-158.51 55.27,-159.36 51.47,-160.63 47.79,-162.11"/>
<polygon fill="black" stroke="black" points="46.1,-159.04 38.47,-166.39 49.02,-165.4 46.1,-159.04"/>
<text text-anchor="start" x="59.01" y="-162.31" font-family="Times New Roman,serif" font-size="14.00">λ</text>
</g>
<!-- 7 -->
<g id="node10" class="node">
<title>7</title>
<ellipse fill="none" stroke="black" cx="191.52" cy="-227.51" rx="20.51" ry="20.51"/>
<text text-anchor="middle" x="191.52" y="-223.81" font-family="Times New Roman,serif" font-size="14.00">7</text>
</g>
<!-- 6&#45;&gt;7 -->
<g id="edge12" class="edge">
<title>6&#45;&gt;7</title>
<path fill="none" stroke="black" d="M123.91,-185.23C135.68,-192.7 151.6,-202.8 164.92,-211.26"/>
<polygon fill="black" stroke="black" points="163.33,-214.39 173.64,-216.8 167.08,-208.48 163.33,-214.39"/>
<text text-anchor="middle" x="149.51" y="-207.31" font-family="Times New Roman,serif" font-size="14.00">a</text>
</g>
<!-- 4&#45;&gt;5 -->
<g id="edge7" class="edge">
<title>4&#45;&gt;5</title>
<path fill="none" stroke="black" d="M378.58,-29.34C387.46,-34.23 397.96,-40.86 406.05,-48.51 414.53,-56.53 422.22,-66.77 428.4,-76.16"/>
<polygon fill="black" stroke="black" points="425.56,-78.21 433.84,-84.82 431.48,-74.49 425.56,-78.21"/>
<text text-anchor="middle" x="402.05" y="-52.31" font-family="Times New Roman,serif" font-size="14.00">b</text>
</g>
<!-- 5&#45;&gt;3 -->
<g id="edge8" class="edge">
<title>5&#45;&gt;3</title>
<path fill="none" stroke="black" d="M424.18,-106.83C418.38,-107.93 411.98,-108.96 406.05,-109.51 365.04,-113.3 352.31,-113.73 314.04,-98.51 310.54,-97.12 306.92,-95.55 303.36,-93.93"/>
<polygon fill="black" stroke="black" points="304.78,-90.73 294.24,-89.62 301.79,-97.06 304.78,-90.73"/>
<text text-anchor="start" x="356.04" y="-116.31" font-family="Times New Roman,serif" font-size="14.00">λ</text>
</g>
<!-- 5&#45;&gt;6 -->
<g id="edge9" class="edge">
<title>5&#45;&gt;6</title>
<path fill="none" stroke="black" d="M433.02,-119.92C419.17,-140.36 392.78,-171.51 360.54,-171.51 190.52,-171.51 190.52,-171.51 190.52,-171.51 172.72,-171.51 152.8,-172.2 136.88,-172.91"/>
<polygon fill="black" stroke="black" points="136.4,-169.43 126.58,-173.41 136.73,-176.42 136.4,-169.43"/>
<text text-anchor="middle" x="275.53" y="-175.31" font-family="Times New Roman,serif" font-size="14.00">b</text>
</g>
<!-- 8&#45;&gt;9 -->
<g id="edge15" class="edge">
<title>8&#45;&gt;9</title>
<path fill="none" stroke="black" d="M34.94,-161.51C41.76,-154.38 50.4,-146.01 59.01,-139.51 64.62,-135.27 70.99,-131.25 77.16,-127.68"/>
<polygon fill="black" stroke="black" points="78.9,-130.72 85.96,-122.82 75.51,-124.59 78.9,-130.72"/>
<text text-anchor="middle" x="62.51" y="-143.31" font-family="Times New Roman,serif" font-size="14.00">a</text>
</g>
<!-- 8&#45;&gt;6 -->
<g id="edge14" class="edge">
<title>8&#45;&gt;6</title>
<path fill="none" stroke="black" d="M41.3,-176.03C51.38,-175.79 63.86,-175.49 75.1,-175.22"/>
<polygon fill="black" stroke="black" points="75.45,-178.72 85.36,-174.98 75.28,-171.72 75.45,-178.72"/>
<text text-anchor="start" x="59.01" y="-180.31" font-family="Times New Roman,serif" font-size="14.00">λ</text>
</g>
<!-- 7&#45;&gt;8 -->
<g id="edge13" class="edge">
<title>7&#45;&gt;8</title>
<path fill="none" stroke="black" d="M171.14,-224.88C144.9,-220.87 96.99,-211.89 59.01,-195.51 55.35,-193.93 51.54,-192.15 47.81,-190.34"/>
<polygon fill="black" stroke="black" points="49.36,-187.2 38.85,-185.85 46.22,-193.46 49.36,-187.2"/>
<text text-anchor="middle" x="106.01" y="-221.31" font-family="Times New Roman,serif" font-size="14.00">b</text>
</g>
</g>
</svg>
