<?xml version="1.0" encoding="UTF-8" standalone="no"?>
<!DOCTYPE svg PUBLIC "-//W3C//DTD SVG 1.1//EN"
 "http://www.w3.org/Graphics/SVG/1.1/DTD/svg11.dtd">
<!-- Generated by graphviz version 3.0.0 (20220226.1711)
 -->
<!-- Pages: 1 -->
<svg width="389pt" height="88pt"
 viewBox="14.40 14.40 374.40 73.89" xmlns="http://www.w3.org/2000/svg" xmlns:xlink="http://www.w3.org/1999/xlink">
<g id="graph0" class="graph" transform="scale(0.767491 0.767491) rotate(0) translate(22.76 92.27)">
<polygon fill="white" stroke="transparent" points="-4,4 -4,-73.51 465.06,-73.51 465.06,4 -4,4"/>
<!-- 2 -->
<g id="node1" class="node">
<title>2</title>
<ellipse fill="none" stroke="black" cx="184.02" cy="-22" rx="18" ry="18"/>
<ellipse fill="none" stroke="black" cx="184.02" cy="-22" rx="22" ry="22"/>
<text text-anchor="middle" x="184.02" y="-18.3" font-family="Times New Roman,serif" font-size="14.00">2</text>
</g>
<!-- 3 -->
<g id="node4" class="node">
<title>3</title>
<ellipse fill="none" stroke="black" cx="270.53" cy="-49" rx="20.51" ry="20.51"/>
<text text-anchor="middle" x="270.53" y="-45.3" font-family="Times New Roman,serif" font-size="14.00">3</text>
</g>
<!-- 2&#45;&gt;3 -->
<g id="edge3" class="edge">
<title>2&#45;&gt;3</title>
<path fill="none" stroke="black" d="M204.65,-30.73C210.78,-33.28 217.62,-35.93 224.02,-38 229.21,-39.68 234.8,-41.23 240.22,-42.61"/>
<polygon fill="black" stroke="black" points="239.77,-46.1 250.31,-45.04 241.4,-39.3 239.77,-46.1"/>
<text text-anchor="middle" x="228.02" y="-44.8" font-family="Times New Roman,serif" font-size="14.00">a</text>
</g>
<!--   -->
<g id="node2" class="node">
<title> </title>
<ellipse fill="none" stroke="white" cx="20.51" cy="-22" rx="20.51" ry="20.51"/>
<text text-anchor="middle" x="20.51" y="-18.3" font-family="Times New Roman,serif" font-size="14.00"> </text>
</g>
<!-- 1 -->
<g id="node3" class="node">
<title>1</title>
<ellipse fill="none" stroke="black" cx="98.52" cy="-22" rx="20.51" ry="20.51"/>
<text text-anchor="middle" x="98.52" y="-18.3" font-family="Times New Roman,serif" font-size="14.00">1</text>
</g>
<!--  &#45;&gt;1 -->
<g id="edge1" class="edge">
<title> &#45;&gt;1</title>
<path fill="none" stroke="black" d="M41.08,-22C49.24,-22 58.89,-22 67.88,-22"/>
<polygon fill="black" stroke="black" points="68.01,-25.5 78.01,-22 68.01,-18.5 68.01,-25.5"/>
</g>
<!-- 1&#45;&gt;2 -->
<g id="edge2" class="edge">
<title>1&#45;&gt;2</title>
<path fill="none" stroke="black" d="M119.31,-22C129.03,-22 140.97,-22 151.88,-22"/>
<polygon fill="black" stroke="black" points="151.92,-25.5 161.92,-22 151.92,-18.5 151.92,-25.5"/>
<text text-anchor="middle" x="140.52" y="-25.8" font-family="Times New Roman,serif" font-size="14.00">a</text>
</g>
<!-- 3&#45;&gt;2 -->
<g id="edge4" class="edge">
<title>3&#45;&gt;2</title>
<path fill="none" stroke="black" d="M255.99,-34.45C249.41,-28.44 240.99,-22.15 232.02,-19 226.95,-17.22 221.37,-16.55 215.9,-16.54"/>
<polygon fill="black" stroke="black" points="215.38,-13.07 205.63,-17.22 215.84,-20.06 215.38,-13.07"/>
<text text-anchor="middle" x="228.02" y="-22.8" font-family="Times New Roman,serif" font-size="14.00">b</text>
</g>
<!-- 4 -->
<g id="node5" class="node">
<title>4</title>
<ellipse fill="none" stroke="black" cx="355.54" cy="-49" rx="20.51" ry="20.51"/>
<text text-anchor="middle" x="355.54" y="-45.3" font-family="Times New Roman,serif" font-size="14.00">4</text>
</g>
<!-- 3&#45;&gt;4 -->
<g id="edge5" class="edge">
<title>3&#45;&gt;4</title>
<path fill="none" stroke="black" d="M291.2,-49C301.23,-49 313.64,-49 324.8,-49"/>
<polygon fill="black" stroke="black" points="325.01,-52.5 335.01,-49 325.01,-45.5 325.01,-52.5"/>
<text text-anchor="middle" x="313.04" y="-52.8" font-family="Times New Roman,serif" font-size="14.00">a</text>
</g>
<!-- 5 -->
<g id="node6" class="node">
<title>5</title>
<ellipse fill="none" stroke="black" cx="440.55" cy="-22" rx="20.51" ry="20.51"/>
<text text-anchor="middle" x="440.55" y="-18.3" font-family="Times New Roman,serif" font-size="14.00">5</text>
</g>
<!-- 4&#45;&gt;5 -->
<g id="edge6" class="edge">
<title>4&#45;&gt;5</title>
<path fill="none" stroke="black" d="M375.78,-45.09C383.97,-43.24 393.56,-40.81 402.05,-38 405.37,-36.9 408.82,-35.62 412.21,-34.28"/>
<polygon fill="black" stroke="black" points="413.58,-37.5 421.48,-30.43 410.9,-31.04 413.58,-37.5"/>
<text text-anchor="middle" x="398.05" y="-44.8" font-family="Times New Roman,serif" font-size="14.00">b</text>
</g>
<!-- 5&#45;&gt;2 -->
<g id="edge8" class="edge">
<title>5&#45;&gt;2</title>
<path fill="none" stroke="black" d="M420.6,-17.15C414.7,-15.86 408.14,-14.64 402.05,-14 323.36,-5.7 302.74,-6.01 224.02,-14 221.28,-14.28 218.45,-14.66 215.62,-15.12"/>
<polygon fill="black" stroke="black" points="214.75,-11.72 205.55,-16.98 216.02,-18.6 214.75,-11.72"/>
<text text-anchor="middle" x="313.04" y="-11.8" font-family="Times New Roman,serif" font-size="14.00">b</text>
</g>
<!-- 5&#45;&gt;4 -->
<g id="edge7" class="edge">
<title>5&#45;&gt;4</title>
<path fill="none" stroke="black" d="M420.5,-17.43C412.17,-16.27 402.42,-16.07 394.05,-19 388.3,-21.02 382.78,-24.32 377.83,-28.02"/>
<polygon fill="black" stroke="black" points="375.54,-25.37 370.08,-34.45 380.01,-30.76 375.54,-25.37"/>
<text text-anchor="middle" x="398.05" y="-22.8" font-family="Times New Roman,serif" font-size="14.00">a</text>
</g>
</g>
</svg>
