<?xml version="1.0" encoding="UTF-8" standalone="no"?>
<!DOCTYPE svg PUBLIC "-//W3C//DTD SVG 1.1//EN"
 "http://www.w3.org/Graphics/SVG/1.1/DTD/svg11.dtd">
<!-- Generated by graphviz version 3.0.0 (20220226.1711)
 -->
<!-- Pages: 1 -->
<svg width="389pt" height="114pt"
 viewBox="14.40 14.40 374.40 99.20" xmlns="http://www.w3.org/2000/svg" xmlns:xlink="http://www.w3.org/1999/xlink">
<g id="graph0" class="graph" transform="scale(0.471137 0.471137) rotate(0) translate(34.56 206.56)">
<polygon fill="white" stroke="transparent" points="-4,4 -4,-176 760.11,-176 760.11,4 -4,4"/>
<!-- 10 -->
<g id="node1" class="node">
<title>10</title>
<ellipse fill="none" stroke="black" cx="734.11" cy="-133" rx="18" ry="18"/>
<ellipse fill="none" stroke="black" cx="734.11" cy="-133" rx="22" ry="22"/>
<text text-anchor="middle" x="734.11" y="-129.3" font-family="Times New Roman,serif" font-size="14.00">10</text>
</g>
<!--   -->
<g id="node2" class="node">
<title> </title>
<ellipse fill="none" stroke="white" cx="20.51" cy="-116" rx="20.51" ry="20.51"/>
<text text-anchor="middle" x="20.51" y="-112.3" font-family="Times New Roman,serif" font-size="14.00"> </text>
</g>
<!-- 1 -->
<g id="node3" class="node">
<title>1</title>
<ellipse fill="none" stroke="black" cx="98.52" cy="-116" rx="20.51" ry="20.51"/>
<text text-anchor="middle" x="98.52" y="-112.3" font-family="Times New Roman,serif" font-size="14.00">1</text>
</g>
<!--  &#45;&gt;1 -->
<g id="edge1" class="edge">
<title> &#45;&gt;1</title>
<path fill="none" stroke="black" d="M41.08,-116C49.24,-116 58.89,-116 67.88,-116"/>
<polygon fill="black" stroke="black" points="68.01,-119.5 78.01,-116 68.01,-112.5 68.01,-119.5"/>
</g>
<!-- 1&#45;&gt;10 -->
<g id="edge3" class="edge">
<title>1&#45;&gt;10</title>
<path fill="none" stroke="black" d="M114.72,-128.97C130.39,-140.98 156.06,-157 181.53,-157 181.53,-157 181.53,-157 649.6,-157 668.16,-157 688.17,-151.46 703.95,-145.7"/>
<polygon fill="black" stroke="black" points="705.59,-148.81 713.65,-141.94 703.06,-142.29 705.59,-148.81"/>
<text text-anchor="start" x="417.07" y="-160.8" font-family="Times New Roman,serif" font-size="14.00">λ</text>
</g>
<!-- 2 -->
<g id="node4" class="node">
<title>2</title>
<ellipse fill="none" stroke="black" cx="182.53" cy="-74" rx="20.51" ry="20.51"/>
<text text-anchor="middle" x="182.53" y="-70.3" font-family="Times New Roman,serif" font-size="14.00">2</text>
</g>
<!-- 1&#45;&gt;2 -->
<g id="edge2" class="edge">
<title>1&#45;&gt;2</title>
<path fill="none" stroke="black" d="M117.31,-106.89C128.35,-101.23 142.73,-93.87 155.09,-87.54"/>
<polygon fill="black" stroke="black" points="156.75,-90.62 164.05,-82.95 153.56,-84.39 156.75,-90.62"/>
<text text-anchor="start" x="137.02" y="-100.8" font-family="Times New Roman,serif" font-size="14.00">λ</text>
</g>
<!-- 3 -->
<g id="node5" class="node">
<title>3</title>
<ellipse fill="none" stroke="black" cx="266.54" cy="-108" rx="20.51" ry="20.51"/>
<text text-anchor="middle" x="266.54" y="-104.3" font-family="Times New Roman,serif" font-size="14.00">3</text>
</g>
<!-- 2&#45;&gt;3 -->
<g id="edge4" class="edge">
<title>2&#45;&gt;3</title>
<path fill="none" stroke="black" d="M201.73,-81.55C212.35,-85.95 225.96,-91.59 237.88,-96.53"/>
<polygon fill="black" stroke="black" points="236.81,-99.88 247.39,-100.48 239.5,-93.41 236.81,-99.88"/>
<text text-anchor="start" x="221.04" y="-96.8" font-family="Times New Roman,serif" font-size="14.00">λ</text>
</g>
<!-- 4 -->
<g id="node6" class="node">
<title>4</title>
<ellipse fill="none" stroke="black" cx="266.54" cy="-49" rx="20.51" ry="20.51"/>
<text text-anchor="middle" x="266.54" y="-45.3" font-family="Times New Roman,serif" font-size="14.00">4</text>
</g>
<!-- 2&#45;&gt;4 -->
<g id="edge5" class="edge">
<title>2&#45;&gt;4</title>
<path fill="none" stroke="black" d="M202.14,-67.26C208.14,-65.16 214.85,-62.91 221.04,-61 226.07,-59.45 231.46,-57.91 236.68,-56.46"/>
<polygon fill="black" stroke="black" points="237.65,-59.83 246.4,-53.85 235.83,-53.07 237.65,-59.83"/>
<text text-anchor="start" x="221.04" y="-64.8" font-family="Times New Roman,serif" font-size="14.00">λ</text>
</g>
<!-- 5 -->
<g id="node7" class="node">
<title>5</title>
<ellipse fill="none" stroke="black" cx="361.55" cy="-108" rx="20.51" ry="20.51"/>
<text text-anchor="middle" x="361.55" y="-104.3" font-family="Times New Roman,serif" font-size="14.00">5</text>
</g>
<!-- 3&#45;&gt;5 -->
<g id="edge6" class="edge">
<title>3&#45;&gt;5</title>
<path fill="none" stroke="black" d="M287.27,-108C299.85,-108 316.39,-108 330.57,-108"/>
<polygon fill="black" stroke="black" points="330.86,-111.5 340.86,-108 330.86,-104.5 330.86,-111.5"/>
<text text-anchor="middle" x="314.05" y="-111.8" font-family="Times New Roman,serif" font-size="14.00">a,b</text>
</g>
<!-- 6 -->
<g id="node8" class="node">
<title>6</title>
<ellipse fill="none" stroke="black" cx="420.57" cy="-50" rx="20.51" ry="20.51"/>
<text text-anchor="middle" x="420.57" y="-46.3" font-family="Times New Roman,serif" font-size="14.00">6</text>
</g>
<!-- 4&#45;&gt;6 -->
<g id="edge7" class="edge">
<title>4&#45;&gt;6</title>
<path fill="none" stroke="black" d="M287.11,-49.13C313.07,-49.3 359.18,-49.6 389.56,-49.8"/>
<polygon fill="black" stroke="black" points="389.57,-53.3 399.6,-49.87 389.62,-46.3 389.57,-53.3"/>
<text text-anchor="middle" x="314.05" y="-53.8" font-family="Times New Roman,serif" font-size="14.00">a</text>
</g>
<!-- 7 -->
<g id="node9" class="node">
<title>7</title>
<ellipse fill="none" stroke="black" cx="479.58" cy="-106" rx="20.51" ry="20.51"/>
<text text-anchor="middle" x="479.58" y="-102.3" font-family="Times New Roman,serif" font-size="14.00">7</text>
</g>
<!-- 5&#45;&gt;7 -->
<g id="edge8" class="edge">
<title>5&#45;&gt;7</title>
<path fill="none" stroke="black" d="M382.24,-107.66C400.41,-107.35 427.65,-106.88 448.54,-106.52"/>
<polygon fill="black" stroke="black" points="448.86,-110.01 458.8,-106.34 448.74,-103.01 448.86,-110.01"/>
<text text-anchor="middle" x="420.57" y="-111.8" font-family="Times New Roman,serif" font-size="14.00">a,b</text>
</g>
<!-- 9 -->
<g id="node10" class="node">
<title>9</title>
<ellipse fill="none" stroke="black" cx="648.6" cy="-79" rx="20.51" ry="20.51"/>
<text text-anchor="middle" x="648.6" y="-75.3" font-family="Times New Roman,serif" font-size="14.00">9</text>
</g>
<!-- 6&#45;&gt;9 -->
<g id="edge9" class="edge">
<title>6&#45;&gt;9</title>
<path fill="none" stroke="black" d="M440.97,-52.24C471.61,-55.8 533.07,-63.07 585.1,-70 595.94,-71.44 607.82,-73.13 618.29,-74.65"/>
<polygon fill="black" stroke="black" points="617.79,-78.11 628.19,-76.1 618.8,-71.19 617.79,-78.11"/>
<text text-anchor="start" x="518.59" y="-66.8" font-family="Times New Roman,serif" font-size="14.00">λ</text>
</g>
<!-- 8 -->
<g id="node11" class="node">
<title>8</title>
<ellipse fill="none" stroke="black" cx="564.59" cy="-100" rx="20.51" ry="20.51"/>
<text text-anchor="middle" x="564.59" y="-96.3" font-family="Times New Roman,serif" font-size="14.00">8</text>
</g>
<!-- 7&#45;&gt;8 -->
<g id="edge10" class="edge">
<title>7&#45;&gt;8</title>
<path fill="none" stroke="black" d="M500.25,-104.58C510.28,-103.85 522.68,-102.96 533.85,-102.15"/>
<polygon fill="black" stroke="black" points="534.34,-105.62 544.06,-101.41 533.83,-98.64 534.34,-105.62"/>
<text text-anchor="middle" x="522.09" y="-107.8" font-family="Times New Roman,serif" font-size="14.00">b</text>
</g>
<!-- 9&#45;&gt;10 -->
<g id="edge13" class="edge">
<title>9&#45;&gt;10</title>
<path fill="none" stroke="black" d="M666.5,-89.93C677.96,-97.34 693.35,-107.29 706.45,-115.76"/>
<polygon fill="black" stroke="black" points="704.78,-118.85 715.08,-121.34 708.58,-112.97 704.78,-118.85"/>
<text text-anchor="start" x="687.11" y="-111.8" font-family="Times New Roman,serif" font-size="14.00">λ</text>
</g>
<!-- 9&#45;&gt;2 -->
<g id="edge12" class="edge">
<title>9&#45;&gt;2</title>
<path fill="none" stroke="black" d="M638.78,-60.68C626.1,-37.34 600.39,0 565.59,0 265.54,0 265.54,0 265.54,0 236.34,0 212.87,-26.17 198.64,-47.39"/>
<polygon fill="black" stroke="black" points="195.52,-45.77 193.11,-56.09 201.43,-49.52 195.52,-45.77"/>
<text text-anchor="start" x="417.07" y="-3.8" font-family="Times New Roman,serif" font-size="14.00">λ</text>
</g>
<!-- 8&#45;&gt;9 -->
<g id="edge11" class="edge">
<title>8&#45;&gt;9</title>
<path fill="none" stroke="black" d="M584.61,-95.13C594.68,-92.55 607.27,-89.33 618.53,-86.44"/>
<polygon fill="black" stroke="black" points="619.58,-89.79 628.4,-83.92 617.85,-83.01 619.58,-89.79"/>
<text text-anchor="start" x="603.1" y="-94.8" font-family="Times New Roman,serif" font-size="14.00">λ</text>
</g>
</g>
</svg>
