<?xml version="1.0" encoding="UTF-8" standalone="no"?>
<!DOCTYPE svg PUBLIC "-//W3C//DTD SVG 1.1//EN"
 "http://www.w3.org/Graphics/SVG/1.1/DTD/svg11.dtd">
<!-- Generated by graphviz version 3.0.0 (20220226.1711)
 -->
<!-- Pages: 1 -->
<svg width="389pt" height="249pt"
 viewBox="14.40 14.40 374.40 234.44" xmlns="http://www.w3.org/2000/svg" xmlns:xlink="http://www.w3.org/1999/xlink">
<g id="graph0" class="graph" transform="scale(0.843043 0.843043) rotate(0) translate(21.08 274.09)">
<polygon fill="white" stroke="transparent" points="-4,4 -4,-257.01 423.02,-257.01 423.02,4 -4,4"/>
<!-- 1 -->
<g id="node1" class="node">
<title>1</title>
<ellipse fill="none" stroke="black" cx="100.01" cy="-47.01" rx="18" ry="18"/>
<ellipse fill="none" stroke="black" cx="100.01" cy="-47.01" rx="22" ry="22"/>
<text text-anchor="middle" x="100.01" y="-43.31" font-family="Times New Roman,serif" font-size="14.00">1</text>
</g>
<!-- 2 -->
<g id="node2" class="node">
<title>2</title>
<ellipse fill="none" stroke="black" cx="188.01" cy="-161.01" rx="18" ry="18"/>
<ellipse fill="none" stroke="black" cx="188.01" cy="-161.01" rx="22" ry="22"/>
<text text-anchor="middle" x="188.01" y="-157.31" font-family="Times New Roman,serif" font-size="14.00">2</text>
</g>
<!-- 1&#45;&gt;2 -->
<g id="edge2" class="edge">
<title>1&#45;&gt;2</title>
<path fill="none" stroke="black" d="M114.07,-64.32C128.43,-83.35 151.61,-114.09 167.99,-135.79"/>
<polygon fill="black" stroke="black" points="165.29,-138.03 174.11,-143.91 170.88,-133.82 165.29,-138.03"/>
<text text-anchor="middle" x="144.01" y="-110.81" font-family="Times New Roman,serif" font-size="14.00">a</text>
</g>
<!-- 3 -->
<g id="node6" class="node">
<title>3</title>
<ellipse fill="none" stroke="black" cx="248.52" cy="-47.01" rx="20.51" ry="20.51"/>
<text text-anchor="middle" x="248.52" y="-43.31" font-family="Times New Roman,serif" font-size="14.00">3</text>
</g>
<!-- 1&#45;&gt;3 -->
<g id="edge3" class="edge">
<title>1&#45;&gt;3</title>
<path fill="none" stroke="black" d="M122.32,-47.01C147.37,-47.01 189.12,-47.01 217.46,-47.01"/>
<polygon fill="black" stroke="black" points="217.6,-50.51 227.6,-47.01 217.6,-43.51 217.6,-50.51"/>
<text text-anchor="middle" x="144.01" y="-50.81" font-family="Times New Roman,serif" font-size="14.00">b</text>
</g>
<!-- 4 -->
<g id="node3" class="node">
<title>4</title>
<ellipse fill="none" stroke="black" cx="309.02" cy="-102.01" rx="18" ry="18"/>
<ellipse fill="none" stroke="black" cx="309.02" cy="-102.01" rx="22" ry="22"/>
<text text-anchor="middle" x="309.02" y="-98.31" font-family="Times New Roman,serif" font-size="14.00">4</text>
</g>
<!-- 2&#45;&gt;4 -->
<g id="edge5" class="edge">
<title>2&#45;&gt;4</title>
<path fill="none" stroke="black" d="M208.13,-151.53C227.48,-141.94 257.61,-127 279.72,-116.04"/>
<polygon fill="black" stroke="black" points="281.55,-119.04 288.95,-111.47 278.44,-112.77 281.55,-119.04"/>
<text text-anchor="middle" x="248.52" y="-143.81" font-family="Times New Roman,serif" font-size="14.00">a</text>
</g>
<!-- 5 -->
<g id="node8" class="node">
<title>5</title>
<ellipse fill="none" stroke="black" cx="309.02" cy="-196.01" rx="20.51" ry="20.51"/>
<text text-anchor="middle" x="309.02" y="-192.31" font-family="Times New Roman,serif" font-size="14.00">5</text>
</g>
<!-- 2&#45;&gt;5 -->
<g id="edge6" class="edge">
<title>2&#45;&gt;5</title>
<path fill="none" stroke="black" d="M209.2,-166.95C228.44,-172.6 257.6,-181.18 279.26,-187.55"/>
<polygon fill="black" stroke="black" points="278.34,-190.93 288.92,-190.39 280.31,-184.21 278.34,-190.93"/>
<text text-anchor="middle" x="248.52" y="-186.81" font-family="Times New Roman,serif" font-size="14.00">b</text>
</g>
<!-- 4&#45;&gt;4 -->
<g id="edge7" class="edge">
<title>4&#45;&gt;4</title>
<path fill="none" stroke="black" d="M301.02,-122.59C299.91,-132.85 302.58,-142.01 309.02,-142.01 313.15,-142.01 315.73,-138.25 316.76,-132.85"/>
<polygon fill="black" stroke="black" points="320.27,-132.68 317.03,-122.59 313.27,-132.5 320.27,-132.68"/>
<text text-anchor="middle" x="309.02" y="-145.81" font-family="Times New Roman,serif" font-size="14.00">a,b</text>
</g>
<!-- 7 -->
<g id="node4" class="node">
<title>7</title>
<ellipse fill="none" stroke="black" cx="397.02" cy="-231.01" rx="18" ry="18"/>
<ellipse fill="none" stroke="black" cx="397.02" cy="-231.01" rx="22" ry="22"/>
<text text-anchor="middle" x="397.02" y="-227.31" font-family="Times New Roman,serif" font-size="14.00">7</text>
</g>
<!-- 7&#45;&gt;2 -->
<g id="edge11" class="edge">
<title>7&#45;&gt;2</title>
<path fill="none" stroke="black" d="M374.86,-232.67C340.85,-234.26 273.26,-232.85 228.01,-202.01 221.43,-197.52 215.1,-191.76 209.53,-185.98"/>
<polygon fill="black" stroke="black" points="211.77,-183.25 202.44,-178.22 206.59,-187.96 211.77,-183.25"/>
<text text-anchor="middle" x="309.02" y="-235.81" font-family="Times New Roman,serif" font-size="14.00">a,b</text>
</g>
<!--   -->
<g id="node5" class="node">
<title> </title>
<ellipse fill="none" stroke="white" cx="20.51" cy="-47.01" rx="20.51" ry="20.51"/>
<text text-anchor="middle" x="20.51" y="-43.31" font-family="Times New Roman,serif" font-size="14.00"> </text>
</g>
<!--  &#45;&gt;1 -->
<g id="edge1" class="edge">
<title> &#45;&gt;1</title>
<path fill="none" stroke="black" d="M41.06,-47.01C49.12,-47.01 58.66,-47.01 67.65,-47.01"/>
<polygon fill="black" stroke="black" points="67.83,-50.51 77.83,-47.01 67.83,-43.51 67.83,-50.51"/>
</g>
<!-- 6 -->
<g id="node7" class="node">
<title>6</title>
<ellipse fill="none" stroke="black" cx="397.02" cy="-47.01" rx="20.51" ry="20.51"/>
<text text-anchor="middle" x="397.02" y="-43.31" font-family="Times New Roman,serif" font-size="14.00">6</text>
</g>
<!-- 3&#45;&gt;6 -->
<g id="edge4" class="edge">
<title>3&#45;&gt;6</title>
<path fill="none" stroke="black" d="M269.28,-47.01C294.07,-47.01 336.84,-47.01 365.77,-47.01"/>
<polygon fill="black" stroke="black" points="366.11,-50.51 376.11,-47.01 366.11,-43.51 366.11,-50.51"/>
<text text-anchor="middle" x="309.02" y="-50.81" font-family="Times New Roman,serif" font-size="14.00">a,b</text>
</g>
<!-- 6&#45;&gt;1 -->
<g id="edge10" class="edge">
<title>6&#45;&gt;1</title>
<path fill="none" stroke="black" d="M378.6,-37.14C348.35,-21.17 283.96,7.61 228.01,-2.01 193.01,-8.03 154.85,-22.74 129.59,-33.71"/>
<polygon fill="black" stroke="black" points="127.97,-30.6 120.25,-37.86 130.81,-37 127.97,-30.6"/>
<text text-anchor="middle" x="248.52" y="-5.81" font-family="Times New Roman,serif" font-size="14.00">b</text>
</g>
<!-- 5&#45;&gt;7 -->
<g id="edge9" class="edge">
<title>5&#45;&gt;7</title>
<path fill="none" stroke="black" d="M328.26,-203.43C339.5,-208.01 354.16,-213.97 366.97,-219.18"/>
<polygon fill="black" stroke="black" points="365.73,-222.46 376.31,-222.99 368.37,-215.98 365.73,-222.46"/>
<text text-anchor="middle" x="353.02" y="-217.81" font-family="Times New Roman,serif" font-size="14.00">b</text>
</g>
<!-- 5&#45;&gt;6 -->
<g id="edge8" class="edge">
<title>5&#45;&gt;6</title>
<path fill="none" stroke="black" d="M321.91,-179.73C324.98,-175.34 328.21,-170.55 331.02,-166.01 350.09,-135.28 369.68,-98.59 382.3,-74.15"/>
<polygon fill="black" stroke="black" points="385.49,-75.6 386.94,-65.1 379.26,-72.4 385.49,-75.6"/>
<text text-anchor="middle" x="353.02" y="-136.81" font-family="Times New Roman,serif" font-size="14.00">a</text>
</g>
</g>
</svg>
