<?xml version="1.0" encoding="UTF-8" standalone="no"?>
<!DOCTYPE svg PUBLIC "-//W3C//DTD SVG 1.1//EN"
 "http://www.w3.org/Graphics/SVG/1.1/DTD/svg11.dtd">
<!-- Generated by graphviz version 3.0.0 (20220226.1711)
 -->
<!-- Pages: 1 -->
<svg width="389pt" height="254pt"
 viewBox="14.40 14.40 374.40 239.38" xmlns="http://www.w3.org/2000/svg" xmlns:xlink="http://www.w3.org/1999/xlink">
<g id="graph0" class="graph" transform="scale(0.749905 0.749905) rotate(0) translate(23.2 315.21)">
<polygon fill="white" stroke="transparent" points="-4,4 -4,-296.01 476.06,-296.01 476.06,4 -4,4"/>
<!-- 2 -->
<g id="node1" class="node">
<title>2</title>
<ellipse fill="none" stroke="black" cx="196.02" cy="-98.51" rx="18" ry="18"/>
<ellipse fill="none" stroke="black" cx="196.02" cy="-98.51" rx="22" ry="22"/>
<text text-anchor="middle" x="196.02" y="-94.81" font-family="Times New Roman,serif" font-size="14.00">2</text>
</g>
<!-- 3 -->
<g id="node4" class="node">
<title>3</title>
<ellipse fill="none" stroke="black" cx="281.53" cy="-201.51" rx="20.51" ry="20.51"/>
<text text-anchor="middle" x="281.53" y="-197.81" font-family="Times New Roman,serif" font-size="14.00">3</text>
</g>
<!-- 2&#45;&gt;3 -->
<g id="edge3" class="edge">
<title>2&#45;&gt;3</title>
<path fill="none" stroke="black" d="M210.81,-115.51C224.61,-132.54 245.96,-158.86 261.4,-177.9"/>
<polygon fill="black" stroke="black" points="258.8,-180.26 267.82,-185.82 264.24,-175.85 258.8,-180.26"/>
<text text-anchor="start" x="236.02" y="-156.31" font-family="Times New Roman,serif" font-size="14.00">位</text>
</g>
<!-- 6 -->
<g id="node5" class="node">
<title>6</title>
<ellipse fill="none" stroke="black" cx="281.53" cy="-20.51" rx="20.51" ry="20.51"/>
<text text-anchor="middle" x="281.53" y="-16.81" font-family="Times New Roman,serif" font-size="14.00">6</text>
</g>
<!-- 2&#45;&gt;6 -->
<g id="edge4" class="edge">
<title>2&#45;&gt;6</title>
<path fill="none" stroke="black" d="M209.02,-80.12C216.13,-70.07 225.73,-57.81 236.02,-48.51 241.48,-43.57 247.92,-38.97 254.17,-34.98"/>
<polygon fill="black" stroke="black" points="256.33,-37.76 263.07,-29.6 252.71,-31.77 256.33,-37.76"/>
<text text-anchor="start" x="236.02" y="-52.31" font-family="Times New Roman,serif" font-size="14.00">位</text>
</g>
<!--   -->
<g id="node2" class="node">
<title> </title>
<ellipse fill="none" stroke="white" cx="20.51" cy="-98.51" rx="20.51" ry="20.51"/>
<text text-anchor="middle" x="20.51" y="-94.81" font-family="Times New Roman,serif" font-size="14.00"> </text>
</g>
<!-- 1 -->
<g id="node3" class="node">
<title>1</title>
<ellipse fill="none" stroke="black" cx="98.52" cy="-98.51" rx="20.51" ry="20.51"/>
<text text-anchor="middle" x="98.52" y="-94.81" font-family="Times New Roman,serif" font-size="14.00">1</text>
</g>
<!--  &#45;&gt;1 -->
<g id="edge1" class="edge">
<title> &#45;&gt;1</title>
<path fill="none" stroke="black" d="M41.08,-98.51C49.24,-98.51 58.89,-98.51 67.88,-98.51"/>
<polygon fill="black" stroke="black" points="68.01,-102.01 78.01,-98.51 68.01,-95.01 68.01,-102.01"/>
</g>
<!-- 1&#45;&gt;2 -->
<g id="edge2" class="edge">
<title>1&#45;&gt;2</title>
<path fill="none" stroke="black" d="M119.31,-98.51C132.15,-98.51 149.15,-98.51 163.79,-98.51"/>
<polygon fill="black" stroke="black" points="163.94,-102.01 173.94,-98.51 163.94,-95.01 163.94,-102.01"/>
<text text-anchor="middle" x="146.52" y="-102.31" font-family="Times New Roman,serif" font-size="14.00">b,c</text>
</g>
<!-- 4 -->
<g id="node6" class="node">
<title>4</title>
<ellipse fill="none" stroke="black" cx="366.54" cy="-271.51" rx="20.51" ry="20.51"/>
<text text-anchor="middle" x="366.54" y="-267.81" font-family="Times New Roman,serif" font-size="14.00">4</text>
</g>
<!-- 3&#45;&gt;4 -->
<g id="edge5" class="edge">
<title>3&#45;&gt;4</title>
<path fill="none" stroke="black" d="M297.76,-214.35C310.28,-224.9 328.22,-240.03 342.5,-252.07"/>
<polygon fill="black" stroke="black" points="340.51,-254.98 350.41,-258.75 345.02,-249.63 340.51,-254.98"/>
<text text-anchor="middle" x="324.04" y="-242.31" font-family="Times New Roman,serif" font-size="14.00">a</text>
</g>
<!-- 5 -->
<g id="node7" class="node">
<title>5</title>
<ellipse fill="none" stroke="black" cx="451.55" cy="-191.51" rx="20.51" ry="20.51"/>
<text text-anchor="middle" x="451.55" y="-187.81" font-family="Times New Roman,serif" font-size="14.00">5</text>
</g>
<!-- 3&#45;&gt;5 -->
<g id="edge6" class="edge">
<title>3&#45;&gt;5</title>
<path fill="none" stroke="black" d="M302.13,-200.34C331.35,-198.6 386.53,-195.32 420.76,-193.28"/>
<polygon fill="black" stroke="black" points="421.3,-196.75 431.08,-192.67 420.89,-189.77 421.3,-196.75"/>
<text text-anchor="start" x="363.04" y="-201.31" font-family="Times New Roman,serif" font-size="14.00">位</text>
</g>
<!-- 7 -->
<g id="node8" class="node">
<title>7</title>
<ellipse fill="none" stroke="black" cx="366.54" cy="-59.51" rx="20.51" ry="20.51"/>
<text text-anchor="middle" x="366.54" y="-55.81" font-family="Times New Roman,serif" font-size="14.00">7</text>
</g>
<!-- 6&#45;&gt;7 -->
<g id="edge10" class="edge">
<title>6&#45;&gt;7</title>
<path fill="none" stroke="black" d="M300.54,-28.97C311.53,-34.13 325.79,-40.83 338.16,-46.64"/>
<polygon fill="black" stroke="black" points="337.03,-49.98 347.57,-51.06 340,-43.64 337.03,-49.98"/>
<text text-anchor="middle" x="324.04" y="-45.31" font-family="Times New Roman,serif" font-size="14.00">b</text>
</g>
<!-- 4&#45;&gt;5 -->
<g id="edge7" class="edge">
<title>4&#45;&gt;5</title>
<path fill="none" stroke="black" d="M383.04,-258.53C392,-250.87 403.38,-240.87 413.05,-231.51 418.69,-226.04 424.59,-219.95 430,-214.19"/>
<polygon fill="black" stroke="black" points="432.76,-216.36 436.99,-206.65 427.63,-211.6 432.76,-216.36"/>
<text text-anchor="middle" x="409.05" y="-241.31" font-family="Times New Roman,serif" font-size="14.00">b</text>
</g>
<!-- 5&#45;&gt;2 -->
<g id="edge9" class="edge">
<title>5&#45;&gt;2</title>
<path fill="none" stroke="black" d="M432.81,-182.48C426.62,-179.47 419.59,-176.2 413.05,-173.51 347.77,-146.61 268.94,-120.89 226.89,-107.69"/>
<polygon fill="black" stroke="black" points="227.85,-104.32 217.26,-104.69 225.77,-111.01 227.85,-104.32"/>
<text text-anchor="middle" x="324.04" y="-144.31" font-family="Times New Roman,serif" font-size="14.00">c</text>
</g>
<!-- 5&#45;&gt;3 -->
<g id="edge8" class="edge">
<title>5&#45;&gt;3</title>
<path fill="none" stroke="black" d="M431.97,-184.78C411.01,-178.1 375.94,-169.62 346.04,-175.51 333.47,-177.98 320.26,-182.96 309.16,-187.91"/>
<polygon fill="black" stroke="black" points="307.59,-184.77 300.02,-192.18 310.56,-191.12 307.59,-184.77"/>
<text text-anchor="start" x="363.04" y="-179.31" font-family="Times New Roman,serif" font-size="14.00">位</text>
</g>
<!-- 7&#45;&gt;2 -->
<g id="edge11" class="edge">
<title>7&#45;&gt;2</title>
<path fill="none" stroke="black" d="M346.27,-63.97C317.3,-70.67 262.23,-83.42 227.7,-91.41"/>
<polygon fill="black" stroke="black" points="226.64,-88.06 217.69,-93.72 228.22,-94.88 226.64,-88.06"/>
<text text-anchor="middle" x="281.53" y="-88.31" font-family="Times New Roman,serif" font-size="14.00">a</text>
</g>
</g>
</svg>
