<?xml version="1.0" encoding="UTF-8" standalone="no"?>
<!DOCTYPE svg PUBLIC "-//W3C//DTD SVG 1.1//EN"
 "http://www.w3.org/Graphics/SVG/1.1/DTD/svg11.dtd">
<!-- Generated by graphviz version 3.0.0 (20220226.1711)
 -->
<!-- Pages: 1 -->
<svg width="389pt" height="160pt"
 viewBox="14.40 14.40 374.40 145.99" xmlns="http://www.w3.org/2000/svg" xmlns:xlink="http://www.w3.org/1999/xlink">
<g id="graph0" class="graph" transform="scale(0.908979 0.908979) rotate(0) translate(19.84 156.61)">
<polygon fill="white" stroke="transparent" points="-4,4 -4,-140.77 392.05,-140.77 392.05,4 -4,4"/>
<!-- 2 -->
<g id="node1" class="node">
<title>2</title>
<ellipse fill="none" stroke="black" cx="196.02" cy="-63.26" rx="18" ry="18"/>
<ellipse fill="none" stroke="black" cx="196.02" cy="-63.26" rx="22" ry="22"/>
<text text-anchor="middle" x="196.02" y="-59.56" font-family="Times New Roman,serif" font-size="14.00">2</text>
</g>
<!-- 2&#45;&gt;2 -->
<g id="edge4" class="edge">
<title>2&#45;&gt;2</title>
<path fill="none" stroke="black" d="M188.02,-83.84C186.91,-94.11 189.58,-103.26 196.02,-103.26 200.15,-103.26 202.73,-99.5 203.76,-94.1"/>
<polygon fill="black" stroke="black" points="207.27,-93.93 204.03,-83.84 200.27,-93.75 207.27,-93.93"/>
<text text-anchor="middle" x="196.02" y="-107.06" font-family="Times New Roman,serif" font-size="14.00">c</text>
</g>
<!-- 3 -->
<g id="node4" class="node">
<title>3</title>
<ellipse fill="none" stroke="black" cx="282.53" cy="-116.26" rx="20.51" ry="20.51"/>
<text text-anchor="middle" x="282.53" y="-112.56" font-family="Times New Roman,serif" font-size="14.00">3</text>
</g>
<!-- 2&#45;&gt;3 -->
<g id="edge3" class="edge">
<title>2&#45;&gt;3</title>
<path fill="none" stroke="black" d="M211.94,-78.94C218.81,-85.53 227.36,-92.9 236.02,-98.26 241.3,-101.53 247.27,-104.39 253.11,-106.82"/>
<polygon fill="black" stroke="black" points="252.07,-110.17 262.66,-110.49 254.58,-103.64 252.07,-110.17"/>
<text text-anchor="middle" x="240.02" y="-105.06" font-family="Times New Roman,serif" font-size="14.00">b</text>
</g>
<!-- 4 -->
<g id="node5" class="node">
<title>4</title>
<ellipse fill="none" stroke="black" cx="282.53" cy="-49.26" rx="20.51" ry="20.51"/>
<text text-anchor="middle" x="282.53" y="-45.56" font-family="Times New Roman,serif" font-size="14.00">4</text>
</g>
<!-- 2&#45;&gt;4 -->
<g id="edge6" class="edge">
<title>2&#45;&gt;4</title>
<path fill="none" stroke="black" d="M215.49,-52.76C221.8,-49.71 229.03,-46.8 236.02,-45.26 241.22,-44.12 246.81,-43.85 252.24,-44.08"/>
<polygon fill="black" stroke="black" points="252.04,-47.57 262.32,-45.02 252.69,-40.6 252.04,-47.57"/>
<text text-anchor="middle" x="240.02" y="-49.06" font-family="Times New Roman,serif" font-size="14.00">a</text>
</g>
<!--   -->
<g id="node2" class="node">
<title> </title>
<ellipse fill="none" stroke="white" cx="20.51" cy="-63.26" rx="20.51" ry="20.51"/>
<text text-anchor="middle" x="20.51" y="-59.56" font-family="Times New Roman,serif" font-size="14.00"> </text>
</g>
<!-- 1 -->
<g id="node3" class="node">
<title>1</title>
<ellipse fill="none" stroke="black" cx="98.52" cy="-63.26" rx="20.51" ry="20.51"/>
<text text-anchor="middle" x="98.52" y="-59.56" font-family="Times New Roman,serif" font-size="14.00">1</text>
</g>
<!--  &#45;&gt;1 -->
<g id="edge1" class="edge">
<title> &#45;&gt;1</title>
<path fill="none" stroke="black" d="M41.08,-63.26C49.24,-63.26 58.89,-63.26 67.88,-63.26"/>
<polygon fill="black" stroke="black" points="68.01,-66.76 78.01,-63.26 68.01,-59.76 68.01,-66.76"/>
</g>
<!-- 1&#45;&gt;2 -->
<g id="edge2" class="edge">
<title>1&#45;&gt;2</title>
<path fill="none" stroke="black" d="M119.31,-63.26C132.15,-63.26 149.15,-63.26 163.79,-63.26"/>
<polygon fill="black" stroke="black" points="163.94,-66.76 173.94,-63.26 163.94,-59.76 163.94,-66.76"/>
<text text-anchor="middle" x="146.52" y="-67.06" font-family="Times New Roman,serif" font-size="14.00">b,c</text>
</g>
<!-- 3&#45;&gt;2 -->
<g id="edge5" class="edge">
<title>3&#45;&gt;2</title>
<path fill="none" stroke="black" d="M268.93,-100.91C262.19,-93.52 253.36,-85.03 244.02,-79.26 238.86,-76.07 232.97,-73.42 227.16,-71.26"/>
<polygon fill="black" stroke="black" points="228.17,-67.91 217.58,-68.08 225.96,-74.55 228.17,-67.91"/>
<text text-anchor="middle" x="240.02" y="-83.06" font-family="Times New Roman,serif" font-size="14.00">a</text>
</g>
<!-- 5 -->
<g id="node6" class="node">
<title>5</title>
<ellipse fill="none" stroke="black" cx="367.54" cy="-28.26" rx="20.51" ry="20.51"/>
<text text-anchor="middle" x="367.54" y="-24.56" font-family="Times New Roman,serif" font-size="14.00">5</text>
</g>
<!-- 4&#45;&gt;5 -->
<g id="edge7" class="edge">
<title>4&#45;&gt;5</title>
<path fill="none" stroke="black" d="M303.25,-48.36C311.34,-47.67 320.73,-46.44 329.04,-44.26 332.5,-43.35 336.05,-42.18 339.53,-40.88"/>
<polygon fill="black" stroke="black" points="341.06,-44.04 348.99,-37.01 338.41,-37.56 341.06,-44.04"/>
<text text-anchor="middle" x="325.04" y="-50.06" font-family="Times New Roman,serif" font-size="14.00">b</text>
</g>
<!-- 5&#45;&gt;2 -->
<g id="edge9" class="edge">
<title>5&#45;&gt;2</title>
<path fill="none" stroke="black" d="M349.45,-18.29C328.38,-7.35 291.72,7.21 262.02,-4.26 244.13,-11.17 228.12,-25.55 216.46,-38.38"/>
<polygon fill="black" stroke="black" points="213.69,-36.24 209.79,-46.09 218.98,-40.82 213.69,-36.24"/>
<text text-anchor="middle" x="282.53" y="-8.06" font-family="Times New Roman,serif" font-size="14.00">c</text>
</g>
<!-- 5&#45;&gt;4 -->
<g id="edge8" class="edge">
<title>5&#45;&gt;4</title>
<path fill="none" stroke="black" d="M347.18,-24.06C338.97,-23.03 329.4,-22.82 321.04,-25.26 316.49,-26.59 311.97,-28.66 307.73,-31.04"/>
<polygon fill="black" stroke="black" points="305.56,-28.27 298.97,-36.57 309.29,-34.19 305.56,-28.27"/>
<text text-anchor="middle" x="325.04" y="-29.06" font-family="Times New Roman,serif" font-size="14.00">a</text>
</g>
</g>
</svg>
