<?xml version="1.0" encoding="UTF-8" standalone="no"?>
<!DOCTYPE svg PUBLIC "-//W3C//DTD SVG 1.1//EN"
 "http://www.w3.org/Graphics/SVG/1.1/DTD/svg11.dtd">
<!-- Generated by graphviz version 3.0.0 (20220226.1711)
 -->
<!-- Pages: 1 -->
<svg width="389pt" height="120pt"
 viewBox="14.40 14.40 374.40 105.40" xmlns="http://www.w3.org/2000/svg" xmlns:xlink="http://www.w3.org/1999/xlink">
<g id="graph0" class="graph" transform="scale(0.402624 0.402624) rotate(0) translate(39.77 257.78)">
<polygon fill="white" stroke="transparent" points="-4,4 -4,-222.01 890.13,-222.01 890.13,4 -4,4"/>
<!-- 20 -->
<g id="node1" class="node">
<title>20</title>
<ellipse fill="none" stroke="black" cx="864.13" cy="-120.51" rx="18" ry="18"/>
<ellipse fill="none" stroke="black" cx="864.13" cy="-120.51" rx="22" ry="22"/>
<text text-anchor="middle" x="864.13" y="-116.81" font-family="Times New Roman,serif" font-size="14.00">20</text>
</g>
<!-- 20&#45;&gt;20 -->
<g id="edge25" class="edge">
<title>20&#45;&gt;20</title>
<path fill="none" stroke="black" d="M855.4,-141.09C854.19,-151.35 857.1,-160.51 864.13,-160.51 868.64,-160.51 871.45,-156.75 872.57,-151.35"/>
<polygon fill="black" stroke="black" points="876.08,-151.18 872.87,-141.09 869.08,-150.98 876.08,-151.18"/>
<text text-anchor="middle" x="864.13" y="-164.31" font-family="Times New Roman,serif" font-size="14.00">a,b</text>
</g>
<!--   -->
<g id="node2" class="node">
<title> </title>
<ellipse fill="none" stroke="white" cx="20.51" cy="-103.51" rx="20.51" ry="20.51"/>
<text text-anchor="middle" x="20.51" y="-99.81" font-family="Times New Roman,serif" font-size="14.00"> </text>
</g>
<!-- 1 -->
<g id="node3" class="node">
<title>1</title>
<ellipse fill="none" stroke="black" cx="98.52" cy="-103.51" rx="20.51" ry="20.51"/>
<text text-anchor="middle" x="98.52" y="-99.81" font-family="Times New Roman,serif" font-size="14.00">1</text>
</g>
<!--  &#45;&gt;1 -->
<g id="edge1" class="edge">
<title> &#45;&gt;1</title>
<path fill="none" stroke="black" d="M41.08,-103.51C49.24,-103.51 58.89,-103.51 67.88,-103.51"/>
<polygon fill="black" stroke="black" points="68.01,-107.01 78.01,-103.51 68.01,-100.01 68.01,-107.01"/>
</g>
<!-- 2 -->
<g id="node4" class="node">
<title>2</title>
<ellipse fill="none" stroke="black" cx="193.53" cy="-103.51" rx="20.51" ry="20.51"/>
<text text-anchor="middle" x="193.53" y="-99.81" font-family="Times New Roman,serif" font-size="14.00">2</text>
</g>
<!-- 1&#45;&gt;2 -->
<g id="edge2" class="edge">
<title>1&#45;&gt;2</title>
<path fill="none" stroke="black" d="M119.24,-103.51C131.82,-103.51 148.37,-103.51 162.55,-103.51"/>
<polygon fill="black" stroke="black" points="162.83,-107.01 172.83,-103.51 162.83,-100.01 162.83,-107.01"/>
<text text-anchor="middle" x="146.02" y="-107.31" font-family="Times New Roman,serif" font-size="14.00">a,b</text>
</g>
<!-- 2&#45;&gt;2 -->
<g id="edge3" class="edge">
<title>2&#45;&gt;2</title>
<path fill="none" stroke="black" d="M185.93,-122.92C184.76,-132.96 187.3,-142.01 193.53,-142.01 197.52,-142.01 200,-138.3 200.95,-132.99"/>
<polygon fill="black" stroke="black" points="204.46,-132.98 201.13,-122.92 197.46,-132.86 204.46,-132.98"/>
<text text-anchor="middle" x="193.53" y="-145.81" font-family="Times New Roman,serif" font-size="14.00">a,b</text>
</g>
<!-- 3 -->
<g id="node5" class="node">
<title>3</title>
<ellipse fill="none" stroke="black" cx="277.54" cy="-197.51" rx="20.51" ry="20.51"/>
<text text-anchor="middle" x="277.54" y="-193.81" font-family="Times New Roman,serif" font-size="14.00">3</text>
</g>
<!-- 2&#45;&gt;3 -->
<g id="edge4" class="edge">
<title>2&#45;&gt;3</title>
<path fill="none" stroke="black" d="M207.71,-118.61C220.86,-133.68 241.24,-157.05 256.42,-174.44"/>
<polygon fill="black" stroke="black" points="254.19,-177.21 263.4,-182.44 259.46,-172.6 254.19,-177.21"/>
<text text-anchor="start" x="232.04" y="-156.31" font-family="Times New Roman,serif" font-size="14.00">λ</text>
</g>
<!-- 6 -->
<g id="node6" class="node">
<title>6</title>
<ellipse fill="none" stroke="black" cx="277.54" cy="-138.51" rx="20.51" ry="20.51"/>
<text text-anchor="middle" x="277.54" y="-134.81" font-family="Times New Roman,serif" font-size="14.00">6</text>
</g>
<!-- 2&#45;&gt;6 -->
<g id="edge5" class="edge">
<title>2&#45;&gt;6</title>
<path fill="none" stroke="black" d="M212.73,-111.27C223.35,-115.81 236.96,-121.61 248.88,-126.7"/>
<polygon fill="black" stroke="black" points="247.82,-130.05 258.39,-130.76 250.57,-123.62 247.82,-130.05"/>
<text text-anchor="start" x="232.04" y="-126.31" font-family="Times New Roman,serif" font-size="14.00">λ</text>
</g>
<!-- 9 -->
<g id="node7" class="node">
<title>9</title>
<ellipse fill="none" stroke="black" cx="277.54" cy="-79.51" rx="20.51" ry="20.51"/>
<text text-anchor="middle" x="277.54" y="-75.81" font-family="Times New Roman,serif" font-size="14.00">9</text>
</g>
<!-- 2&#45;&gt;9 -->
<g id="edge6" class="edge">
<title>2&#45;&gt;9</title>
<path fill="none" stroke="black" d="M213.55,-97.94C223.7,-94.97 236.39,-91.26 247.72,-87.94"/>
<polygon fill="black" stroke="black" points="249.01,-91.21 257.62,-85.04 247.04,-84.49 249.01,-91.21"/>
<text text-anchor="start" x="232.04" y="-96.31" font-family="Times New Roman,serif" font-size="14.00">λ</text>
</g>
<!-- 14 -->
<g id="node8" class="node">
<title>14</title>
<ellipse fill="none" stroke="black" cx="277.54" cy="-20.51" rx="20.51" ry="20.51"/>
<text text-anchor="middle" x="277.54" y="-16.81" font-family="Times New Roman,serif" font-size="14.00">14</text>
</g>
<!-- 2&#45;&gt;14 -->
<g id="edge7" class="edge">
<title>2&#45;&gt;14</title>
<path fill="none" stroke="black" d="M208.44,-89.43C221.29,-76.43 240.55,-56.94 255.31,-42"/>
<polygon fill="black" stroke="black" points="258.02,-44.23 262.56,-34.65 253.04,-39.31 258.02,-44.23"/>
<text text-anchor="start" x="232.04" y="-68.31" font-family="Times New Roman,serif" font-size="14.00">λ</text>
</g>
<!-- 4 -->
<g id="node9" class="node">
<title>4</title>
<ellipse fill="none" stroke="black" cx="362.55" cy="-197.51" rx="20.51" ry="20.51"/>
<text text-anchor="middle" x="362.55" y="-193.81" font-family="Times New Roman,serif" font-size="14.00">4</text>
</g>
<!-- 3&#45;&gt;4 -->
<g id="edge8" class="edge">
<title>3&#45;&gt;4</title>
<path fill="none" stroke="black" d="M298.22,-197.51C308.24,-197.51 320.65,-197.51 331.81,-197.51"/>
<polygon fill="black" stroke="black" points="332.02,-201.01 342.02,-197.51 332.02,-194.01 332.02,-201.01"/>
<text text-anchor="middle" x="320.05" y="-201.31" font-family="Times New Roman,serif" font-size="14.00">a</text>
</g>
<!-- 7 -->
<g id="node12" class="node">
<title>7</title>
<ellipse fill="none" stroke="black" cx="362.55" cy="-138.51" rx="20.51" ry="20.51"/>
<text text-anchor="middle" x="362.55" y="-134.81" font-family="Times New Roman,serif" font-size="14.00">7</text>
</g>
<!-- 6&#45;&gt;7 -->
<g id="edge11" class="edge">
<title>6&#45;&gt;7</title>
<path fill="none" stroke="black" d="M298.22,-138.51C308.24,-138.51 320.65,-138.51 331.81,-138.51"/>
<polygon fill="black" stroke="black" points="332.02,-142.01 342.02,-138.51 332.02,-135.01 332.02,-142.01"/>
<text text-anchor="middle" x="320.05" y="-142.31" font-family="Times New Roman,serif" font-size="14.00">b</text>
</g>
<!-- 10 -->
<g id="node14" class="node">
<title>10</title>
<ellipse fill="none" stroke="black" cx="362.55" cy="-79.51" rx="20.51" ry="20.51"/>
<text text-anchor="middle" x="362.55" y="-75.81" font-family="Times New Roman,serif" font-size="14.00">10</text>
</g>
<!-- 9&#45;&gt;10 -->
<g id="edge14" class="edge">
<title>9&#45;&gt;10</title>
<path fill="none" stroke="black" d="M298.22,-79.51C308.24,-79.51 320.65,-79.51 331.81,-79.51"/>
<polygon fill="black" stroke="black" points="332.02,-83.01 342.02,-79.51 332.02,-76.01 332.02,-83.01"/>
<text text-anchor="middle" x="320.05" y="-83.31" font-family="Times New Roman,serif" font-size="14.00">a</text>
</g>
<!-- 15 -->
<g id="node18" class="node">
<title>15</title>
<ellipse fill="none" stroke="black" cx="362.55" cy="-20.51" rx="20.51" ry="20.51"/>
<text text-anchor="middle" x="362.55" y="-16.81" font-family="Times New Roman,serif" font-size="14.00">15</text>
</g>
<!-- 14&#45;&gt;15 -->
<g id="edge19" class="edge">
<title>14&#45;&gt;15</title>
<path fill="none" stroke="black" d="M298.22,-20.51C308.24,-20.51 320.65,-20.51 331.81,-20.51"/>
<polygon fill="black" stroke="black" points="332.02,-24.01 342.02,-20.51 332.02,-17.01 332.02,-24.01"/>
<text text-anchor="middle" x="320.05" y="-24.31" font-family="Times New Roman,serif" font-size="14.00">b</text>
</g>
<!-- 5 -->
<g id="node10" class="node">
<title>5</title>
<ellipse fill="none" stroke="black" cx="506.58" cy="-185.51" rx="20.51" ry="20.51"/>
<text text-anchor="middle" x="506.58" y="-181.81" font-family="Times New Roman,serif" font-size="14.00">5</text>
</g>
<!-- 4&#45;&gt;5 -->
<g id="edge9" class="edge">
<title>4&#45;&gt;5</title>
<path fill="none" stroke="black" d="M383,-195.86C406.99,-193.84 447.99,-190.37 475.91,-188.01"/>
<polygon fill="black" stroke="black" points="476.24,-191.5 485.91,-187.17 475.65,-184.52 476.24,-191.5"/>
<text text-anchor="middle" x="405.06" y="-197.31" font-family="Times New Roman,serif" font-size="14.00">a</text>
</g>
<!-- 19 -->
<g id="node11" class="node">
<title>19</title>
<ellipse fill="none" stroke="black" cx="767.63" cy="-120.51" rx="20.51" ry="20.51"/>
<text text-anchor="middle" x="767.63" y="-116.81" font-family="Times New Roman,serif" font-size="14.00">19</text>
</g>
<!-- 5&#45;&gt;19 -->
<g id="edge10" class="edge">
<title>5&#45;&gt;19</title>
<path fill="none" stroke="black" d="M527.31,-184.2C563.27,-181.38 641.55,-173.22 704.12,-152.51 716.65,-148.36 729.77,-141.99 740.73,-136.03"/>
<polygon fill="black" stroke="black" points="742.74,-138.91 749.74,-130.96 739.31,-132.81 742.74,-138.91"/>
<text text-anchor="start" x="621.1" y="-178.31" font-family="Times New Roman,serif" font-size="14.00">λ</text>
</g>
<!-- 19&#45;&gt;20 -->
<g id="edge24" class="edge">
<title>19&#45;&gt;20</title>
<path fill="none" stroke="black" d="M788.21,-120.51C800.83,-120.51 817.51,-120.51 831.93,-120.51"/>
<polygon fill="black" stroke="black" points="831.93,-124.01 841.93,-120.51 831.93,-117.01 831.93,-124.01"/>
<text text-anchor="middle" x="815.13" y="-124.31" font-family="Times New Roman,serif" font-size="14.00">a,b</text>
</g>
<!-- 8 -->
<g id="node13" class="node">
<title>8</title>
<ellipse fill="none" stroke="black" cx="624.6" cy="-137.51" rx="20.51" ry="20.51"/>
<text text-anchor="middle" x="624.6" y="-133.81" font-family="Times New Roman,serif" font-size="14.00">8</text>
</g>
<!-- 7&#45;&gt;8 -->
<g id="edge12" class="edge">
<title>7&#45;&gt;8</title>
<path fill="none" stroke="black" d="M383.1,-138.43C428.19,-138.26 539.72,-137.83 593.56,-137.62"/>
<polygon fill="black" stroke="black" points="593.84,-141.12 603.83,-137.58 593.82,-134.12 593.84,-141.12"/>
<text text-anchor="middle" x="447.57" y="-142.31" font-family="Times New Roman,serif" font-size="14.00">b</text>
</g>
<!-- 8&#45;&gt;19 -->
<g id="edge13" class="edge">
<title>8&#45;&gt;19</title>
<path fill="none" stroke="black" d="M645.21,-135.14C669,-132.28 709.33,-127.41 736.93,-124.09"/>
<polygon fill="black" stroke="black" points="737.68,-127.52 747.19,-122.85 736.84,-120.57 737.68,-127.52"/>
<text text-anchor="start" x="680.12" y="-137.31" font-family="Times New Roman,serif" font-size="14.00">λ</text>
</g>
<!-- 11 -->
<g id="node15" class="node">
<title>11</title>
<ellipse fill="none" stroke="black" cx="447.57" cy="-79.51" rx="20.51" ry="20.51"/>
<text text-anchor="middle" x="447.57" y="-75.81" font-family="Times New Roman,serif" font-size="14.00">11</text>
</g>
<!-- 10&#45;&gt;11 -->
<g id="edge15" class="edge">
<title>10&#45;&gt;11</title>
<path fill="none" stroke="black" d="M383.23,-79.51C393.26,-79.51 405.66,-79.51 416.83,-79.51"/>
<polygon fill="black" stroke="black" points="417.04,-83.01 427.04,-79.51 417.04,-76.01 417.04,-83.01"/>
<text text-anchor="middle" x="405.06" y="-83.31" font-family="Times New Roman,serif" font-size="14.00">b</text>
</g>
<!-- 12 -->
<g id="node16" class="node">
<title>12</title>
<ellipse fill="none" stroke="black" cx="565.59" cy="-79.51" rx="20.51" ry="20.51"/>
<text text-anchor="middle" x="565.59" y="-75.81" font-family="Times New Roman,serif" font-size="14.00">12</text>
</g>
<!-- 11&#45;&gt;12 -->
<g id="edge16" class="edge">
<title>11&#45;&gt;12</title>
<path fill="none" stroke="black" d="M468.25,-79.51C486.42,-79.51 513.66,-79.51 534.55,-79.51"/>
<polygon fill="black" stroke="black" points="534.81,-83.01 544.81,-79.51 534.81,-76.01 534.81,-83.01"/>
<text text-anchor="middle" x="506.58" y="-83.31" font-family="Times New Roman,serif" font-size="14.00">a</text>
</g>
<!-- 13 -->
<g id="node17" class="node">
<title>13</title>
<ellipse fill="none" stroke="black" cx="683.62" cy="-79.51" rx="20.51" ry="20.51"/>
<text text-anchor="middle" x="683.62" y="-75.81" font-family="Times New Roman,serif" font-size="14.00">13</text>
</g>
<!-- 12&#45;&gt;13 -->
<g id="edge17" class="edge">
<title>12&#45;&gt;13</title>
<path fill="none" stroke="black" d="M586.27,-79.51C604.44,-79.51 631.69,-79.51 652.58,-79.51"/>
<polygon fill="black" stroke="black" points="652.84,-83.01 662.84,-79.51 652.84,-76.01 652.84,-83.01"/>
<text text-anchor="middle" x="624.6" y="-83.31" font-family="Times New Roman,serif" font-size="14.00">b</text>
</g>
<!-- 13&#45;&gt;19 -->
<g id="edge18" class="edge">
<title>13&#45;&gt;19</title>
<path fill="none" stroke="black" d="M702.41,-88.4C713.27,-93.83 727.36,-100.87 739.57,-106.98"/>
<polygon fill="black" stroke="black" points="738.36,-110.29 748.87,-111.63 741.49,-104.02 738.36,-110.29"/>
<text text-anchor="start" x="722.12" y="-105.31" font-family="Times New Roman,serif" font-size="14.00">λ</text>
</g>
<!-- 16 -->
<g id="node19" class="node">
<title>16</title>
<ellipse fill="none" stroke="black" cx="447.57" cy="-20.51" rx="20.51" ry="20.51"/>
<text text-anchor="middle" x="447.57" y="-16.81" font-family="Times New Roman,serif" font-size="14.00">16</text>
</g>
<!-- 15&#45;&gt;16 -->
<g id="edge20" class="edge">
<title>15&#45;&gt;16</title>
<path fill="none" stroke="black" d="M383.23,-20.51C393.26,-20.51 405.66,-20.51 416.83,-20.51"/>
<polygon fill="black" stroke="black" points="417.04,-24.01 427.04,-20.51 417.04,-17.01 417.04,-24.01"/>
<text text-anchor="middle" x="405.06" y="-24.31" font-family="Times New Roman,serif" font-size="14.00">a</text>
</g>
<!-- 17 -->
<g id="node20" class="node">
<title>17</title>
<ellipse fill="none" stroke="black" cx="565.59" cy="-20.51" rx="20.51" ry="20.51"/>
<text text-anchor="middle" x="565.59" y="-16.81" font-family="Times New Roman,serif" font-size="14.00">17</text>
</g>
<!-- 16&#45;&gt;17 -->
<g id="edge21" class="edge">
<title>16&#45;&gt;17</title>
<path fill="none" stroke="black" d="M468.25,-20.51C486.42,-20.51 513.66,-20.51 534.55,-20.51"/>
<polygon fill="black" stroke="black" points="534.81,-24.01 544.81,-20.51 534.81,-17.01 534.81,-24.01"/>
<text text-anchor="middle" x="506.58" y="-24.31" font-family="Times New Roman,serif" font-size="14.00">b</text>
</g>
<!-- 18 -->
<g id="node21" class="node">
<title>18</title>
<ellipse fill="none" stroke="black" cx="683.62" cy="-20.51" rx="20.51" ry="20.51"/>
<text text-anchor="middle" x="683.62" y="-16.81" font-family="Times New Roman,serif" font-size="14.00">18</text>
</g>
<!-- 17&#45;&gt;18 -->
<g id="edge22" class="edge">
<title>17&#45;&gt;18</title>
<path fill="none" stroke="black" d="M586.27,-20.51C604.44,-20.51 631.69,-20.51 652.58,-20.51"/>
<polygon fill="black" stroke="black" points="652.84,-24.01 662.84,-20.51 652.84,-17.01 652.84,-24.01"/>
<text text-anchor="middle" x="624.6" y="-24.31" font-family="Times New Roman,serif" font-size="14.00">a</text>
</g>
<!-- 18&#45;&gt;19 -->
<g id="edge23" class="edge">
<title>18&#45;&gt;19</title>
<path fill="none" stroke="black" d="M697.43,-36.13C710.85,-52.5 732.08,-78.38 747.49,-97.17"/>
<polygon fill="black" stroke="black" points="744.86,-99.48 753.9,-104.99 750.27,-95.04 744.86,-99.48"/>
<text text-anchor="start" x="722.12" y="-77.31" font-family="Times New Roman,serif" font-size="14.00">λ</text>
</g>
</g>
</svg>
