<?xml version="1.0" encoding="UTF-8" standalone="no"?>
<!DOCTYPE svg PUBLIC "-//W3C//DTD SVG 1.1//EN"
 "http://www.w3.org/Graphics/SVG/1.1/DTD/svg11.dtd">
<!-- Generated by graphviz version 3.0.0 (20220226.1711)
 -->
<!-- Pages: 1 -->
<svg width="389pt" height="190pt"
 viewBox="14.40 14.40 374.40 175.64" xmlns="http://www.w3.org/2000/svg" xmlns:xlink="http://www.w3.org/1999/xlink">
<g id="graph0" class="graph" transform="scale(0.937381 0.937381) rotate(0) translate(19.36 183.37)">
<polygon fill="white" stroke="transparent" points="-4,4 -4,-168.01 380.05,-168.01 380.05,4 -4,4"/>
<!-- 4 -->
<g id="node1" class="node">
<title>4</title>
<ellipse fill="none" stroke="black" cx="185.02" cy="-119.51" rx="18" ry="18"/>
<ellipse fill="none" stroke="black" cx="185.02" cy="-119.51" rx="22" ry="22"/>
<text text-anchor="middle" x="185.02" y="-115.81" font-family="Times New Roman,serif" font-size="14.00">4</text>
</g>
<!-- 5 -->
<g id="node6" class="node">
<title>5</title>
<ellipse fill="none" stroke="black" cx="270.53" cy="-143.51" rx="20.51" ry="20.51"/>
<text text-anchor="middle" x="270.53" y="-139.81" font-family="Times New Roman,serif" font-size="14.00">5</text>
</g>
<!-- 4&#45;&gt;5 -->
<g id="edge6" class="edge">
<title>4&#45;&gt;5</title>
<path fill="none" stroke="black" d="M206.67,-125.44C216.95,-128.39 229.54,-132.01 240.75,-135.24"/>
<polygon fill="black" stroke="black" points="239.98,-138.65 250.55,-138.05 241.91,-131.93 239.98,-138.65"/>
<text text-anchor="middle" x="228.52" y="-135.31" font-family="Times New Roman,serif" font-size="14.00">a</text>
</g>
<!--   -->
<g id="node2" class="node">
<title> </title>
<ellipse fill="none" stroke="white" cx="20.51" cy="-58.51" rx="20.51" ry="20.51"/>
<text text-anchor="middle" x="20.51" y="-54.81" font-family="Times New Roman,serif" font-size="14.00"> </text>
</g>
<!-- 1 -->
<g id="node3" class="node">
<title>1</title>
<ellipse fill="none" stroke="black" cx="98.52" cy="-58.51" rx="20.51" ry="20.51"/>
<text text-anchor="middle" x="98.52" y="-54.81" font-family="Times New Roman,serif" font-size="14.00">1</text>
</g>
<!--  &#45;&gt;1 -->
<g id="edge1" class="edge">
<title> &#45;&gt;1</title>
<path fill="none" stroke="black" d="M41.08,-58.51C49.24,-58.51 58.89,-58.51 67.88,-58.51"/>
<polygon fill="black" stroke="black" points="68.01,-62.01 78.01,-58.51 68.01,-55.01 68.01,-62.01"/>
</g>
<!-- 1&#45;&gt;4 -->
<g id="edge3" class="edge">
<title>1&#45;&gt;4</title>
<path fill="none" stroke="black" d="M115.81,-70.27C127.89,-78.98 144.58,-91.03 158.43,-101.03"/>
<polygon fill="black" stroke="black" points="156.46,-103.93 166.62,-106.94 160.56,-98.25 156.46,-103.93"/>
<text text-anchor="middle" x="141.02" y="-94.31" font-family="Times New Roman,serif" font-size="14.00">b</text>
</g>
<!-- 2 -->
<g id="node4" class="node">
<title>2</title>
<ellipse fill="none" stroke="black" cx="185.02" cy="-58.51" rx="20.51" ry="20.51"/>
<text text-anchor="middle" x="185.02" y="-54.81" font-family="Times New Roman,serif" font-size="14.00">2</text>
</g>
<!-- 1&#45;&gt;2 -->
<g id="edge2" class="edge">
<title>1&#45;&gt;2</title>
<path fill="none" stroke="black" d="M119.12,-58.51C129.5,-58.51 142.46,-58.51 154.07,-58.51"/>
<polygon fill="black" stroke="black" points="154.24,-62.01 164.24,-58.51 154.24,-55.01 154.24,-62.01"/>
<text text-anchor="middle" x="141.02" y="-62.31" font-family="Times New Roman,serif" font-size="14.00">a</text>
</g>
<!-- 3 -->
<g id="node5" class="node">
<title>3</title>
<ellipse fill="none" stroke="black" cx="270.53" cy="-20.51" rx="20.51" ry="20.51"/>
<text text-anchor="middle" x="270.53" y="-16.81" font-family="Times New Roman,serif" font-size="14.00">3</text>
</g>
<!-- 2&#45;&gt;3 -->
<g id="edge4" class="edge">
<title>2&#45;&gt;3</title>
<path fill="none" stroke="black" d="M204.14,-50.26C215.2,-45.23 229.54,-38.7 241.98,-33.04"/>
<polygon fill="black" stroke="black" points="243.79,-36.06 251.45,-28.74 240.89,-29.69 243.79,-36.06"/>
<text text-anchor="middle" x="228.52" y="-45.31" font-family="Times New Roman,serif" font-size="14.00">a</text>
</g>
<!-- 3&#45;&gt;1 -->
<g id="edge5" class="edge">
<title>3&#45;&gt;1</title>
<path fill="none" stroke="black" d="M250.55,-15.15C228.85,-9.96 192.51,-4.12 163.02,-13.51 147.69,-18.39 132.88,-28.47 121.42,-37.85"/>
<polygon fill="black" stroke="black" points="119.02,-35.3 113.71,-44.48 123.58,-40.61 119.02,-35.3"/>
<text text-anchor="middle" x="185.02" y="-17.31" font-family="Times New Roman,serif" font-size="14.00">b</text>
</g>
<!-- 6 -->
<g id="node7" class="node">
<title>6</title>
<ellipse fill="none" stroke="black" cx="355.54" cy="-105.51" rx="20.51" ry="20.51"/>
<text text-anchor="middle" x="355.54" y="-101.81" font-family="Times New Roman,serif" font-size="14.00">6</text>
</g>
<!-- 5&#45;&gt;6 -->
<g id="edge7" class="edge">
<title>5&#45;&gt;6</title>
<path fill="none" stroke="black" d="M289.54,-135.26C300.53,-130.23 314.79,-123.7 327.16,-118.04"/>
<polygon fill="black" stroke="black" points="328.93,-121.08 336.57,-113.74 326.02,-114.72 328.93,-121.08"/>
<text text-anchor="middle" x="313.04" y="-129.31" font-family="Times New Roman,serif" font-size="14.00">b</text>
</g>
<!-- 6&#45;&gt;4 -->
<g id="edge8" class="edge">
<title>6&#45;&gt;4</title>
<path fill="none" stroke="black" d="M335.16,-101.62C314.09,-97.99 279.48,-93.8 250.02,-98.51 238.27,-100.39 225.74,-104.09 214.91,-107.88"/>
<polygon fill="black" stroke="black" points="213.7,-104.59 205.51,-111.32 216.11,-111.16 213.7,-104.59"/>
<text text-anchor="middle" x="270.53" y="-102.31" font-family="Times New Roman,serif" font-size="14.00">a</text>
</g>
</g>
</svg>
