<?xml version="1.0" encoding="UTF-8" standalone="no"?>
<!DOCTYPE svg PUBLIC "-//W3C//DTD SVG 1.1//EN"
 "http://www.w3.org/Graphics/SVG/1.1/DTD/svg11.dtd">
<!-- Generated by graphviz version 3.0.0 (20220226.1711)
 -->
<!-- Pages: 1 -->
<svg width="389pt" height="114pt"
 viewBox="14.40 14.40 374.40 99.84" xmlns="http://www.w3.org/2000/svg" xmlns:xlink="http://www.w3.org/1999/xlink">
<g id="graph0" class="graph" transform="scale(0.754678 0.754678) rotate(0) translate(23.08 128.29)">
<polygon fill="white" stroke="transparent" points="-4,4 -4,-109.21 473.02,-109.21 473.02,4 -4,4"/>
<!-- 1 -->
<g id="node1" class="node">
<title>1</title>
<ellipse fill="none" stroke="black" cx="100.01" cy="-71.21" rx="18" ry="18"/>
<ellipse fill="none" stroke="black" cx="100.01" cy="-71.21" rx="22" ry="22"/>
<text text-anchor="middle" x="100.01" y="-67.51" font-family="Times New Roman,serif" font-size="14.00">1</text>
</g>
<!-- 4 -->
<g id="node3" class="node">
<title>4</title>
<ellipse fill="none" stroke="black" cx="360.02" cy="-50.21" rx="18" ry="18"/>
<ellipse fill="none" stroke="black" cx="360.02" cy="-50.21" rx="22" ry="22"/>
<text text-anchor="middle" x="360.02" y="-46.51" font-family="Times New Roman,serif" font-size="14.00">4</text>
</g>
<!-- 1&#45;&gt;4 -->
<g id="edge3" class="edge">
<title>1&#45;&gt;4</title>
<path fill="none" stroke="black" d="M121.59,-75.82C157.2,-83.01 232.41,-94.74 294.02,-81.21 307.19,-78.32 320.79,-72.36 332.13,-66.44"/>
<polygon fill="black" stroke="black" points="333.98,-69.42 341.07,-61.54 330.62,-63.28 333.98,-69.42"/>
<text text-anchor="middle" x="228.02" y="-92.01" font-family="Times New Roman,serif" font-size="14.00">b</text>
</g>
<!-- 2 -->
<g id="node6" class="node">
<title>2</title>
<ellipse fill="none" stroke="black" cx="185.52" cy="-40.21" rx="20.51" ry="20.51"/>
<text text-anchor="middle" x="185.52" y="-36.51" font-family="Times New Roman,serif" font-size="14.00">2</text>
</g>
<!-- 1&#45;&gt;2 -->
<g id="edge2" class="edge">
<title>1&#45;&gt;2</title>
<path fill="none" stroke="black" d="M120.8,-63.86C131.5,-59.89 144.89,-54.92 156.64,-50.56"/>
<polygon fill="black" stroke="black" points="157.86,-53.84 166.01,-47.08 155.42,-47.28 157.86,-53.84"/>
<text text-anchor="middle" x="143.51" y="-61.01" font-family="Times New Roman,serif" font-size="14.00">a</text>
</g>
<!-- 3 -->
<g id="node2" class="node">
<title>3</title>
<ellipse fill="none" stroke="black" cx="272.02" cy="-50.21" rx="18" ry="18"/>
<ellipse fill="none" stroke="black" cx="272.02" cy="-50.21" rx="22" ry="22"/>
<text text-anchor="middle" x="272.02" y="-46.51" font-family="Times New Roman,serif" font-size="14.00">3</text>
</g>
<!-- 3&#45;&gt;4 -->
<g id="edge7" class="edge">
<title>3&#45;&gt;4</title>
<path fill="none" stroke="black" d="M294.28,-50.21C304.38,-50.21 316.66,-50.21 327.79,-50.21"/>
<polygon fill="black" stroke="black" points="328.01,-53.71 338.01,-50.21 328.01,-46.71 328.01,-53.71"/>
<text text-anchor="middle" x="316.02" y="-54.01" font-family="Times New Roman,serif" font-size="14.00">b</text>
</g>
<!-- 3&#45;&gt;2 -->
<g id="edge6" class="edge">
<title>3&#45;&gt;2</title>
<path fill="none" stroke="black" d="M254.14,-37C247.6,-32.68 239.83,-28.42 232.02,-26.21 226.01,-24.51 219.58,-25.03 213.51,-26.62"/>
<polygon fill="black" stroke="black" points="212.01,-23.43 203.75,-30.08 214.35,-30.03 212.01,-23.43"/>
<text text-anchor="middle" x="228.02" y="-30.01" font-family="Times New Roman,serif" font-size="14.00">a</text>
</g>
<!-- 4&#45;&gt;4 -->
<g id="edge8" class="edge">
<title>4&#45;&gt;4</title>
<path fill="none" stroke="black" d="M352.34,-71.2C351.39,-81.3 353.95,-90.21 360.02,-90.21 363.91,-90.21 366.36,-86.55 367.37,-81.27"/>
<polygon fill="black" stroke="black" points="370.87,-81.31 367.71,-71.2 363.87,-81.08 370.87,-81.31"/>
<text text-anchor="middle" x="360.02" y="-94.01" font-family="Times New Roman,serif" font-size="14.00">b</text>
</g>
<!-- 5 -->
<g id="node4" class="node">
<title>5</title>
<ellipse fill="none" stroke="black" cx="447.02" cy="-50.21" rx="18" ry="18"/>
<ellipse fill="none" stroke="black" cx="447.02" cy="-50.21" rx="22" ry="22"/>
<text text-anchor="middle" x="447.02" y="-46.51" font-family="Times New Roman,serif" font-size="14.00">5</text>
</g>
<!-- 4&#45;&gt;5 -->
<g id="edge9" class="edge">
<title>4&#45;&gt;5</title>
<path fill="none" stroke="black" d="M382.04,-50.21C391.95,-50.21 403.97,-50.21 414.91,-50.21"/>
<polygon fill="black" stroke="black" points="414.96,-53.71 424.96,-50.21 414.96,-46.71 414.96,-53.71"/>
<text text-anchor="middle" x="403.52" y="-54.01" font-family="Times New Roman,serif" font-size="14.00">a</text>
</g>
<!-- 5&#45;&gt;5 -->
<g id="edge10" class="edge">
<title>5&#45;&gt;5</title>
<path fill="none" stroke="black" d="M439.34,-71.2C438.39,-81.3 440.95,-90.21 447.02,-90.21 450.91,-90.21 453.36,-86.55 454.37,-81.27"/>
<polygon fill="black" stroke="black" points="457.87,-81.31 454.71,-71.2 450.87,-81.08 457.87,-81.31"/>
<text text-anchor="middle" x="447.02" y="-94.01" font-family="Times New Roman,serif" font-size="14.00">a</text>
</g>
<!--   -->
<g id="node5" class="node">
<title> </title>
<ellipse fill="none" stroke="white" cx="20.51" cy="-71.21" rx="20.51" ry="20.51"/>
<text text-anchor="middle" x="20.51" y="-67.51" font-family="Times New Roman,serif" font-size="14.00"> </text>
</g>
<!--  &#45;&gt;1 -->
<g id="edge1" class="edge">
<title> &#45;&gt;1</title>
<path fill="none" stroke="black" d="M41.06,-71.21C49.12,-71.21 58.66,-71.21 67.65,-71.21"/>
<polygon fill="black" stroke="black" points="67.83,-74.71 77.83,-71.21 67.83,-67.71 67.83,-74.71"/>
</g>
<!-- 2&#45;&gt;3 -->
<g id="edge4" class="edge">
<title>2&#45;&gt;3</title>
<path fill="none" stroke="black" d="M206.12,-42.53C216.2,-43.72 228.72,-45.2 240.07,-46.55"/>
<polygon fill="black" stroke="black" points="239.71,-50.03 250.05,-47.73 240.53,-43.08 239.71,-50.03"/>
<text text-anchor="middle" x="228.02" y="-50.01" font-family="Times New Roman,serif" font-size="14.00">a</text>
</g>
<!-- 2&#45;&gt;4 -->
<g id="edge5" class="edge">
<title>2&#45;&gt;4</title>
<path fill="none" stroke="black" d="M202.22,-28.24C214.49,-19.67 232.38,-8.86 250.02,-4.21 268.93,0.78 275.39,1.72 294.02,-4.21 309.4,-9.1 324.26,-19.09 335.88,-28.51"/>
<polygon fill="black" stroke="black" points="333.85,-31.38 343.74,-35.19 338.39,-26.05 333.85,-31.38"/>
<text text-anchor="middle" x="272.02" y="-8.01" font-family="Times New Roman,serif" font-size="14.00">b</text>
</g>
</g>
</svg>
