<?xml version="1.0" encoding="UTF-8" standalone="no"?>
<!DOCTYPE svg PUBLIC "-//W3C//DTD SVG 1.1//EN"
 "http://www.w3.org/Graphics/SVG/1.1/DTD/svg11.dtd">
<!-- Generated by graphviz version 3.0.0 (20220226.1711)
 -->
<!-- Pages: 1 -->
<svg width="389pt" height="117pt"
 viewBox="14.40 14.40 374.40 102.43" xmlns="http://www.w3.org/2000/svg" xmlns:xlink="http://www.w3.org/1999/xlink">
<g id="graph0" class="graph" transform="scale(0.537245 0.537245) rotate(0) translate(30.8 186.65)">
<polygon fill="white" stroke="transparent" points="-4,4 -4,-159.85 666.09,-159.85 666.09,4 -4,4"/>
<!-- 9 -->
<g id="node1" class="node">
<title>9</title>
<ellipse fill="none" stroke="black" cx="640.09" cy="-71.85" rx="18" ry="18"/>
<ellipse fill="none" stroke="black" cx="640.09" cy="-71.85" rx="22" ry="22"/>
<text text-anchor="middle" x="640.09" y="-68.15" font-family="Times New Roman,serif" font-size="14.00">9</text>
</g>
<!-- 9&#45;&gt;9 -->
<g id="edge15" class="edge">
<title>9&#45;&gt;9</title>
<path fill="none" stroke="black" d="M631.35,-92.43C630.14,-102.7 633.05,-111.85 640.09,-111.85 644.59,-111.85 647.4,-108.09 648.53,-102.69"/>
<polygon fill="black" stroke="black" points="652.03,-102.53 648.82,-92.43 645.04,-102.33 652.03,-102.53"/>
<text text-anchor="middle" x="640.09" y="-115.65" font-family="Times New Roman,serif" font-size="14.00">a,b</text>
</g>
<!--   -->
<g id="node2" class="node">
<title> </title>
<ellipse fill="none" stroke="white" cx="20.51" cy="-62.85" rx="20.51" ry="20.51"/>
<text text-anchor="middle" x="20.51" y="-59.15" font-family="Times New Roman,serif" font-size="14.00"> </text>
</g>
<!-- 1 -->
<g id="node3" class="node">
<title>1</title>
<ellipse fill="none" stroke="black" cx="98.52" cy="-62.85" rx="20.51" ry="20.51"/>
<text text-anchor="middle" x="98.52" y="-59.15" font-family="Times New Roman,serif" font-size="14.00">1</text>
</g>
<!--  &#45;&gt;1 -->
<g id="edge1" class="edge">
<title> &#45;&gt;1</title>
<path fill="none" stroke="black" d="M41.08,-62.85C49.24,-62.85 58.89,-62.85 67.88,-62.85"/>
<polygon fill="black" stroke="black" points="68.01,-66.35 78.01,-62.85 68.01,-59.35 68.01,-66.35"/>
</g>
<!-- 2 -->
<g id="node4" class="node">
<title>2</title>
<ellipse fill="none" stroke="black" cx="193.53" cy="-62.85" rx="20.51" ry="20.51"/>
<text text-anchor="middle" x="193.53" y="-59.15" font-family="Times New Roman,serif" font-size="14.00">2</text>
</g>
<!-- 1&#45;&gt;2 -->
<g id="edge2" class="edge">
<title>1&#45;&gt;2</title>
<path fill="none" stroke="black" d="M119.24,-62.85C131.82,-62.85 148.37,-62.85 162.55,-62.85"/>
<polygon fill="black" stroke="black" points="162.83,-66.35 172.83,-62.85 162.83,-59.35 162.83,-66.35"/>
<text text-anchor="middle" x="146.02" y="-66.65" font-family="Times New Roman,serif" font-size="14.00">a,b</text>
</g>
<!-- 3 -->
<g id="node5" class="node">
<title>3</title>
<ellipse fill="none" stroke="black" cx="278.54" cy="-105.85" rx="20.51" ry="20.51"/>
<text text-anchor="middle" x="278.54" y="-102.15" font-family="Times New Roman,serif" font-size="14.00">3</text>
</g>
<!-- 2&#45;&gt;3 -->
<g id="edge3" class="edge">
<title>2&#45;&gt;3</title>
<path fill="none" stroke="black" d="M212.14,-71.97C223.36,-77.78 238.13,-85.43 250.79,-91.99"/>
<polygon fill="black" stroke="black" points="249.47,-95.25 259.96,-96.74 252.69,-89.04 249.47,-95.25"/>
<text text-anchor="middle" x="236.04" y="-89.65" font-family="Times New Roman,serif" font-size="14.00">a</text>
</g>
<!-- 4 -->
<g id="node6" class="node">
<title>4</title>
<ellipse fill="none" stroke="black" cx="278.54" cy="-33.85" rx="20.51" ry="20.51"/>
<text text-anchor="middle" x="278.54" y="-30.15" font-family="Times New Roman,serif" font-size="14.00">4</text>
</g>
<!-- 2&#45;&gt;4 -->
<g id="edge4" class="edge">
<title>2&#45;&gt;4</title>
<path fill="none" stroke="black" d="M213.37,-56.27C224.06,-52.54 237.64,-47.79 249.55,-43.63"/>
<polygon fill="black" stroke="black" points="250.78,-46.91 259.07,-40.31 248.47,-40.3 250.78,-46.91"/>
<text text-anchor="middle" x="236.04" y="-53.65" font-family="Times New Roman,serif" font-size="14.00">b</text>
</g>
<!-- 8 -->
<g id="node7" class="node">
<title>8</title>
<ellipse fill="none" stroke="black" cx="543.58" cy="-71.85" rx="20.51" ry="20.51"/>
<text text-anchor="middle" x="543.58" y="-68.15" font-family="Times New Roman,serif" font-size="14.00">8</text>
</g>
<!-- 3&#45;&gt;8 -->
<g id="edge5" class="edge">
<title>3&#45;&gt;8</title>
<path fill="none" stroke="black" d="M296.27,-116.5C308.64,-123.68 326.2,-132.43 343.05,-135.85 398.08,-147.01 415.18,-142.61 469.07,-126.85 486.24,-121.83 490.53,-119.26 505.07,-108.85 510.97,-104.63 516.81,-99.48 522.07,-94.37"/>
<polygon fill="black" stroke="black" points="524.76,-96.62 529.28,-87.04 519.77,-91.71 524.76,-96.62"/>
<text text-anchor="middle" x="406.06" y="-144.65" font-family="Times New Roman,serif" font-size="14.00">a</text>
</g>
<!-- 5 -->
<g id="node8" class="node">
<title>5</title>
<ellipse fill="none" stroke="black" cx="363.55" cy="-105.85" rx="20.51" ry="20.51"/>
<text text-anchor="middle" x="363.55" y="-102.15" font-family="Times New Roman,serif" font-size="14.00">5</text>
</g>
<!-- 3&#45;&gt;5 -->
<g id="edge6" class="edge">
<title>3&#45;&gt;5</title>
<path fill="none" stroke="black" d="M299.22,-105.85C309.24,-105.85 321.65,-105.85 332.81,-105.85"/>
<polygon fill="black" stroke="black" points="333.02,-109.35 343.02,-105.85 333.02,-102.35 333.02,-109.35"/>
<text text-anchor="middle" x="321.05" y="-109.65" font-family="Times New Roman,serif" font-size="14.00">b</text>
</g>
<!-- 4&#45;&gt;8 -->
<g id="edge8" class="edge">
<title>4&#45;&gt;8</title>
<path fill="none" stroke="black" d="M296.32,-23.41C308.71,-16.33 326.27,-7.61 343.05,-3.85 372.12,2.67 380.58,-1.49 410.06,-5.85 453.15,-12.22 468.39,-6.38 505.07,-29.85 512.25,-34.44 518.89,-40.78 524.53,-47.14"/>
<polygon fill="black" stroke="black" points="522.02,-49.6 531.09,-55.08 527.42,-45.14 522.02,-49.6"/>
<text text-anchor="middle" x="406.06" y="-9.65" font-family="Times New Roman,serif" font-size="14.00">b</text>
</g>
<!-- 6 -->
<g id="node9" class="node">
<title>6</title>
<ellipse fill="none" stroke="black" cx="363.55" cy="-33.85" rx="20.51" ry="20.51"/>
<text text-anchor="middle" x="363.55" y="-30.15" font-family="Times New Roman,serif" font-size="14.00">6</text>
</g>
<!-- 4&#45;&gt;6 -->
<g id="edge7" class="edge">
<title>4&#45;&gt;6</title>
<path fill="none" stroke="black" d="M299.22,-33.85C309.24,-33.85 321.65,-33.85 332.81,-33.85"/>
<polygon fill="black" stroke="black" points="333.02,-37.35 343.02,-33.85 333.02,-30.35 333.02,-37.35"/>
<text text-anchor="middle" x="321.05" y="-37.65" font-family="Times New Roman,serif" font-size="14.00">a</text>
</g>
<!-- 8&#45;&gt;9 -->
<g id="edge14" class="edge">
<title>8&#45;&gt;9</title>
<path fill="none" stroke="black" d="M564.16,-71.85C576.78,-71.85 593.46,-71.85 607.88,-71.85"/>
<polygon fill="black" stroke="black" points="607.89,-75.35 617.89,-71.85 607.89,-68.35 607.89,-75.35"/>
<text text-anchor="middle" x="591.09" y="-75.65" font-family="Times New Roman,serif" font-size="14.00">a,b</text>
</g>
<!-- 5&#45;&gt;8 -->
<g id="edge9" class="edge">
<title>5&#45;&gt;8</title>
<path fill="none" stroke="black" d="M384.03,-108.89C392.08,-109.81 401.52,-110.43 410.06,-109.85 453.03,-106.95 465.13,-106.93 505.07,-90.85 508.78,-89.36 512.61,-87.64 516.35,-85.85"/>
<polygon fill="black" stroke="black" points="517.93,-88.98 525.31,-81.38 514.8,-82.71 517.93,-88.98"/>
<text text-anchor="middle" x="448.57" y="-111.65" font-family="Times New Roman,serif" font-size="14.00">b</text>
</g>
<!-- 7 -->
<g id="node10" class="node">
<title>7</title>
<ellipse fill="none" stroke="black" cx="448.57" cy="-71.85" rx="20.51" ry="20.51"/>
<text text-anchor="middle" x="448.57" y="-68.15" font-family="Times New Roman,serif" font-size="14.00">7</text>
</g>
<!-- 5&#45;&gt;7 -->
<g id="edge10" class="edge">
<title>5&#45;&gt;7</title>
<path fill="none" stroke="black" d="M382.98,-98.3C393.83,-93.86 407.78,-88.15 419.93,-83.17"/>
<polygon fill="black" stroke="black" points="421.27,-86.4 429.2,-79.38 418.61,-79.93 421.27,-86.4"/>
<text text-anchor="middle" x="406.06" y="-94.65" font-family="Times New Roman,serif" font-size="14.00">a</text>
</g>
<!-- 6&#45;&gt;8 -->
<g id="edge12" class="edge">
<title>6&#45;&gt;8</title>
<path fill="none" stroke="black" d="M383.45,-28.83C404.7,-24.04 440.02,-18.66 469.07,-26.85 487.27,-31.98 505.4,-43 519.11,-52.86"/>
<polygon fill="black" stroke="black" points="517.33,-55.9 527.43,-59.09 521.53,-50.29 517.33,-55.9"/>
<text text-anchor="middle" x="448.57" y="-30.65" font-family="Times New Roman,serif" font-size="14.00">a</text>
</g>
<!-- 6&#45;&gt;7 -->
<g id="edge11" class="edge">
<title>6&#45;&gt;7</title>
<path fill="none" stroke="black" d="M382.57,-42.1C393.55,-47.13 407.82,-53.65 420.18,-59.31"/>
<polygon fill="black" stroke="black" points="419.04,-62.64 429.59,-63.62 421.95,-56.28 419.04,-62.64"/>
<text text-anchor="middle" x="406.06" y="-58.65" font-family="Times New Roman,serif" font-size="14.00">b</text>
</g>
<!-- 7&#45;&gt;8 -->
<g id="edge13" class="edge">
<title>7&#45;&gt;8</title>
<path fill="none" stroke="black" d="M469.29,-71.85C481.87,-71.85 498.41,-71.85 512.6,-71.85"/>
<polygon fill="black" stroke="black" points="512.88,-75.35 522.88,-71.85 512.88,-68.35 512.88,-75.35"/>
<text text-anchor="middle" x="496.07" y="-75.65" font-family="Times New Roman,serif" font-size="14.00">a,b</text>
</g>
</g>
</svg>
